STARTFONT 2.1
COMMENT This font was automatically resized by bdfresize-1.5
COMMENT   mag_x = 2/1, mag_y = 2/1, blackness = 4
FONT -addy-tiramisu-Medium-R-Normal--24-240-75-75-M-100-ISO10646-1
SIZE 24 75 75
FONTBOUNDINGBOX 20 26 -4 -6
COMMENT "(c) 2018 Addy"
COMMENT "Based on Lemon"
STARTPROPERTIES 31
FOUNDRY "addy"
FAMILY_NAME "tiramisu"
WEIGHT_NAME "Medium"
SLANT "R"
SETWIDTH_NAME "Normal"
ADD_STYLE_NAME ""
PIXEL_SIZE 24
POINT_SIZE 240
RESOLUTION_X 75
RESOLUTION_Y 75
SPACING "M"
AVERAGE_WIDTH 100
CHARSET_REGISTRY "ISO10646"
CHARSET_ENCODING "1"
FONTNAME_REGISTRY ""
CHARSET_COLLECTIONS "ISO8859-5 ISO8859-7 ISO10646-1"
FONT_NAME "tiramisumedium"
FACE_NAME "tiramisu medium"
COPYRIGHT "(c) 2018 Addy"
FONT_VERSION "001.000"
FONT_ASCENT 20
FONT_DESCENT 4
UNDERLINE_POSITION 0
UNDERLINE_THICKNESS 1
X_HEIGHT 4
CAP_HEIGHT 7
RAW_ASCENT 1000
RAW_DESCENT 200
FIGURE_WIDTH 5
AVG_LOWERCASE_WIDTH 50
AVG_UPPERCASE_WIDTH 50
ENDPROPERTIES
CHARS 1070
STARTCHAR exclam
ENCODING 33
SWIDTH 832 0
DWIDTH 10 0
BBX 2 14 4 0
BITMAP
C0
C0
C0
C0
C0
C0
C0
C0
C0
C0
00
00
C0
C0
ENDCHAR
STARTCHAR uni0022
ENCODING 34
SWIDTH 460 0
DWIDTH 10 0
BBX 6 4 2 10
BITMAP
CC
CC
CC
CC
ENDCHAR
STARTCHAR uni0023
ENCODING 35
SWIDTH 460 0
DWIDTH 10 0
BBX 8 10 2 2
BITMAP
33
33
FF
FF
33
33
FF
FF
33
33
ENDCHAR
STARTCHAR uni0024
ENCODING 36
SWIDTH 460 0
DWIDTH 10 0
BBX 8 14 2 0
BITMAP
30
30
3F
3F
C0
C0
3C
3C
03
03
FC
FC
30
30
ENDCHAR
STARTCHAR uni0025
ENCODING 37
SWIDTH 460 0
DWIDTH 10 0
BBX 8 12 2 0
BITMAP
F3
F3
F3
F3
0C
0C
30
30
CF
CF
CF
CF
ENDCHAR
STARTCHAR uni0026
ENCODING 38
SWIDTH 460 0
DWIDTH 10 0
BBX 8 14 2 0
BITMAP
30
30
CC
CC
CC
CC
30
30
CF
CF
CC
CC
33
33
ENDCHAR
STARTCHAR uni0027
ENCODING 39
SWIDTH 460 0
DWIDTH 10 0
BBX 2 4 4 10
BITMAP
C0
C0
C0
C0
ENDCHAR
STARTCHAR uni0028
ENCODING 40
SWIDTH 460 0
DWIDTH 10 0
BBX 6 20 2 -2
BITMAP
0C
0C
30
30
30
30
C0
C0
C0
C0
C0
C0
C0
C0
30
30
30
30
0C
0C
ENDCHAR
STARTCHAR uni0028
ENCODING 41
SWIDTH 460 0
DWIDTH 10 0
BBX 6 20 2 -2
BITMAP
C0
C0
30
30
30
30
0C
0C
0C
0C
0C
0C
0C
0C
30
30
30
30
C0
C0
ENDCHAR
STARTCHAR uni002A
ENCODING 42
SWIDTH 460 0
DWIDTH 10 0
BBX 8 10 2 2
BITMAP
C3
C3
3C
3C
FF
FF
3C
3C
C3
C3
ENDCHAR
STARTCHAR uni002B
ENCODING 43
SWIDTH 460 0
DWIDTH 10 0
BBX 6 6 2 4
BITMAP
30
30
FC
FC
30
30
ENDCHAR
STARTCHAR uni002C
ENCODING 44
SWIDTH 460 0
DWIDTH 10 0
BBX 4 4 4 -2
BITMAP
30
30
C0
C0
ENDCHAR
STARTCHAR uni002D
ENCODING 45
SWIDTH 460 0
DWIDTH 10 0
BBX 6 2 2 6
BITMAP
FC
FC
ENDCHAR
STARTCHAR uni002E
ENCODING 46
SWIDTH 460 0
DWIDTH 10 0
BBX 2 2 4 0
BITMAP
C0
C0
ENDCHAR
STARTCHAR uni002F
ENCODING 47
SWIDTH 460 0
DWIDTH 10 0
BBX 8 16 2 -2
BITMAP
03
03
03
03
0C
0C
0C
0C
30
30
30
30
C0
C0
C0
C0
ENDCHAR
STARTCHAR uni0030
ENCODING 48
SWIDTH 460 0
DWIDTH 10 0
BBX 8 16 2 0
BITMAP
3C
3C
C3
C3
C3
C3
CF
CF
F3
F3
C3
C3
C3
C3
3C
3C
ENDCHAR
STARTCHAR uni0031
ENCODING 49
SWIDTH 460 0
DWIDTH 10 0
BBX 6 16 2 0
BITMAP
0C
0C
3C
3C
CC
CC
0C
0C
0C
0C
0C
0C
0C
0C
0C
0C
ENDCHAR
STARTCHAR uni0032
ENCODING 50
SWIDTH 460 0
DWIDTH 10 0
BBX 8 16 2 0
BITMAP
3C
3C
C3
C3
03
03
03
03
0C
0C
30
30
C0
C0
FF
FF
ENDCHAR
STARTCHAR uni0033
ENCODING 51
SWIDTH 460 0
DWIDTH 10 0
BBX 8 16 2 0
BITMAP
FC
FC
03
03
03
03
3C
3C
03
03
03
03
03
03
FC
FC
ENDCHAR
STARTCHAR uni0034
ENCODING 52
SWIDTH 460 0
DWIDTH 10 0
BBX 8 16 2 0
BITMAP
03
03
0F
0F
33
33
C3
C3
FF
FF
03
03
03
03
03
03
ENDCHAR
STARTCHAR uni0035
ENCODING 53
SWIDTH 460 0
DWIDTH 10 0
BBX 8 16 2 0
BITMAP
FF
FF
C0
C0
C0
C0
FC
FC
03
03
03
03
C3
C3
3C
3C
ENDCHAR
STARTCHAR uni0036
ENCODING 54
SWIDTH 460 0
DWIDTH 10 0
BBX 8 16 2 0
BITMAP
3C
3C
C3
C3
C0
C0
FC
FC
C3
C3
C3
C3
C3
C3
3C
3C
ENDCHAR
STARTCHAR uni0037
ENCODING 55
SWIDTH 460 0
DWIDTH 10 0
BBX 8 16 2 0
BITMAP
FF
FF
03
03
0C
0C
0C
0C
30
30
30
30
30
30
30
30
ENDCHAR
STARTCHAR uni0038
ENCODING 56
SWIDTH 460 0
DWIDTH 10 0
BBX 8 16 2 0
BITMAP
3C
3C
C3
C3
C3
C3
3C
3C
C3
C3
C3
C3
C3
C3
3C
3C
ENDCHAR
STARTCHAR uni0039
ENCODING 57
SWIDTH 460 0
DWIDTH 10 0
BBX 8 16 2 0
BITMAP
3C
3C
C3
C3
C3
C3
C3
C3
3F
3F
03
03
C3
C3
3C
3C
ENDCHAR
STARTCHAR uni003A
ENCODING 58
SWIDTH 460 0
DWIDTH 10 0
BBX 2 8 4 2
BITMAP
C0
C0
00
00
00
00
C0
C0
ENDCHAR
STARTCHAR uni003B
ENCODING 59
SWIDTH 460 0
DWIDTH 10 0
BBX 4 10 2 0
BITMAP
30
30
00
00
00
00
30
30
C0
C0
ENDCHAR
STARTCHAR uni003C
ENCODING 60
SWIDTH 460 0
DWIDTH 10 0
BBX 8 14 2 0
BITMAP
03
03
0C
0C
30
30
C0
C0
30
30
0C
0C
03
03
ENDCHAR
STARTCHAR uni003D
ENCODING 61
SWIDTH 460 0
DWIDTH 10 0
BBX 6 6 2 4
BITMAP
FC
FC
00
00
FC
FC
ENDCHAR
STARTCHAR uni003E
ENCODING 62
SWIDTH 460 0
DWIDTH 10 0
BBX 8 14 2 0
BITMAP
C0
C0
30
30
0C
0C
03
03
0C
0C
30
30
C0
C0
ENDCHAR
STARTCHAR uni003F
ENCODING 63
SWIDTH 460 0
DWIDTH 10 0
BBX 8 14 2 0
BITMAP
3C
3C
C3
C3
03
03
0C
0C
30
30
00
00
30
30
ENDCHAR
STARTCHAR uni0040
ENCODING 64
SWIDTH 460 0
DWIDTH 10 0
BBX 8 16 2 0
BITMAP
3C
3C
C3
C3
CF
CF
CF
CF
CF
CF
C0
C0
C0
C0
3C
3C
ENDCHAR
STARTCHAR uni0041
ENCODING 65
SWIDTH 460 0
DWIDTH 10 0
BBX 8 16 2 0
BITMAP
3C
3C
C3
C3
C3
C3
C3
C3
FF
FF
C3
C3
C3
C3
C3
C3
ENDCHAR
STARTCHAR uni0042
ENCODING 66
SWIDTH 460 0
DWIDTH 10 0
BBX 8 16 2 0
BITMAP
FC
FC
C3
C3
C3
C3
FC
FC
C3
C3
C3
C3
C3
C3
FC
FC
ENDCHAR
STARTCHAR uni0043
ENCODING 67
SWIDTH 460 0
DWIDTH 10 0
BBX 8 16 2 0
BITMAP
3C
3C
C3
C3
C0
C0
C0
C0
C0
C0
C0
C0
C3
C3
3C
3C
ENDCHAR
STARTCHAR uni0044
ENCODING 68
SWIDTH 460 0
DWIDTH 10 0
BBX 8 16 2 0
BITMAP
FC
FC
C3
C3
C3
C3
C3
C3
C3
C3
C3
C3
C3
C3
FC
FC
ENDCHAR
STARTCHAR uni0045
ENCODING 69
SWIDTH 460 0
DWIDTH 10 0
BBX 8 16 2 0
BITMAP
FF
FF
C0
C0
C0
C0
FC
FC
C0
C0
C0
C0
C0
C0
FF
FF
ENDCHAR
STARTCHAR uni0046
ENCODING 70
SWIDTH 460 0
DWIDTH 10 0
BBX 8 16 2 0
BITMAP
FF
FF
C0
C0
C0
C0
FC
FC
C0
C0
C0
C0
C0
C0
C0
C0
ENDCHAR
STARTCHAR uni0047
ENCODING 71
SWIDTH 460 0
DWIDTH 10 0
BBX 8 16 2 0
BITMAP
3C
3C
C3
C3
C0
C0
C0
C0
CF
CF
C3
C3
C3
C3
3C
3C
ENDCHAR
STARTCHAR uni0048
ENCODING 72
SWIDTH 460 0
DWIDTH 10 0
BBX 8 16 2 0
BITMAP
C3
C3
C3
C3
C3
C3
FF
FF
C3
C3
C3
C3
C3
C3
C3
C3
ENDCHAR
STARTCHAR uni0049
ENCODING 73
SWIDTH 460 0
DWIDTH 10 0
BBX 6 16 2 0
BITMAP
FC
FC
30
30
30
30
30
30
30
30
30
30
30
30
FC
FC
ENDCHAR
STARTCHAR uni004A
ENCODING 74
SWIDTH 460 0
DWIDTH 10 0
BBX 8 16 2 0
BITMAP
0F
0F
03
03
03
03
03
03
03
03
03
03
C3
C3
3C
3C
ENDCHAR
STARTCHAR uni004B
ENCODING 75
SWIDTH 460 0
DWIDTH 10 0
BBX 8 16 2 0
BITMAP
C3
C3
C3
C3
CC
CC
F0
F0
CC
CC
C3
C3
C3
C3
C3
C3
ENDCHAR
STARTCHAR uni004C
ENCODING 76
SWIDTH 460 0
DWIDTH 10 0
BBX 8 16 2 0
BITMAP
C0
C0
C0
C0
C0
C0
C0
C0
C0
C0
C0
C0
C0
C0
FF
FF
ENDCHAR
STARTCHAR uni004D
ENCODING 77
SWIDTH 460 0
DWIDTH 10 0
BBX 8 16 2 0
BITMAP
C3
C3
FF
FF
C3
C3
C3
C3
C3
C3
C3
C3
C3
C3
C3
C3
ENDCHAR
STARTCHAR uni004E
ENCODING 78
SWIDTH 460 0
DWIDTH 10 0
BBX 8 16 2 0
BITMAP
C3
C3
F3
F3
CF
CF
C3
C3
C3
C3
C3
C3
C3
C3
C3
C3
ENDCHAR
STARTCHAR uni004F
ENCODING 79
SWIDTH 460 0
DWIDTH 10 0
BBX 8 16 2 0
BITMAP
3C
3C
C3
C3
C3
C3
C3
C3
C3
C3
C3
C3
C3
C3
3C
3C
ENDCHAR
STARTCHAR uni0050
ENCODING 80
SWIDTH 460 0
DWIDTH 10 0
BBX 8 16 2 0
BITMAP
FC
FC
C3
C3
C3
C3
FC
FC
C0
C0
C0
C0
C0
C0
C0
C0
ENDCHAR
STARTCHAR uni0051
ENCODING 81
SWIDTH 460 0
DWIDTH 10 0
BBX 8 18 2 -2
BITMAP
3C
3C
C3
C3
C3
C3
C3
C3
C3
C3
C3
C3
C3
C3
3C
3C
0F
0F
ENDCHAR
STARTCHAR uni0052
ENCODING 82
SWIDTH 460 0
DWIDTH 10 0
BBX 8 16 2 0
BITMAP
FC
FC
C3
C3
C3
C3
FC
FC
CC
CC
C3
C3
C3
C3
C3
C3
ENDCHAR
STARTCHAR uni0053
ENCODING 83
SWIDTH 460 0
DWIDTH 10 0
BBX 8 16 2 0
BITMAP
3C
3C
C3
C3
C0
C0
3C
3C
03
03
03
03
C3
C3
3C
3C
ENDCHAR
STARTCHAR uni0054
ENCODING 84
SWIDTH 460 0
DWIDTH 10 0
BBX 10 16 0 0
BITMAP
FFC0
FFC0
0C00
0C00
0C00
0C00
0C00
0C00
0C00
0C00
0C00
0C00
0C00
0C00
0C00
0C00
ENDCHAR
STARTCHAR uni0055
ENCODING 85
SWIDTH 460 0
DWIDTH 10 0
BBX 8 16 2 0
BITMAP
C3
C3
C3
C3
C3
C3
C3
C3
C3
C3
C3
C3
C3
C3
3C
3C
ENDCHAR
STARTCHAR uni0056
ENCODING 86
SWIDTH 460 0
DWIDTH 10 0
BBX 8 16 2 0
BITMAP
C3
C3
C3
C3
C3
C3
C3
C3
C3
C3
C3
C3
3C
3C
3C
3C
ENDCHAR
STARTCHAR uni0057
ENCODING 87
SWIDTH 460 0
DWIDTH 10 0
BBX 8 16 2 0
BITMAP
C3
C3
C3
C3
C3
C3
C3
C3
C3
C3
C3
C3
FF
FF
C3
C3
ENDCHAR
STARTCHAR uni0058
ENCODING 88
SWIDTH 460 0
DWIDTH 10 0
BBX 8 16 2 0
BITMAP
C3
C3
C3
C3
C3
C3
3C
3C
C3
C3
C3
C3
C3
C3
C3
C3
ENDCHAR
STARTCHAR uni0059
ENCODING 89
SWIDTH 460 0
DWIDTH 10 0
BBX 8 16 2 0
BITMAP
C3
C3
C3
C3
C3
C3
C3
C3
C3
C3
3F
3F
03
03
3C
3C
ENDCHAR
STARTCHAR uni005A
ENCODING 90
SWIDTH 460 0
DWIDTH 10 0
BBX 8 16 2 0
BITMAP
FF
FF
03
03
03
03
0C
0C
30
30
C0
C0
C0
C0
FF
FF
ENDCHAR
STARTCHAR uni005B
ENCODING 91
SWIDTH 460 0
DWIDTH 10 0
BBX 6 20 2 -2
BITMAP
FC
FC
C0
C0
C0
C0
C0
C0
C0
C0
C0
C0
C0
C0
C0
C0
C0
C0
FC
FC
ENDCHAR
STARTCHAR uni005C
ENCODING 92
SWIDTH 460 0
DWIDTH 10 0
BBX 8 16 2 -2
BITMAP
C0
C0
C0
C0
30
30
30
30
0C
0C
0C
0C
03
03
03
03
ENDCHAR
STARTCHAR uni005D
ENCODING 93
SWIDTH 460 0
DWIDTH 10 0
BBX 6 20 2 -2
BITMAP
FC
FC
0C
0C
0C
0C
0C
0C
0C
0C
0C
0C
0C
0C
0C
0C
0C
0C
FC
FC
ENDCHAR
STARTCHAR uni005E
ENCODING 94
SWIDTH 460 0
DWIDTH 10 0
BBX 6 4 2 10
BITMAP
30
30
CC
CC
ENDCHAR
STARTCHAR uni005F
ENCODING 95
SWIDTH 460 0
DWIDTH 10 0
BBX 6 2 2 -2
BITMAP
FC
FC
ENDCHAR
STARTCHAR uni0060
ENCODING 96
SWIDTH 460 0
DWIDTH 10 0
BBX 4 4 4 12
BITMAP
C0
C0
30
30
ENDCHAR
STARTCHAR uni0061
ENCODING 97
SWIDTH 460 0
DWIDTH 10 0
BBX 8 12 2 0
BITMAP
3C
3C
03
03
3F
3F
C3
C3
C3
C3
3F
3F
ENDCHAR
STARTCHAR uni0062
ENCODING 98
SWIDTH 460 0
DWIDTH 10 0
BBX 8 16 2 0
BITMAP
C0
C0
C0
C0
FC
FC
C3
C3
C3
C3
C3
C3
C3
C3
FC
FC
ENDCHAR
STARTCHAR uni0063
ENCODING 99
SWIDTH 460 0
DWIDTH 10 0
BBX 8 12 2 0
BITMAP
3C
3C
C3
C3
C0
C0
C0
C0
C0
C0
3F
3F
ENDCHAR
STARTCHAR uni0064
ENCODING 100
SWIDTH 460 0
DWIDTH 10 0
BBX 8 16 2 0
BITMAP
03
03
03
03
3F
3F
C3
C3
C3
C3
C3
C3
C3
C3
3F
3F
ENDCHAR
STARTCHAR uni0065
ENCODING 101
SWIDTH 460 0
DWIDTH 10 0
BBX 8 12 2 0
BITMAP
3C
3C
C3
C3
C3
C3
FF
FF
C0
C0
3F
3F
ENDCHAR
STARTCHAR uni0066
ENCODING 102
SWIDTH 460 0
DWIDTH 10 0
BBX 8 16 2 0
BITMAP
0F
0F
30
30
FC
FC
30
30
30
30
30
30
30
30
30
30
ENDCHAR
STARTCHAR uni0067
ENCODING 103
SWIDTH 460 0
DWIDTH 10 0
BBX 8 16 2 -4
BITMAP
3F
3F
C3
C3
C3
C3
C3
C3
C3
C3
3F
3F
03
03
3C
3C
ENDCHAR
STARTCHAR uni0068
ENCODING 104
SWIDTH 460 0
DWIDTH 10 0
BBX 8 16 2 0
BITMAP
C0
C0
C0
C0
FC
FC
C3
C3
C3
C3
C3
C3
C3
C3
C3
C3
ENDCHAR
STARTCHAR uni0069
ENCODING 105
SWIDTH 460 0
DWIDTH 10 0
BBX 6 16 4 0
BITMAP
30
30
00
00
F0
F0
30
30
30
30
30
30
30
30
FC
FC
ENDCHAR
STARTCHAR uni006A
ENCODING 106
SWIDTH 460 0
DWIDTH 10 0
BBX 6 20 2 -4
BITMAP
0C
0C
00
00
3C
3C
0C
0C
0C
0C
0C
0C
0C
0C
0C
0C
0C
0C
F0
F0
ENDCHAR
STARTCHAR uni006B
ENCODING 107
SWIDTH 460 0
DWIDTH 10 0
BBX 8 16 2 0
BITMAP
C0
C0
C0
C0
C3
C3
CC
CC
F0
F0
CC
CC
C3
C3
C3
C3
ENDCHAR
STARTCHAR uni006C
ENCODING 108
SWIDTH 460 0
DWIDTH 10 0
BBX 8 16 2 0
BITMAP
F0
F0
30
30
30
30
30
30
30
30
30
30
30
30
0F
0F
ENDCHAR
STARTCHAR uni006D
ENCODING 109
SWIDTH 460 0
DWIDTH 10 0
BBX 8 12 2 0
BITMAP
C3
C3
FF
FF
C3
C3
C3
C3
C3
C3
C3
C3
ENDCHAR
STARTCHAR uni006E
ENCODING 110
SWIDTH 460 0
DWIDTH 10 0
BBX 8 12 2 0
BITMAP
FC
FC
C3
C3
C3
C3
C3
C3
C3
C3
C3
C3
ENDCHAR
STARTCHAR uni006F
ENCODING 111
SWIDTH 460 0
DWIDTH 10 0
BBX 8 12 2 0
BITMAP
3C
3C
C3
C3
C3
C3
C3
C3
C3
C3
3C
3C
ENDCHAR
STARTCHAR uni0070
ENCODING 112
SWIDTH 460 0
DWIDTH 10 0
BBX 8 16 2 -4
BITMAP
FC
FC
C3
C3
C3
C3
C3
C3
C3
C3
FC
FC
C0
C0
C0
C0
ENDCHAR
STARTCHAR uni0071
ENCODING 113
SWIDTH 460 0
DWIDTH 10 0
BBX 8 16 2 -4
BITMAP
3F
3F
C3
C3
C3
C3
C3
C3
C3
C3
3F
3F
03
03
03
03
ENDCHAR
STARTCHAR uni0072
ENCODING 114
SWIDTH 460 0
DWIDTH 10 0
BBX 8 12 2 0
BITMAP
FC
FC
C3
C3
C0
C0
C0
C0
C0
C0
C0
C0
ENDCHAR
STARTCHAR uni0073
ENCODING 115
SWIDTH 460 0
DWIDTH 10 0
BBX 8 12 2 0
BITMAP
3C
3C
C0
C0
3C
3C
03
03
03
03
FC
FC
ENDCHAR
STARTCHAR uni0074
ENCODING 116
SWIDTH 460 0
DWIDTH 10 0
BBX 8 16 2 0
BITMAP
30
30
30
30
FF
FF
30
30
30
30
30
30
30
30
0F
0F
ENDCHAR
STARTCHAR uni0075
ENCODING 117
SWIDTH 460 0
DWIDTH 10 0
BBX 8 12 2 0
BITMAP
C3
C3
C3
C3
C3
C3
C3
C3
C3
C3
3C
3C
ENDCHAR
STARTCHAR uni0076
ENCODING 118
SWIDTH 460 0
DWIDTH 10 0
BBX 8 12 2 0
BITMAP
C3
C3
C3
C3
C3
C3
C3
C3
3C
3C
3C
3C
ENDCHAR
STARTCHAR uni0077
ENCODING 119
SWIDTH 460 0
DWIDTH 10 0
BBX 8 12 2 0
BITMAP
C3
C3
C3
C3
C3
C3
C3
C3
FF
FF
C3
C3
ENDCHAR
STARTCHAR uni0078
ENCODING 120
SWIDTH 460 0
DWIDTH 10 0
BBX 8 12 2 0
BITMAP
C3
C3
C3
C3
3C
3C
C3
C3
C3
C3
C3
C3
ENDCHAR
STARTCHAR uni0079
ENCODING 121
SWIDTH 460 0
DWIDTH 10 0
BBX 8 16 2 -4
BITMAP
C3
C3
C3
C3
C3
C3
C3
C3
C3
C3
3F
3F
03
03
FC
FC
ENDCHAR
STARTCHAR uni007A
ENCODING 122
SWIDTH 460 0
DWIDTH 10 0
BBX 8 12 2 0
BITMAP
FF
FF
03
03
0C
0C
30
30
C0
C0
FF
FF
ENDCHAR
STARTCHAR uni007B
ENCODING 123
SWIDTH 460 0
DWIDTH 10 0
BBX 6 20 2 -2
BITMAP
0C
0C
30
30
30
30
30
30
30
30
C0
C0
30
30
30
30
30
30
0C
0C
ENDCHAR
STARTCHAR uni007C
ENCODING 124
SWIDTH 460 0
DWIDTH 10 0
BBX 2 20 4 -2
BITMAP
C0
C0
C0
C0
C0
C0
C0
C0
C0
C0
C0
C0
C0
C0
C0
C0
C0
C0
C0
C0
ENDCHAR
STARTCHAR uni007D
ENCODING 125
SWIDTH 460 0
DWIDTH 10 0
BBX 6 20 4 -2
BITMAP
C0
C0
30
30
30
30
30
30
30
30
0C
0C
30
30
30
30
30
30
C0
C0
ENDCHAR
STARTCHAR uni007E
ENCODING 126
SWIDTH 460 0
DWIDTH 10 0
BBX 8 4 2 6
BITMAP
33
33
CC
CC
ENDCHAR
STARTCHAR char149
ENCODING 149
SWIDTH 460 0
DWIDTH 10 0
BBX 8 8 2 0
BITMAP
3C
3C
FF
FF
FF
FF
3C
3C
ENDCHAR
STARTCHAR char161
ENCODING 161
SWIDTH 460 0
DWIDTH 10 0
BBX 2 14 4 0
BITMAP
C0
C0
00
00
C0
C0
C0
C0
C0
C0
C0
C0
C0
C0
ENDCHAR
STARTCHAR char162
ENCODING 162
SWIDTH 460 0
DWIDTH 10 0
BBX 8 14 0 -2
BITMAP
03
03
3F
3F
CC
CC
CC
CC
CC
CC
3F
3F
30
30
ENDCHAR
STARTCHAR char163
ENCODING 163
SWIDTH 460 0
DWIDTH 10 0
BBX 10 14 0 0
BITMAP
0F00
0F00
3000
3000
3000
3000
FC00
FC00
3000
3000
30C0
30C0
FF00
FF00
ENDCHAR
STARTCHAR char164
ENCODING 164
SWIDTH 460 0
DWIDTH 10 0
BBX 10 12 0 0
BITMAP
C0C0
C0C0
3F00
3F00
3300
3300
3300
3300
3F00
3F00
C0C0
C0C0
ENDCHAR
STARTCHAR char165
ENCODING 165
SWIDTH 460 0
DWIDTH 10 0
BBX 10 14 0 0
BITMAP
C0C0
C0C0
3300
3300
0C00
0C00
3F00
3F00
0C00
0C00
3F00
3F00
0C00
0C00
ENDCHAR
STARTCHAR char166
ENCODING 166
SWIDTH 460 0
DWIDTH 10 0
BBX 2 18 4 -2
BITMAP
C0
C0
C0
C0
C0
C0
C0
C0
00
00
C0
C0
C0
C0
C0
C0
C0
C0
ENDCHAR
STARTCHAR char167
ENCODING 167
SWIDTH 460 0
DWIDTH 10 0
BBX 6 18 2 -2
BITMAP
3C
3C
C0
C0
30
30
FC
FC
CC
CC
FC
FC
30
30
0C
0C
F0
F0
ENDCHAR
STARTCHAR char168
ENCODING 168
SWIDTH 460 0
DWIDTH 10 0
BBX 6 2 2 10
BITMAP
FC
FC
ENDCHAR
STARTCHAR char169
ENCODING 169
SWIDTH 460 0
DWIDTH 10 0
BBX 12 14 0 0
BITMAP
0FC0
0FC0
3030
3030
CFC0
CFC0
CC00
CC00
CFC0
CFC0
3030
3030
0FC0
0FC0
ENDCHAR
STARTCHAR char170
ENCODING 170
SWIDTH 460 0
DWIDTH 10 0
BBX 6 12 4 4
BITMAP
FC
FC
0C
0C
FC
FC
FC
FC
00
00
FC
FC
ENDCHAR
STARTCHAR char171
ENCODING 171
SWIDTH 460 0
DWIDTH 10 0
BBX 8 6 2 4
BITMAP
33
33
CC
CC
33
33
ENDCHAR
STARTCHAR char172
ENCODING 172
SWIDTH 460 0
DWIDTH 10 0
BBX 10 6 0 2
BITMAP
FFC0
FFC0
00C0
00C0
00C0
00C0
ENDCHAR
STARTCHAR char174
ENCODING 174
SWIDTH 460 0
DWIDTH 10 0
BBX 14 14 0 0
BITMAP
0FC0
0FC0
3030
3030
CFCC
CFCC
CF0C
CF0C
CCCC
CCCC
3030
3030
0FC0
0FC0
ENDCHAR
STARTCHAR char175
ENCODING 175
SWIDTH 460 0
DWIDTH 10 0
BBX 6 2 2 12
BITMAP
FC
FC
ENDCHAR
STARTCHAR char176
ENCODING 176
SWIDTH 460 0
DWIDTH 10 0
BBX 6 6 2 8
BITMAP
30
30
CC
CC
30
30
ENDCHAR
STARTCHAR char177
ENCODING 177
SWIDTH 460 0
DWIDTH 10 0
BBX 6 10 2 0
BITMAP
30
30
FC
FC
30
30
00
00
FC
FC
ENDCHAR
STARTCHAR char178
ENCODING 178
SWIDTH 460 0
DWIDTH 10 0
BBX 6 8 2 6
BITMAP
F0
F0
0C
0C
30
30
FC
FC
ENDCHAR
STARTCHAR char179
ENCODING 179
SWIDTH 460 0
DWIDTH 10 0
BBX 6 8 2 6
BITMAP
FC
FC
30
30
0C
0C
F0
F0
ENDCHAR
STARTCHAR char180
ENCODING 180
SWIDTH 460 0
DWIDTH 10 0
BBX 4 4 2 12
BITMAP
30
30
C0
C0
ENDCHAR
STARTCHAR char181
ENCODING 181
SWIDTH 460 0
DWIDTH 10 0
BBX 8 12 2 -2
BITMAP
C3
C3
C3
C3
C3
C3
C3
C3
FC
FC
C0
C0
ENDCHAR
STARTCHAR char182
ENCODING 182
SWIDTH 460 0
DWIDTH 10 0
BBX 10 12 0 0
BITMAP
3FC0
3FC0
CCC0
CCC0
CCC0
CCC0
3CC0
3CC0
0CC0
0CC0
0CC0
0CC0
ENDCHAR
STARTCHAR char183
ENCODING 183
SWIDTH 460 0
DWIDTH 10 0
BBX 4 4 4 4
BITMAP
F0
F0
F0
F0
ENDCHAR
STARTCHAR char184
ENCODING 184
SWIDTH 460 0
DWIDTH 10 0
BBX 6 6 2 2
BITMAP
30
30
0C
0C
FC
FC
ENDCHAR
STARTCHAR char185
ENCODING 185
SWIDTH 460 0
DWIDTH 10 0
BBX 4 8 2 6
BITMAP
30
30
F0
F0
30
30
30
30
ENDCHAR
STARTCHAR char186
ENCODING 186
SWIDTH 460 0
DWIDTH 10 0
BBX 8 8 0 8
BITMAP
3C
3C
C3
C3
C3
C3
3C
3C
ENDCHAR
STARTCHAR char187
ENCODING 187
SWIDTH 460 0
DWIDTH 10 0
BBX 8 6 2 4
BITMAP
CC
CC
33
33
CC
CC
ENDCHAR
STARTCHAR char188
ENCODING 188
SWIDTH 460 0
DWIDTH 10 0
BBX 10 16 2 0
BITMAP
3000
3000
F000
F000
3000
3000
3300
3300
0F00
0F00
3300
3300
3FC0
3FC0
0300
0300
ENDCHAR
STARTCHAR char189
ENCODING 189
SWIDTH 460 0
DWIDTH 10 0
BBX 10 14 2 2
BITMAP
3000
3000
F000
F000
3000
3000
3F00
3F00
00C0
00C0
0300
0300
0FC0
0FC0
ENDCHAR
STARTCHAR char190
ENCODING 190
SWIDTH 460 0
DWIDTH 10 0
BBX 12 16 0 0
BITMAP
F000
F000
0C00
0C00
3000
3000
0CC0
0CC0
F3C0
F3C0
0CC0
0CC0
0FF0
0FF0
00C0
00C0
ENDCHAR
STARTCHAR char191
ENCODING 191
SWIDTH 460 0
DWIDTH 10 0
BBX 6 12 4 0
BITMAP
30
30
00
00
30
30
C0
C0
CC
CC
FC
FC
ENDCHAR
STARTCHAR char192
ENCODING 192
SWIDTH 460 0
DWIDTH 10 0
BBX 8 18 2 0
BITMAP
30
30
0C
0C
3C
3C
C3
C3
C3
C3
FF
FF
C3
C3
C3
C3
C3
C3
ENDCHAR
STARTCHAR char193
ENCODING 193
SWIDTH 460 0
DWIDTH 10 0
BBX 8 18 2 0
BITMAP
0C
0C
30
30
3C
3C
C3
C3
C3
C3
FF
FF
C3
C3
C3
C3
C3
C3
ENDCHAR
STARTCHAR char194
ENCODING 194
SWIDTH 460 0
DWIDTH 10 0
BBX 8 20 2 0
BITMAP
0C
0C
33
33
00
00
3C
3C
C3
C3
C3
C3
FF
FF
C3
C3
C3
C3
C3
C3
ENDCHAR
STARTCHAR char195
ENCODING 195
SWIDTH 460 0
DWIDTH 10 0
BBX 8 18 2 0
BITMAP
33
33
CC
CC
3C
3C
C3
C3
C3
C3
FF
FF
C3
C3
C3
C3
C3
C3
ENDCHAR
STARTCHAR char196
ENCODING 196
SWIDTH 460 0
DWIDTH 10 0
BBX 8 18 2 0
BITMAP
C3
C3
00
00
3C
3C
C3
C3
C3
C3
FF
FF
C3
C3
C3
C3
C3
C3
ENDCHAR
STARTCHAR char197
ENCODING 197
SWIDTH 460 0
DWIDTH 10 0
BBX 8 18 2 0
BITMAP
3C
3C
C3
C3
3C
3C
C3
C3
C3
C3
FF
FF
C3
C3
C3
C3
C3
C3
ENDCHAR
STARTCHAR char198
ENCODING 198
SWIDTH 460 0
DWIDTH 10 0
BBX 12 14 0 0
BITMAP
3FF0
3FF0
C300
C300
C300
C300
FFC0
FFC0
C300
C300
C300
C300
C3F0
C3F0
ENDCHAR
STARTCHAR char199
ENCODING 199
SWIDTH 460 0
DWIDTH 10 0
BBX 8 18 0 -4
BITMAP
3C
3C
C3
C3
C0
C0
C0
C0
C0
C0
C3
C3
3C
3C
0C
0C
30
30
ENDCHAR
STARTCHAR char200
ENCODING 200
SWIDTH 460 0
DWIDTH 10 0
BBX 8 18 2 0
BITMAP
30
30
0C
0C
FF
FF
C0
C0
C0
C0
FC
FC
C0
C0
C0
C0
FF
FF
ENDCHAR
STARTCHAR char201
ENCODING 201
SWIDTH 460 0
DWIDTH 10 0
BBX 8 18 2 0
BITMAP
0C
0C
30
30
FF
FF
C0
C0
C0
C0
FC
FC
C0
C0
C0
C0
FF
FF
ENDCHAR
STARTCHAR char202
ENCODING 202
SWIDTH 460 0
DWIDTH 10 0
BBX 8 18 2 0
BITMAP
30
30
CC
CC
FF
FF
C0
C0
C0
C0
FC
FC
C0
C0
C0
C0
FF
FF
ENDCHAR
STARTCHAR char203
ENCODING 203
SWIDTH 460 0
DWIDTH 10 0
BBX 8 18 2 0
BITMAP
CC
CC
00
00
FF
FF
C0
C0
C0
C0
FC
FC
C0
C0
C0
C0
FF
FF
ENDCHAR
STARTCHAR char204
ENCODING 204
SWIDTH 460 0
DWIDTH 10 0
BBX 6 20 2 0
BITMAP
C0
C0
30
30
00
00
FC
FC
30
30
30
30
30
30
30
30
30
30
FC
FC
ENDCHAR
STARTCHAR char205
ENCODING 205
SWIDTH 460 0
DWIDTH 10 0
BBX 6 20 2 0
BITMAP
0C
0C
30
30
00
00
FC
FC
30
30
30
30
30
30
30
30
30
30
FC
FC
ENDCHAR
STARTCHAR char206
ENCODING 206
SWIDTH 460 0
DWIDTH 10 0
BBX 6 20 2 0
BITMAP
30
30
CC
CC
00
00
FC
FC
30
30
30
30
30
30
30
30
30
30
FC
FC
ENDCHAR
STARTCHAR char207
ENCODING 207
SWIDTH 460 0
DWIDTH 10 0
BBX 6 18 2 0
BITMAP
CC
CC
00
00
FC
FC
30
30
30
30
30
30
30
30
30
30
FC
FC
ENDCHAR
STARTCHAR char208
ENCODING 208
SWIDTH 460 0
DWIDTH 10 0
BBX 10 14 0 0
BITMAP
3F00
3F00
30C0
30C0
30C0
30C0
FCC0
FCC0
30C0
30C0
30C0
30C0
3F00
3F00
ENDCHAR
STARTCHAR char209
ENCODING 209
SWIDTH 460 0
DWIDTH 10 0
BBX 8 16 2 0
BITMAP
33
33
CC
CC
00
00
FC
FC
C3
C3
C3
C3
C3
C3
C3
C3
ENDCHAR
STARTCHAR char210
ENCODING 210
SWIDTH 460 0
DWIDTH 10 0
BBX 8 16 2 0
BITMAP
C0
C0
30
30
00
00
3C
3C
C3
C3
C3
C3
C3
C3
3C
3C
ENDCHAR
STARTCHAR char211
ENCODING 211
SWIDTH 460 0
DWIDTH 10 0
BBX 8 16 2 0
BITMAP
0C
0C
30
30
00
00
3C
3C
C3
C3
C3
C3
C3
C3
3C
3C
ENDCHAR
STARTCHAR char212
ENCODING 212
SWIDTH 460 0
DWIDTH 10 0
BBX 8 16 2 0
BITMAP
30
30
CC
CC
00
00
3C
3C
C3
C3
C3
C3
C3
C3
3C
3C
ENDCHAR
STARTCHAR char213
ENCODING 213
SWIDTH 460 0
DWIDTH 10 0
BBX 8 16 2 0
BITMAP
33
33
CC
CC
00
00
3C
3C
C3
C3
C3
C3
C3
C3
3C
3C
ENDCHAR
STARTCHAR char214
ENCODING 214
SWIDTH 460 0
DWIDTH 10 0
BBX 8 14 2 0
BITMAP
C3
C3
00
00
3C
3C
C3
C3
C3
C3
C3
C3
3C
3C
ENDCHAR
STARTCHAR char215
ENCODING 215
SWIDTH 460 0
DWIDTH 10 0
BBX 6 6 2 4
BITMAP
CC
CC
30
30
CC
CC
ENDCHAR
STARTCHAR char216
ENCODING 216
SWIDTH 460 0
DWIDTH 10 0
BBX 8 16 2 -2
BITMAP
03
03
3C
3C
CF
CF
CF
CF
F3
F3
F3
F3
3C
3C
C0
C0
ENDCHAR
STARTCHAR char217
ENCODING 217
SWIDTH 460 0
DWIDTH 10 0
BBX 8 18 2 0
BITMAP
C0
C0
30
30
C3
C3
C3
C3
C3
C3
C3
C3
C3
C3
C3
C3
3C
3C
ENDCHAR
STARTCHAR char218
ENCODING 218
SWIDTH 460 0
DWIDTH 10 0
BBX 8 18 2 0
BITMAP
03
03
0C
0C
C3
C3
C3
C3
C3
C3
C3
C3
C3
C3
C3
C3
3C
3C
ENDCHAR
STARTCHAR char219
ENCODING 219
SWIDTH 460 0
DWIDTH 10 0
BBX 8 20 2 0
BITMAP
0C
0C
33
33
00
00
C3
C3
C3
C3
C3
C3
C3
C3
C3
C3
C3
C3
3C
3C
ENDCHAR
STARTCHAR char220
ENCODING 220
SWIDTH 460 0
DWIDTH 10 0
BBX 8 18 2 0
BITMAP
33
33
00
00
C3
C3
C3
C3
C3
C3
C3
C3
C3
C3
C3
C3
3C
3C
ENDCHAR
STARTCHAR char221
ENCODING 221
SWIDTH 460 0
DWIDTH 10 0
BBX 10 18 0 0
BITMAP
0300
0300
0C00
0C00
C0C0
C0C0
3300
3300
0C00
0C00
0C00
0C00
0C00
0C00
0C00
0C00
0C00
0C00
ENDCHAR
STARTCHAR char222
ENCODING 222
SWIDTH 460 0
DWIDTH 10 0
BBX 8 14 2 -2
BITMAP
C0
C0
C0
C0
FC
FC
C3
C3
C3
C3
FC
FC
C0
C0
ENDCHAR
STARTCHAR char223
ENCODING 223
SWIDTH 460 0
DWIDTH 10 0
BBX 8 16 2 -2
BITMAP
3C
3C
C3
C3
CC
CC
C3
C3
C3
C3
CC
CC
C0
C0
C0
C0
ENDCHAR
STARTCHAR char224
ENCODING 224
SWIDTH 460 0
DWIDTH 10 0
BBX 8 16 2 0
BITMAP
30
30
0C
0C
00
00
3C
3C
03
03
3F
3F
C3
C3
3F
3F
ENDCHAR
STARTCHAR char225
ENCODING 225
SWIDTH 460 0
DWIDTH 10 0
BBX 8 16 2 0
BITMAP
03
03
0C
0C
00
00
3C
3C
03
03
3F
3F
C3
C3
3F
3F
ENDCHAR
STARTCHAR char226
ENCODING 226
SWIDTH 460 0
DWIDTH 10 0
BBX 8 16 2 0
BITMAP
0C
0C
33
33
00
00
3C
3C
03
03
3F
3F
C3
C3
3F
3F
ENDCHAR
STARTCHAR char227
ENCODING 227
SWIDTH 460 0
DWIDTH 10 0
BBX 8 16 2 0
BITMAP
33
33
CC
CC
00
00
3C
3C
03
03
FF
FF
C3
C3
3F
3F
ENDCHAR
STARTCHAR char228
ENCODING 228
SWIDTH 460 0
DWIDTH 10 0
BBX 8 14 2 0
BITMAP
33
33
00
00
3C
3C
03
03
3F
3F
C3
C3
3F
3F
ENDCHAR
STARTCHAR char229
ENCODING 229
SWIDTH 460 0
DWIDTH 10 0
BBX 8 14 2 0
BITMAP
0C
0C
00
00
3C
3C
03
03
3F
3F
C3
C3
3F
3F
ENDCHAR
STARTCHAR char230
ENCODING 230
SWIDTH 460 0
DWIDTH 10 0
BBX 10 10 2 0
BITMAP
F300
F300
0CC0
0CC0
3FC0
3FC0
CC00
CC00
33C0
33C0
ENDCHAR
STARTCHAR char231
ENCODING 231
SWIDTH 460 0
DWIDTH 10 0
BBX 8 14 2 -4
BITMAP
3C
3C
C3
C3
C0
C0
C0
C0
3F
3F
0C
0C
30
30
ENDCHAR
STARTCHAR char232
ENCODING 232
SWIDTH 460 0
DWIDTH 10 0
BBX 8 16 2 0
BITMAP
C0
C0
30
30
00
00
3C
3C
C3
C3
FF
FF
C0
C0
3F
3F
ENDCHAR
STARTCHAR char233
ENCODING 233
SWIDTH 460 0
DWIDTH 10 0
BBX 8 16 2 0
BITMAP
0C
0C
30
30
00
00
3C
3C
C3
C3
FF
FF
C0
C0
3F
3F
ENDCHAR
STARTCHAR char234
ENCODING 234
SWIDTH 460 0
DWIDTH 10 0
BBX 8 16 2 0
BITMAP
30
30
CC
CC
00
00
3C
3C
C3
C3
FF
FF
C0
C0
3F
3F
ENDCHAR
STARTCHAR char235
ENCODING 235
SWIDTH 460 0
DWIDTH 10 0
BBX 8 14 2 0
BITMAP
CC
CC
00
00
3C
3C
C3
C3
FF
FF
C0
C0
3F
3F
ENDCHAR
STARTCHAR char236
ENCODING 236
SWIDTH 460 0
DWIDTH 10 0
BBX 4 16 4 0
BITMAP
C0
C0
30
30
00
00
F0
F0
30
30
30
30
30
30
30
30
ENDCHAR
STARTCHAR char237
ENCODING 237
SWIDTH 460 0
DWIDTH 10 0
BBX 6 16 4 0
BITMAP
0C
0C
30
30
00
00
F0
F0
30
30
30
30
30
30
30
30
ENDCHAR
STARTCHAR char238
ENCODING 238
SWIDTH 460 0
DWIDTH 10 0
BBX 6 16 4 0
BITMAP
30
30
CC
CC
00
00
F0
F0
30
30
30
30
30
30
30
30
ENDCHAR
STARTCHAR char239
ENCODING 239
SWIDTH 460 0
DWIDTH 10 0
BBX 6 14 4 0
BITMAP
CC
CC
00
00
F0
F0
30
30
30
30
30
30
30
30
ENDCHAR
STARTCHAR char240
ENCODING 240
SWIDTH 460 0
DWIDTH 10 0
BBX 8 16 2 0
BITMAP
CC
CC
3C
3C
C3
C3
3F
3F
C3
C3
C3
C3
C3
C3
3C
3C
ENDCHAR
STARTCHAR char241
ENCODING 241
SWIDTH 460 0
DWIDTH 10 0
BBX 8 16 2 0
BITMAP
33
33
CC
CC
00
00
FC
FC
C3
C3
C3
C3
C3
C3
C3
C3
ENDCHAR
STARTCHAR char242
ENCODING 242
SWIDTH 460 0
DWIDTH 10 0
BBX 8 16 2 0
BITMAP
C0
C0
30
30
00
00
3C
3C
C3
C3
C3
C3
C3
C3
3C
3C
ENDCHAR
STARTCHAR char243
ENCODING 243
SWIDTH 460 0
DWIDTH 10 0
BBX 8 16 2 0
BITMAP
03
03
0C
0C
00
00
3C
3C
C3
C3
C3
C3
C3
C3
3C
3C
ENDCHAR
STARTCHAR char244
ENCODING 244
SWIDTH 460 0
DWIDTH 10 0
BBX 8 16 2 0
BITMAP
30
30
CC
CC
00
00
3C
3C
C3
C3
C3
C3
C3
C3
3C
3C
ENDCHAR
STARTCHAR char245
ENCODING 245
SWIDTH 460 0
DWIDTH 10 0
BBX 8 16 2 0
BITMAP
33
33
CC
CC
00
00
3C
3C
C3
C3
C3
C3
C3
C3
3C
3C
ENDCHAR
STARTCHAR char246
ENCODING 246
SWIDTH 460 0
DWIDTH 10 0
BBX 8 14 2 0
BITMAP
C3
C3
00
00
3C
3C
C3
C3
C3
C3
C3
C3
3C
3C
ENDCHAR
STARTCHAR char247
ENCODING 247
SWIDTH 460 0
DWIDTH 10 0
BBX 10 10 0 2
BITMAP
0C00
0C00
0000
0000
FFC0
FFC0
0000
0000
0C00
0C00
ENDCHAR
STARTCHAR char248
ENCODING 248
SWIDTH 460 0
DWIDTH 10 0
BBX 8 14 2 -2
BITMAP
03
03
3C
3C
CF
CF
C3
C3
F3
F3
3C
3C
C0
C0
ENDCHAR
STARTCHAR char249
ENCODING 249
SWIDTH 460 0
DWIDTH 10 0
BBX 8 16 2 0
BITMAP
C0
C0
30
30
00
00
C3
C3
C3
C3
C3
C3
C3
C3
3F
3F
ENDCHAR
STARTCHAR char250
ENCODING 250
SWIDTH 460 0
DWIDTH 10 0
BBX 8 16 2 0
BITMAP
0C
0C
30
30
00
00
C3
C3
C3
C3
C3
C3
C3
C3
3F
3F
ENDCHAR
STARTCHAR char251
ENCODING 251
SWIDTH 460 0
DWIDTH 10 0
BBX 8 16 2 0
BITMAP
30
30
CC
CC
00
00
C3
C3
C3
C3
C3
C3
C3
C3
3F
3F
ENDCHAR
STARTCHAR char252
ENCODING 252
SWIDTH 460 0
DWIDTH 10 0
BBX 8 14 2 0
BITMAP
CC
CC
00
00
C3
C3
C3
C3
C3
C3
C3
C3
3F
3F
ENDCHAR
STARTCHAR char253
ENCODING 253
SWIDTH 460 0
DWIDTH 10 0
BBX 8 20 2 -4
BITMAP
0C
0C
30
30
00
00
C3
C3
C3
C3
C3
C3
C3
C3
3F
3F
03
03
3C
3C
ENDCHAR
STARTCHAR char254
ENCODING 254
SWIDTH 460 0
DWIDTH 10 0
BBX 8 18 2 -4
BITMAP
C0
C0
C0
C0
FC
FC
C3
C3
C3
C3
C3
C3
FC
FC
C0
C0
C0
C0
ENDCHAR
STARTCHAR char255
ENCODING 255
SWIDTH 460 0
DWIDTH 10 0
BBX 8 18 2 -4
BITMAP
33
33
00
00
C3
C3
C3
C3
C3
C3
C3
C3
3F
3F
03
03
3C
3C
ENDCHAR
STARTCHAR $5240
ENCODING 256
SWIDTH 460 0
DWIDTH 10 0
BBX 8 18 2 0
BITMAP
FF
FF
00
00
3C
3C
C3
C3
C3
C3
FF
FF
C3
C3
C3
C3
C3
C3
ENDCHAR
STARTCHAR uni0061
ENCODING 257
SWIDTH 460 0
DWIDTH 10 0
BBX 8 14 2 0
BITMAP
FF
FF
00
00
3C
3C
03
03
3F
3F
C3
C3
3F
3F
ENDCHAR
STARTCHAR uni0041
ENCODING 258
SWIDTH 460 0
DWIDTH 10 0
BBX 8 18 2 0
BITMAP
C3
C3
3C
3C
00
00
3C
3C
C3
C3
C3
C3
FF
FF
C3
C3
C3
C3
ENDCHAR
STARTCHAR uni0061
ENCODING 259
SWIDTH 460 0
DWIDTH 10 0
BBX 8 16 2 0
BITMAP
C3
C3
3C
3C
00
00
3C
3C
03
03
3F
3F
C3
C3
3F
3F
ENDCHAR
STARTCHAR uni0041
ENCODING 260
SWIDTH 460 0
DWIDTH 10 0
BBX 10 16 2 -2
BITMAP
3C00
3C00
C300
C300
C300
C300
FF00
FF00
C300
C300
C300
C300
C300
C300
00C0
00C0
ENDCHAR
STARTCHAR uni0061
ENCODING 261
SWIDTH 460 0
DWIDTH 10 0
BBX 10 12 2 -2
BITMAP
3C00
3C00
0300
0300
3F00
3F00
C300
C300
3F00
3F00
00C0
00C0
ENDCHAR
STARTCHAR uni0043
ENCODING 262
SWIDTH 460 0
DWIDTH 10 0
BBX 8 20 2 0
BITMAP
0C
0C
30
30
00
00
3C
3C
C3
C3
C0
C0
C0
C0
C0
C0
C3
C3
3C
3C
ENDCHAR
STARTCHAR uni0063
ENCODING 263
SWIDTH 460 0
DWIDTH 10 0
BBX 8 16 2 0
BITMAP
0C
0C
30
30
00
00
3C
3C
C3
C3
C0
C0
C0
C0
3F
3F
ENDCHAR
STARTCHAR uni0043
ENCODING 264
SWIDTH 460 0
DWIDTH 10 0
BBX 8 20 2 -2
BITMAP
0C
0C
33
33
00
00
3C
3C
C3
C3
C0
C0
C0
C0
C0
C0
C3
C3
3C
3C
ENDCHAR
STARTCHAR uni0063
ENCODING 265
SWIDTH 460 0
DWIDTH 10 0
BBX 8 16 2 0
BITMAP
0C
0C
33
33
00
00
3C
3C
C3
C3
C0
C0
C0
C0
3F
3F
ENDCHAR
STARTCHAR uni0043
ENCODING 266
SWIDTH 460 0
DWIDTH 10 0
BBX 8 18 2 0
BITMAP
0C
0C
00
00
3C
3C
C3
C3
C0
C0
C0
C0
C0
C0
C3
C3
3C
3C
ENDCHAR
STARTCHAR uni0063
ENCODING 267
SWIDTH 460 0
DWIDTH 10 0
BBX 8 14 2 0
BITMAP
0C
0C
00
00
3C
3C
C3
C3
C0
C0
C0
C0
3F
3F
ENDCHAR
STARTCHAR uni0043
ENCODING 268
SWIDTH 460 0
DWIDTH 10 0
BBX 8 20 2 0
BITMAP
33
33
0C
0C
00
00
3C
3C
C3
C3
C0
C0
C0
C0
C0
C0
C3
C3
3C
3C
ENDCHAR
STARTCHAR uni0063
ENCODING 269
SWIDTH 460 0
DWIDTH 10 0
BBX 8 16 2 0
BITMAP
33
33
0C
0C
00
00
3C
3C
C3
C3
C0
C0
C0
C0
3F
3F
ENDCHAR
STARTCHAR uni0044
ENCODING 270
SWIDTH 460 0
DWIDTH 10 0
BBX 8 20 2 0
BITMAP
CC
CC
30
30
00
00
FC
FC
C3
C3
C3
C3
C3
C3
C3
C3
C3
C3
FC
FC
ENDCHAR
STARTCHAR uni0064
ENCODING 271
SWIDTH 460 0
DWIDTH 10 0
BBX 12 16 2 0
BITMAP
0030
0030
0330
0330
03C0
03C0
3F00
3F00
C300
C300
C300
C300
C300
C300
3F00
3F00
ENDCHAR
STARTCHAR uni0044
ENCODING 272
SWIDTH 460 0
DWIDTH 10 0
BBX 10 14 0 0
BITMAP
3F00
3F00
30C0
30C0
30C0
30C0
FCC0
FCC0
30C0
30C0
30C0
30C0
3F00
3F00
ENDCHAR
STARTCHAR uni0064
ENCODING 273
SWIDTH 460 0
DWIDTH 10 0
BBX 10 14 2 0
BITMAP
0FC0
0FC0
0300
0300
3F00
3F00
C300
C300
C300
C300
C300
C300
3F00
3F00
ENDCHAR
STARTCHAR uni0045
ENCODING 274
SWIDTH 460 0
DWIDTH 10 0
BBX 8 18 2 0
BITMAP
3C
3C
00
00
FF
FF
C0
C0
C0
C0
FC
FC
C0
C0
C0
C0
FF
FF
ENDCHAR
STARTCHAR uni0065
ENCODING 275
SWIDTH 460 0
DWIDTH 10 0
BBX 8 14 2 0
BITMAP
FF
FF
00
00
3C
3C
C3
C3
FF
FF
C0
C0
3F
3F
ENDCHAR
STARTCHAR uni0045
ENCODING 276
SWIDTH 460 0
DWIDTH 10 0
BBX 8 20 2 0
BITMAP
C3
C3
3C
3C
00
00
FF
FF
C0
C0
C0
C0
FC
FC
C0
C0
C0
C0
FF
FF
ENDCHAR
STARTCHAR uni0065
ENCODING 277
SWIDTH 460 0
DWIDTH 10 0
BBX 8 16 2 0
BITMAP
C3
C3
3C
3C
00
00
3C
3C
C3
C3
FF
FF
C0
C0
3F
3F
ENDCHAR
STARTCHAR uni0045
ENCODING 278
SWIDTH 460 0
DWIDTH 10 0
BBX 8 18 2 0
BITMAP
30
30
00
00
FF
FF
C0
C0
C0
C0
FC
FC
C0
C0
C0
C0
FF
FF
ENDCHAR
STARTCHAR uni0065
ENCODING 279
SWIDTH 460 0
DWIDTH 10 0
BBX 8 14 2 0
BITMAP
30
30
00
00
3C
3C
C3
C3
FF
FF
C0
C0
3F
3F
ENDCHAR
STARTCHAR uni0045
ENCODING 280
SWIDTH 460 0
DWIDTH 10 0
BBX 10 16 2 -2
BITMAP
FF00
FF00
C000
C000
C000
C000
FC00
FC00
C000
C000
C000
C000
FF00
FF00
00C0
00C0
ENDCHAR
STARTCHAR uni0065
ENCODING 281
SWIDTH 460 0
DWIDTH 10 0
BBX 8 12 2 -2
BITMAP
3C
3C
C3
C3
FF
FF
C0
C0
3C
3C
03
03
ENDCHAR
STARTCHAR uni0045
ENCODING 282
SWIDTH 460 0
DWIDTH 10 0
BBX 8 20 2 0
BITMAP
CC
CC
30
30
00
00
FF
FF
C0
C0
C0
C0
FC
FC
C0
C0
C0
C0
FF
FF
ENDCHAR
STARTCHAR uni0065
ENCODING 283
SWIDTH 460 0
DWIDTH 10 0
BBX 8 16 2 0
BITMAP
CC
CC
30
30
00
00
3C
3C
C3
C3
FF
FF
C0
C0
3F
3F
ENDCHAR
STARTCHAR uni0047
ENCODING 284
SWIDTH 460 0
DWIDTH 10 0
BBX 8 20 2 0
BITMAP
0C
0C
33
33
00
00
3C
3C
C3
C3
C0
C0
CF
CF
C3
C3
C3
C3
3F
3F
ENDCHAR
STARTCHAR uni0067
ENCODING 285
SWIDTH 460 0
DWIDTH 10 0
BBX 8 20 2 -4
BITMAP
0C
0C
33
33
00
00
3F
3F
C3
C3
C3
C3
C3
C3
3F
3F
03
03
3C
3C
ENDCHAR
STARTCHAR uni0047
ENCODING 286
SWIDTH 460 0
DWIDTH 10 0
BBX 8 20 2 0
BITMAP
C3
C3
3C
3C
00
00
3C
3C
C3
C3
C0
C0
CF
CF
C3
C3
C3
C3
3C
3C
ENDCHAR
STARTCHAR uni0067
ENCODING 287
SWIDTH 460 0
DWIDTH 10 0
BBX 8 20 2 -4
BITMAP
C3
C3
3C
3C
00
00
3F
3F
C3
C3
C3
C3
C3
C3
3F
3F
03
03
3C
3C
ENDCHAR
STARTCHAR uni0047
ENCODING 288
SWIDTH 460 0
DWIDTH 10 0
BBX 8 18 2 0
BITMAP
0C
0C
00
00
3C
3C
C3
C3
C0
C0
CF
CF
C3
C3
C3
C3
3C
3C
ENDCHAR
STARTCHAR uni0067
ENCODING 289
SWIDTH 460 0
DWIDTH 10 0
BBX 8 18 2 -4
BITMAP
0C
0C
00
00
3F
3F
C3
C3
C3
C3
C3
C3
3F
3F
03
03
3C
3C
ENDCHAR
STARTCHAR uni0047
ENCODING 290
SWIDTH 460 0
DWIDTH 10 0
BBX 8 18 2 -4
BITMAP
3C
3C
C3
C3
C0
C0
CF
CF
C3
C3
C3
C3
3F
3F
0C
0C
30
30
ENDCHAR
STARTCHAR uni0067
ENCODING 291
SWIDTH 460 0
DWIDTH 10 0
BBX 8 20 2 -4
BITMAP
0C
0C
30
30
00
00
3F
3F
C3
C3
C3
C3
C3
C3
3F
3F
03
03
3C
3C
ENDCHAR
STARTCHAR uni0048
ENCODING 292
SWIDTH 460 0
DWIDTH 10 0
BBX 8 20 2 0
BITMAP
0C
0C
33
33
00
00
C3
C3
C3
C3
C3
C3
FF
FF
C3
C3
C3
C3
C3
C3
ENDCHAR
STARTCHAR uni0068
ENCODING 293
SWIDTH 460 0
DWIDTH 10 0
BBX 8 18 2 0
BITMAP
0C
0C
33
33
C0
C0
C0
C0
FC
FC
C3
C3
C3
C3
C3
C3
C3
C3
ENDCHAR
STARTCHAR uni0048
ENCODING 294
SWIDTH 460 0
DWIDTH 10 0
BBX 12 12 0 0
BITMAP
FFF0
FFF0
30C0
30C0
3FC0
3FC0
30C0
30C0
30C0
30C0
30C0
30C0
ENDCHAR
STARTCHAR uni0068
ENCODING 295
SWIDTH 460 0
DWIDTH 10 0
BBX 10 14 0 0
BITMAP
FF00
FF00
3000
3000
3F00
3F00
30C0
30C0
30C0
30C0
30C0
30C0
30C0
30C0
ENDCHAR
STARTCHAR uni0049
ENCODING 296
SWIDTH 460 0
DWIDTH 10 0
BBX 8 18 0 0
BITMAP
33
33
CC
CC
00
00
3F
3F
0C
0C
0C
0C
0C
0C
0C
0C
3F
3F
ENDCHAR
STARTCHAR uni0069
ENCODING 297
SWIDTH 460 0
DWIDTH 10 0
BBX 8 16 2 0
BITMAP
33
33
CC
CC
00
00
3C
3C
0C
0C
0C
0C
0C
0C
0C
0C
ENDCHAR
STARTCHAR uni0049
ENCODING 298
SWIDTH 460 0
DWIDTH 10 0
BBX 6 16 2 0
BITMAP
FC
FC
00
00
FC
FC
30
30
30
30
30
30
30
30
FC
FC
ENDCHAR
STARTCHAR uni0069
ENCODING 299
SWIDTH 460 0
DWIDTH 10 0
BBX 6 14 4 0
BITMAP
FC
FC
00
00
F0
F0
30
30
30
30
30
30
30
30
ENDCHAR
STARTCHAR uni0049
ENCODING 300
SWIDTH 460 0
DWIDTH 10 0
BBX 6 18 2 0
BITMAP
CC
CC
30
30
00
00
FC
FC
30
30
30
30
30
30
30
30
FC
FC
ENDCHAR
STARTCHAR uni0069
ENCODING 301
SWIDTH 460 0
DWIDTH 10 0
BBX 6 16 4 0
BITMAP
CC
CC
30
30
00
00
F0
F0
30
30
30
30
30
30
30
30
ENDCHAR
STARTCHAR uni0049
ENCODING 302
SWIDTH 460 0
DWIDTH 10 0
BBX 6 16 2 -4
BITMAP
FC
FC
30
30
30
30
30
30
30
30
FC
FC
C0
C0
30
30
ENDCHAR
STARTCHAR uni0069
ENCODING 303
SWIDTH 460 0
DWIDTH 10 0
BBX 4 18 4 -4
BITMAP
30
30
00
00
F0
F0
30
30
30
30
30
30
F0
F0
C0
C0
30
30
ENDCHAR
STARTCHAR uni0049
ENCODING 304
SWIDTH 460 0
DWIDTH 10 0
BBX 6 16 2 0
BITMAP
30
30
00
00
FC
FC
30
30
30
30
30
30
30
30
FC
FC
ENDCHAR
STARTCHAR uni0069
ENCODING 305
SWIDTH 460 0
DWIDTH 10 0
BBX 4 10 4 0
BITMAP
F0
F0
30
30
30
30
30
30
30
30
ENDCHAR
STARTCHAR uni0049
ENCODING 306
SWIDTH 460 0
DWIDTH 10 0
BBX 12 12 2 0
BITMAP
FFF0
FFF0
3030
3030
3030
3030
3030
3030
3330
3330
FCC0
FCC0
ENDCHAR
STARTCHAR uni0069
ENCODING 307
SWIDTH 460 0
DWIDTH 10 0
BBX 10 16 2 -2
BITMAP
30C0
30C0
0000
0000
F3C0
F3C0
30C0
30C0
30C0
30C0
30C0
30C0
30C0
30C0
0F00
0F00
ENDCHAR
STARTCHAR uni004A
ENCODING 308
SWIDTH 460 0
DWIDTH 10 0
BBX 8 20 2 0
BITMAP
0C
0C
33
33
00
00
0F
0F
03
03
03
03
03
03
03
03
C3
C3
3C
3C
ENDCHAR
STARTCHAR uni006A
ENCODING 309
SWIDTH 460 0
DWIDTH 10 0
BBX 8 20 2 -4
BITMAP
0C
0C
33
33
00
00
0F
0F
03
03
03
03
03
03
03
03
C3
C3
3C
3C
ENDCHAR
STARTCHAR uni004B
ENCODING 310
SWIDTH 460 0
DWIDTH 10 0
BBX 8 18 2 -4
BITMAP
C3
C3
C3
C3
CC
CC
F0
F0
CC
CC
C3
C3
C3
C3
30
30
C0
C0
ENDCHAR
STARTCHAR uni006B
ENCODING 311
SWIDTH 460 0
DWIDTH 10 0
BBX 8 18 2 -4
BITMAP
C0
C0
C0
C0
C3
C3
CC
CC
F0
F0
CC
CC
C3
C3
30
30
C0
C0
ENDCHAR
STARTCHAR uni006B
ENCODING 312
SWIDTH 460 0
DWIDTH 10 0
BBX 8 10 2 0
BITMAP
C3
C3
CC
CC
F0
F0
CC
CC
C3
C3
ENDCHAR
STARTCHAR uni004C
ENCODING 313
SWIDTH 460 0
DWIDTH 10 0
BBX 8 18 2 0
BITMAP
03
03
0C
0C
C0
C0
C0
C0
C0
C0
C0
C0
C0
C0
C0
C0
FF
FF
ENDCHAR
STARTCHAR uni006C
ENCODING 314
SWIDTH 460 0
DWIDTH 10 0
BBX 8 18 4 0
BITMAP
03
03
0C
0C
F0
F0
30
30
30
30
30
30
30
30
30
30
30
30
ENDCHAR
STARTCHAR uni004C
ENCODING 315
SWIDTH 460 0
DWIDTH 10 0
BBX 8 18 2 -4
BITMAP
C0
C0
C0
C0
C0
C0
C0
C0
C0
C0
C0
C0
FF
FF
0C
0C
30
30
ENDCHAR
STARTCHAR uni006C
ENCODING 316
SWIDTH 460 0
DWIDTH 10 0
BBX 6 18 2 -4
BITMAP
3C
3C
0C
0C
0C
0C
0C
0C
0C
0C
0C
0C
0C
0C
30
30
C0
C0
ENDCHAR
STARTCHAR uni004C
ENCODING 317
SWIDTH 460 0
DWIDTH 10 0
BBX 8 16 2 0
BITMAP
0F
0F
C3
C3
C0
C0
C0
C0
C0
C0
C0
C0
C0
C0
FF
FF
ENDCHAR
STARTCHAR uni006C
ENCODING 318
SWIDTH 460 0
DWIDTH 10 0
BBX 8 18 2 0
BITMAP
0F
0F
03
03
F0
F0
30
30
30
30
30
30
30
30
30
30
0F
0F
ENDCHAR
STARTCHAR uni004C
ENCODING 319
SWIDTH 460 0
DWIDTH 10 0
BBX 8 14 2 0
BITMAP
C0
C0
C0
C0
C0
C0
C0
C0
CC
CC
C0
C0
FF
FF
ENDCHAR
STARTCHAR uni006C
ENCODING 320
SWIDTH 460 0
DWIDTH 10 0
BBX 8 14 2 0
BITMAP
F0
F0
30
30
30
30
30
30
33
33
30
30
30
30
ENDCHAR
STARTCHAR uni004C
ENCODING 321
SWIDTH 460 0
DWIDTH 10 0
BBX 8 14 2 0
BITMAP
C0
C0
C0
C0
CC
CC
F0
F0
C0
C0
C0
C0
FF
FF
ENDCHAR
STARTCHAR uni006C
ENCODING 322
SWIDTH 460 0
DWIDTH 10 0
BBX 6 14 4 0
BITMAP
F0
F0
30
30
30
30
3C
3C
F0
F0
30
30
30
30
ENDCHAR
STARTCHAR uni004E
ENCODING 323
SWIDTH 460 0
DWIDTH 10 0
BBX 8 20 2 0
BITMAP
0C
0C
30
30
00
00
C3
C3
F3
F3
CF
CF
C3
C3
C3
C3
C3
C3
C3
C3
ENDCHAR
STARTCHAR uni006E
ENCODING 324
SWIDTH 460 0
DWIDTH 10 0
BBX 8 16 2 0
BITMAP
0C
0C
30
30
00
00
FC
FC
C3
C3
C3
C3
C3
C3
C3
C3
ENDCHAR
STARTCHAR uni004E
ENCODING 325
SWIDTH 460 0
DWIDTH 10 0
BBX 8 18 2 -4
BITMAP
C3
C3
F3
F3
CF
CF
C3
C3
C3
C3
C3
C3
F3
F3
30
30
C0
C0
ENDCHAR
STARTCHAR uni006E
ENCODING 326
SWIDTH 460 0
DWIDTH 10 0
BBX 8 20 2 -4
BITMAP
0C
0C
30
30
00
00
FC
FC
C3
C3
C3
C3
C3
C3
F3
F3
30
30
C0
C0
ENDCHAR
STARTCHAR uni004E
ENCODING 327
SWIDTH 460 0
DWIDTH 10 0
BBX 8 20 2 0
BITMAP
33
33
0C
0C
00
00
C3
C3
F3
F3
CF
CF
C3
C3
C3
C3
C3
C3
C3
C3
ENDCHAR
STARTCHAR uni006E
ENCODING 328
SWIDTH 460 0
DWIDTH 10 0
BBX 8 16 2 0
BITMAP
33
33
0C
0C
00
00
FC
FC
C3
C3
C3
C3
C3
C3
C3
C3
ENDCHAR
STARTCHAR uni006E
ENCODING 329
SWIDTH 460 0
DWIDTH 10 0
BBX 8 16 2 0
BITMAP
C0
C0
C0
C0
00
00
FC
FC
C3
C3
C3
C3
C3
C3
C3
C3
ENDCHAR
STARTCHAR uni004E
ENCODING 330
SWIDTH 460 0
DWIDTH 10 0
BBX 8 18 2 -4
BITMAP
C3
C3
F3
F3
CF
CF
C3
C3
C3
C3
C3
C3
C3
C3
03
03
3C
3C
ENDCHAR
STARTCHAR uni006E
ENCODING 331
SWIDTH 460 0
DWIDTH 10 0
BBX 8 20 2 -4
BITMAP
0C
0C
30
30
00
00
FC
FC
C3
C3
C3
C3
C3
C3
C3
C3
03
03
3C
3C
ENDCHAR
STARTCHAR uni004F
ENCODING 332
SWIDTH 460 0
DWIDTH 10 0
BBX 8 18 2 0
BITMAP
FF
FF
00
00
3C
3C
C3
C3
C3
C3
C3
C3
C3
C3
C3
C3
3C
3C
ENDCHAR
STARTCHAR uni006F
ENCODING 333
SWIDTH 460 0
DWIDTH 10 0
BBX 8 14 2 0
BITMAP
FF
FF
00
00
3C
3C
C3
C3
C3
C3
C3
C3
3C
3C
ENDCHAR
STARTCHAR uni004F
ENCODING 334
SWIDTH 460 0
DWIDTH 10 0
BBX 8 20 2 0
BITMAP
C3
C3
3C
3C
00
00
3C
3C
C3
C3
C3
C3
C3
C3
C3
C3
C3
C3
3C
3C
ENDCHAR
STARTCHAR uni006F
ENCODING 335
SWIDTH 460 0
DWIDTH 10 0
BBX 8 16 2 0
BITMAP
C3
C3
3C
3C
00
00
3C
3C
C3
C3
C3
C3
C3
C3
3C
3C
ENDCHAR
STARTCHAR uni004F
ENCODING 336
SWIDTH 460 0
DWIDTH 10 0
BBX 8 20 2 0
BITMAP
33
33
CC
CC
00
00
3C
3C
C3
C3
C3
C3
C3
C3
C3
C3
C3
C3
3C
3C
ENDCHAR
STARTCHAR uni006F
ENCODING 337
SWIDTH 460 0
DWIDTH 10 0
BBX 8 16 2 0
BITMAP
33
33
CC
CC
00
00
3C
3C
C3
C3
C3
C3
C3
C3
3C
3C
ENDCHAR
STARTCHAR char198
ENCODING 338
SWIDTH 460 0
DWIDTH 10 0
BBX 12 12 0 0
BITMAP
3FF0
3FF0
C300
C300
C3C0
C3C0
C300
C300
C300
C300
3FF0
3FF0
ENDCHAR
STARTCHAR char230
ENCODING 339
SWIDTH 460 0
DWIDTH 10 0
BBX 10 10 2 0
BITMAP
3F00
3F00
CCC0
CCC0
CFC0
CFC0
CC00
CC00
3FC0
3FC0
ENDCHAR
STARTCHAR uni0052
ENCODING 340
SWIDTH 460 0
DWIDTH 10 0
BBX 8 18 2 0
BITMAP
0C
0C
30
30
FC
FC
C3
C3
C3
C3
FC
FC
C3
C3
C3
C3
C3
C3
ENDCHAR
STARTCHAR uni0072
ENCODING 341
SWIDTH 460 0
DWIDTH 10 0
BBX 8 16 2 0
BITMAP
0C
0C
30
30
00
00
FC
FC
C3
C3
C0
C0
C0
C0
C0
C0
ENDCHAR
STARTCHAR uni0052
ENCODING 342
SWIDTH 460 0
DWIDTH 10 0
BBX 8 18 2 -4
BITMAP
FC
FC
C3
C3
C3
C3
FC
FC
C3
C3
C3
C3
C3
C3
30
30
C0
C0
ENDCHAR
STARTCHAR uni0072
ENCODING 343
SWIDTH 460 0
DWIDTH 10 0
BBX 8 14 2 -4
BITMAP
FC
FC
C3
C3
C0
C0
C0
C0
C0
C0
30
30
C0
C0
ENDCHAR
STARTCHAR uni0052
ENCODING 344
SWIDTH 460 0
DWIDTH 10 0
BBX 8 18 2 0
BITMAP
CC
CC
30
30
FC
FC
C3
C3
C3
C3
FC
FC
C3
C3
C3
C3
C3
C3
ENDCHAR
STARTCHAR uni0072
ENCODING 345
SWIDTH 460 0
DWIDTH 10 0
BBX 8 16 2 0
BITMAP
CC
CC
30
30
00
00
FC
FC
C3
C3
C0
C0
C0
C0
C0
C0
ENDCHAR
STARTCHAR uni0053
ENCODING 346
SWIDTH 460 0
DWIDTH 10 0
BBX 8 20 2 0
BITMAP
0C
0C
30
30
00
00
3C
3C
C3
C3
C0
C0
3C
3C
03
03
C3
C3
3C
3C
ENDCHAR
STARTCHAR uni0073
ENCODING 347
SWIDTH 460 0
DWIDTH 10 0
BBX 8 16 2 0
BITMAP
0C
0C
30
30
00
00
3C
3C
C0
C0
3C
3C
03
03
FC
FC
ENDCHAR
STARTCHAR uni0053
ENCODING 348
SWIDTH 460 0
DWIDTH 10 0
BBX 8 20 2 0
BITMAP
0C
0C
33
33
00
00
3C
3C
C3
C3
C0
C0
3C
3C
03
03
C3
C3
3C
3C
ENDCHAR
STARTCHAR uni0073
ENCODING 349
SWIDTH 460 0
DWIDTH 10 0
BBX 8 16 2 0
BITMAP
0C
0C
33
33
00
00
3C
3C
C0
C0
3C
3C
03
03
FC
FC
ENDCHAR
STARTCHAR uni0053
ENCODING 350
SWIDTH 460 0
DWIDTH 10 0
BBX 8 18 2 -4
BITMAP
3C
3C
C3
C3
C0
C0
3C
3C
03
03
C3
C3
3C
3C
0C
0C
0C
0C
ENDCHAR
STARTCHAR uni0073
ENCODING 351
SWIDTH 460 0
DWIDTH 10 0
BBX 8 14 2 -4
BITMAP
3C
3C
C0
C0
3C
3C
03
03
FC
FC
0C
0C
0C
0C
ENDCHAR
STARTCHAR uni0053
ENCODING 352
SWIDTH 460 0
DWIDTH 10 0
BBX 8 20 2 0
BITMAP
33
33
0C
0C
00
00
3C
3C
C3
C3
C0
C0
3C
3C
03
03
C3
C3
3C
3C
ENDCHAR
STARTCHAR uni0073
ENCODING 353
SWIDTH 460 0
DWIDTH 10 0
BBX 8 16 2 0
BITMAP
33
33
0C
0C
00
00
3C
3C
C0
C0
3C
3C
03
03
FC
FC
ENDCHAR
STARTCHAR uni0054
ENCODING 354
SWIDTH 460 0
DWIDTH 10 0
BBX 10 16 0 -2
BITMAP
FFC0
FFC0
0C00
0C00
0C00
0C00
0C00
0C00
0C00
0C00
0C00
0C00
0C00
0C00
3000
3000
ENDCHAR
STARTCHAR uni0074
ENCODING 355
SWIDTH 460 0
DWIDTH 10 0
BBX 8 16 2 -2
BITMAP
30
30
30
30
FC
FC
30
30
30
30
30
30
0F
0F
30
30
ENDCHAR
STARTCHAR uni0054
ENCODING 356
SWIDTH 460 0
DWIDTH 10 0
BBX 10 20 0 0
BITMAP
3300
3300
0C00
0C00
0000
0000
FFC0
FFC0
0C00
0C00
0C00
0C00
0C00
0C00
0C00
0C00
0C00
0C00
0C00
0C00
ENDCHAR
STARTCHAR uni0074
ENCODING 357
SWIDTH 460 0
DWIDTH 10 0
BBX 8 18 2 0
BITMAP
0F
0F
03
03
30
30
30
30
FC
FC
30
30
30
30
30
30
0F
0F
ENDCHAR
STARTCHAR uni0054
ENCODING 358
SWIDTH 460 0
DWIDTH 10 0
BBX 10 14 0 0
BITMAP
FFC0
FFC0
0C00
0C00
0C00
0C00
3F00
3F00
0C00
0C00
0C00
0C00
0C00
0C00
ENDCHAR
STARTCHAR uni0074
ENCODING 359
SWIDTH 460 0
DWIDTH 10 0
BBX 8 14 2 0
BITMAP
30
30
30
30
FC
FC
30
30
FC
FC
30
30
0F
0F
ENDCHAR
STARTCHAR uni0055
ENCODING 360
SWIDTH 460 0
DWIDTH 10 0
BBX 8 20 2 0
BITMAP
33
33
CC
CC
00
00
C3
C3
C3
C3
C3
C3
C3
C3
C3
C3
C3
C3
3C
3C
ENDCHAR
STARTCHAR uni0075
ENCODING 361
SWIDTH 460 0
DWIDTH 10 0
BBX 8 16 2 0
BITMAP
33
33
CC
CC
00
00
C3
C3
C3
C3
C3
C3
C3
C3
3F
3F
ENDCHAR
STARTCHAR uni0055
ENCODING 362
SWIDTH 460 0
DWIDTH 10 0
BBX 8 18 2 0
BITMAP
FF
FF
00
00
C3
C3
C3
C3
C3
C3
C3
C3
C3
C3
C3
C3
3C
3C
ENDCHAR
STARTCHAR uni0075
ENCODING 363
SWIDTH 460 0
DWIDTH 10 0
BBX 8 14 2 0
BITMAP
FF
FF
00
00
C3
C3
C3
C3
C3
C3
C3
C3
3F
3F
ENDCHAR
STARTCHAR uni0055
ENCODING 364
SWIDTH 460 0
DWIDTH 10 0
BBX 8 20 2 0
BITMAP
C3
C3
3C
3C
00
00
C3
C3
C3
C3
C3
C3
C3
C3
C3
C3
C3
C3
3C
3C
ENDCHAR
STARTCHAR uni0075
ENCODING 365
SWIDTH 460 0
DWIDTH 10 0
BBX 8 16 2 0
BITMAP
C3
C3
3C
3C
00
00
C3
C3
C3
C3
C3
C3
C3
C3
3F
3F
ENDCHAR
STARTCHAR uni0055
ENCODING 366
SWIDTH 460 0
DWIDTH 10 0
BBX 8 20 2 0
BITMAP
0C
0C
33
33
0C
0C
C3
C3
C3
C3
C3
C3
C3
C3
C3
C3
C3
C3
3C
3C
ENDCHAR
STARTCHAR uni0075
ENCODING 367
SWIDTH 460 0
DWIDTH 10 0
BBX 8 16 2 0
BITMAP
0C
0C
33
33
0C
0C
C3
C3
C3
C3
C3
C3
C3
C3
3F
3F
ENDCHAR
STARTCHAR uni0055
ENCODING 368
SWIDTH 460 0
DWIDTH 10 0
BBX 10 20 2 0
BITMAP
30C0
30C0
C300
C300
0000
0000
C300
C300
C300
C300
C300
C300
C300
C300
C300
C300
C300
C300
3C00
3C00
ENDCHAR
STARTCHAR uni0075
ENCODING 369
SWIDTH 460 0
DWIDTH 10 0
BBX 10 16 2 0
BITMAP
30C0
30C0
C300
C300
0000
0000
C300
C300
C300
C300
C300
C300
C300
C300
3F00
3F00
ENDCHAR
STARTCHAR uni0055
ENCODING 370
SWIDTH 460 0
DWIDTH 10 0
BBX 8 18 2 -4
BITMAP
C3
C3
C3
C3
C3
C3
C3
C3
C3
C3
C3
C3
3C
3C
30
30
0C
0C
ENDCHAR
STARTCHAR uni0075
ENCODING 371
SWIDTH 460 0
DWIDTH 10 0
BBX 8 14 2 -4
BITMAP
C3
C3
C3
C3
C3
C3
C3
C3
3F
3F
30
30
0C
0C
ENDCHAR
STARTCHAR uni0077
ENCODING 372
SWIDTH 460 0
DWIDTH 10 0
BBX 8 20 2 0
BITMAP
0C
0C
33
33
00
00
C3
C3
C3
C3
C3
C3
C3
C3
C3
C3
FF
FF
C3
C3
ENDCHAR
STARTCHAR uni0077
ENCODING 373
SWIDTH 460 0
DWIDTH 10 0
BBX 8 16 2 0
BITMAP
0C
0C
33
33
00
00
C3
C3
C3
C3
C3
C3
FF
FF
C3
C3
ENDCHAR
STARTCHAR uni0059
ENCODING 374
SWIDTH 460 0
DWIDTH 10 0
BBX 10 20 0 0
BITMAP
0C00
0C00
3300
3300
0000
0000
C0C0
C0C0
3300
3300
0C00
0C00
0C00
0C00
0C00
0C00
0C00
0C00
0C00
0C00
ENDCHAR
STARTCHAR uni0079
ENCODING 375
SWIDTH 460 0
DWIDTH 10 0
BBX 8 20 2 -4
BITMAP
0C
0C
33
33
00
00
C3
C3
C3
C3
C3
C3
C3
C3
3F
3F
03
03
3C
3C
ENDCHAR
STARTCHAR uni0059
ENCODING 376
SWIDTH 460 0
DWIDTH 10 0
BBX 10 18 0 0
BITMAP
3300
3300
0000
0000
C0C0
C0C0
3300
3300
0C00
0C00
0C00
0C00
0C00
0C00
0C00
0C00
0C00
0C00
ENDCHAR
STARTCHAR uni005A
ENCODING 377
SWIDTH 460 0
DWIDTH 10 0
BBX 8 20 2 0
BITMAP
0C
0C
30
30
00
00
FF
FF
03
03
0C
0C
30
30
C0
C0
C0
C0
FF
FF
ENDCHAR
STARTCHAR uni007A
ENCODING 378
SWIDTH 460 0
DWIDTH 10 0
BBX 8 16 2 0
BITMAP
0C
0C
30
30
00
00
FF
FF
0C
0C
30
30
C0
C0
FF
FF
ENDCHAR
STARTCHAR uni005A
ENCODING 379
SWIDTH 460 0
DWIDTH 10 0
BBX 8 18 2 0
BITMAP
0C
0C
00
00
FF
FF
03
03
0C
0C
30
30
C0
C0
C0
C0
FF
FF
ENDCHAR
STARTCHAR uni007A
ENCODING 380
SWIDTH 460 0
DWIDTH 10 0
BBX 8 14 2 0
BITMAP
0C
0C
00
00
FF
FF
0C
0C
30
30
C0
C0
FF
FF
ENDCHAR
STARTCHAR uni005A
ENCODING 381
SWIDTH 460 0
DWIDTH 10 0
BBX 8 20 2 0
BITMAP
33
33
0C
0C
00
00
FF
FF
03
03
0C
0C
30
30
C0
C0
C0
C0
FF
FF
ENDCHAR
STARTCHAR uni007A
ENCODING 382
SWIDTH 460 0
DWIDTH 10 0
BBX 8 16 2 0
BITMAP
33
33
0C
0C
00
00
FF
FF
0C
0C
30
30
C0
C0
FF
FF
ENDCHAR
STARTCHAR LATIN
ENCODING 383
SWIDTH 460 0
DWIDTH 10 0
BBX 8 14 2 0
BITMAP
0F
0F
30
30
F0
F0
30
30
30
30
30
30
30
30
ENDCHAR
STARTCHAR uni0062
ENCODING 384
SWIDTH 460 0
DWIDTH 10 0
BBX 10 14 0 0
BITMAP
FC00
FC00
3000
3000
3F00
3F00
30C0
30C0
30C0
30C0
30C0
30C0
3F00
3F00
ENDCHAR
STARTCHAR uni0042
ENCODING 385
SWIDTH 460 0
DWIDTH 10 0
BBX 10 14 0 0
BITMAP
FF00
FF00
30C0
30C0
30C0
30C0
3F00
3F00
30C0
30C0
30C0
30C0
3F00
3F00
ENDCHAR
STARTCHAR uni0042
ENCODING 386
SWIDTH 460 0
DWIDTH 10 0
BBX 10 16 2 0
BITMAP
FC00
FC00
CC00
CC00
C000
C000
FF00
FF00
C0C0
C0C0
C0C0
C0C0
C0C0
C0C0
FF00
FF00
ENDCHAR
STARTCHAR uni0042
ENCODING 387
SWIDTH 460 0
DWIDTH 10 0
BBX 8 16 2 0
BITMAP
FC
FC
CC
CC
C0
C0
FC
FC
C3
C3
C3
C3
C3
C3
FC
FC
ENDCHAR
STARTCHAR uni0062
ENCODING 388
SWIDTH 460 0
DWIDTH 10 0
BBX 12 14 0 0
BITMAP
3000
3000
F000
F000
3FC0
3FC0
3030
3030
3030
3030
3030
3030
3FC0
3FC0
ENDCHAR
STARTCHAR uni0062
ENCODING 389
SWIDTH 460 0
DWIDTH 10 0
BBX 10 14 0 0
BITMAP
3000
3000
F000
F000
3F00
3F00
30C0
30C0
30C0
30C0
30C0
30C0
3F00
3F00
ENDCHAR
STARTCHAR uni0043
ENCODING 390
SWIDTH 460 0
DWIDTH 10 0
BBX 8 14 2 0
BITMAP
3C
3C
C3
C3
03
03
03
03
03
03
C3
C3
3C
3C
ENDCHAR
STARTCHAR uni0043
ENCODING 391
SWIDTH 460 0
DWIDTH 10 0
BBX 10 16 2 0
BITMAP
00C0
00C0
3C00
3C00
C300
C300
C000
C000
C000
C000
C000
C000
C300
C300
3C00
3C00
ENDCHAR
STARTCHAR uni0063
ENCODING 392
SWIDTH 460 0
DWIDTH 10 0
BBX 8 10 2 0
BITMAP
3C
3C
C3
C3
C0
C0
C0
C0
3F
3F
ENDCHAR
STARTCHAR uni0044
ENCODING 393
SWIDTH 460 0
DWIDTH 10 0
BBX 10 14 0 0
BITMAP
3F00
3F00
30C0
30C0
30C0
30C0
FCC0
FCC0
30C0
30C0
30C0
30C0
3F00
3F00
ENDCHAR
STARTCHAR uni0044
ENCODING 394
SWIDTH 460 0
DWIDTH 10 0
BBX 12 14 -2 0
BITMAP
3FC0
3FC0
CC30
CC30
0C30
0C30
0C30
0C30
0C30
0C30
0C30
0C30
0FC0
0FC0
ENDCHAR
STARTCHAR uni0042
ENCODING 395
SWIDTH 460 0
DWIDTH 10 0
BBX 10 16 2 0
BITMAP
0FC0
0FC0
0CC0
0CC0
00C0
00C0
3FC0
3FC0
C0C0
C0C0
C0C0
C0C0
C3C0
C3C0
3CC0
3CC0
ENDCHAR
STARTCHAR uni0042
ENCODING 396
SWIDTH 460 0
DWIDTH 10 0
BBX 8 16 2 0
BITMAP
3F
3F
33
33
03
03
3F
3F
C3
C3
C3
C3
CF
CF
33
33
ENDCHAR
STARTCHAR uni0045
ENCODING 398
SWIDTH 460 0
DWIDTH 10 0
BBX 10 12 0 0
BITMAP
3FC0
3FC0
C0C0
C0C0
0FC0
0FC0
00C0
00C0
00C0
00C0
3FC0
3FC0
ENDCHAR
STARTCHAR uni0065
ENCODING 399
SWIDTH 460 0
DWIDTH 10 0
BBX 8 10 2 0
BITMAP
FC
FC
03
03
FF
FF
C3
C3
3C
3C
ENDCHAR
STARTCHAR char1028
ENCODING 400
SWIDTH 460 0
DWIDTH 10 0
BBX 8 12 2 0
BITMAP
3C
3C
C3
C3
30
30
C0
C0
C3
C3
3C
3C
ENDCHAR
STARTCHAR uni0066
ENCODING 402
SWIDTH 460 0
DWIDTH 10 0
BBX 8 16 2 -2
BITMAP
0F
0F
30
30
3C
3C
30
30
30
30
30
30
30
30
C0
C0
ENDCHAR
STARTCHAR uni0047
ENCODING 403
SWIDTH 460 0
DWIDTH 10 0
BBX 14 12 2 0
BITMAP
3F3C
3F3C
C0CC
C0CC
C000
C000
CF00
CF00
C300
C300
3F00
3F00
ENDCHAR
STARTCHAR uni0049
ENCODING 407
SWIDTH 460 0
DWIDTH 10 0
BBX 6 16 2 0
BITMAP
FC
FC
00
00
FC
FC
30
30
30
30
30
30
30
30
FC
FC
ENDCHAR
STARTCHAR uni0049
ENCODING 410
SWIDTH 460 0
DWIDTH 10 0
BBX 6 14 2 0
BITMAP
F0
F0
30
30
30
30
FC
FC
30
30
30
30
30
30
ENDCHAR
STARTCHAR uni006E
ENCODING 414
SWIDTH 460 0
DWIDTH 10 0
BBX 8 12 2 -2
BITMAP
FC
FC
C3
C3
C3
C3
C3
C3
C3
C3
03
03
ENDCHAR
STARTCHAR GREEK
ENCODING 415
SWIDTH 460 0
DWIDTH 10 0
BBX 8 10 0 0
BITMAP
3C
3C
C3
C3
FF
FF
C3
C3
3C
3C
ENDCHAR
STARTCHAR uni004F
ENCODING 416
SWIDTH 460 0
DWIDTH 10 0
BBX 12 16 2 0
BITMAP
0030
0030
0030
0030
3CC0
3CC0
C300
C300
C300
C300
C300
C300
C300
C300
3C00
3C00
ENDCHAR
STARTCHAR uni006F
ENCODING 417
SWIDTH 460 0
DWIDTH 10 0
BBX 12 16 2 0
BITMAP
0030
0030
0030
0030
00C0
00C0
3C00
3C00
C300
C300
C300
C300
C300
C300
3C00
3C00
ENDCHAR
STARTCHAR uni004F
ENCODING 418
SWIDTH 460 0
DWIDTH 10 0
BBX 12 14 2 0
BITMAP
00C0
00C0
3C30
3C30
C330
C330
C330
C330
C330
C330
C330
C330
3C30
3C30
ENDCHAR
STARTCHAR uni006F
ENCODING 419
SWIDTH 460 0
DWIDTH 10 0
BBX 12 12 2 0
BITMAP
00C0
00C0
3C30
3C30
C330
C330
C330
C330
C330
C330
3C30
3C30
ENDCHAR
STARTCHAR uni0050
ENCODING 420
SWIDTH 460 0
DWIDTH 10 0
BBX 12 12 -2 0
BITMAP
FFC0
FFC0
CC30
CC30
0C30
0C30
0FC0
0FC0
0C00
0C00
0C00
0C00
ENDCHAR
STARTCHAR uni0070
ENCODING 421
SWIDTH 460 0
DWIDTH 10 0
BBX 12 18 2 -4
BITMAP
00F0
00F0
0330
0330
FC00
FC00
C300
C300
C300
C300
C300
C300
FC00
FC00
C000
C000
C000
C000
ENDCHAR
STARTCHAR uni0053
ENCODING 423
SWIDTH 460 0
DWIDTH 10 0
BBX 8 12 2 0
BITMAP
FC
FC
03
03
3C
3C
C0
C0
C0
C0
3F
3F
ENDCHAR
STARTCHAR uni0073
ENCODING 424
SWIDTH 460 0
DWIDTH 10 0
BBX 8 10 2 0
BITMAP
FC
FC
03
03
3C
3C
C0
C0
3F
3F
ENDCHAR
STARTCHAR GREEK
ENCODING 425
SWIDTH 460 0
DWIDTH 10 0
BBX 10 12 0 0
BITMAP
FFC0
FFC0
30C0
30C0
0C00
0C00
3000
3000
C0C0
C0C0
FFC0
FFC0
ENDCHAR
STARTCHAR uni0074
ENCODING 427
SWIDTH 460 0
DWIDTH 10 0
BBX 6 14 2 -2
BITMAP
30
30
FC
FC
30
30
30
30
30
30
0C
0C
30
30
ENDCHAR
STARTCHAR uni0054
ENCODING 428
SWIDTH 460 0
DWIDTH 10 0
BBX 10 12 0 0
BITMAP
FFC0
FFC0
0CC0
0CC0
0C00
0C00
0C00
0C00
0C00
0C00
0C00
0C00
ENDCHAR
STARTCHAR uni0054
ENCODING 430
SWIDTH 460 0
DWIDTH 10 0
BBX 10 12 0 0
BITMAP
FFC0
FFC0
CCC0
CCC0
0C00
0C00
0C00
0C00
0C00
0C00
0C00
0C00
ENDCHAR
STARTCHAR GREEK
ENCODING 480
SWIDTH 460 0
DWIDTH 10 0
BBX 10 10 2 0
BITMAP
FFC0
FFC0
3300
3300
3300
3300
3300
3300
3300
3300
ENDCHAR
STARTCHAR uni0061
ENCODING 592
SWIDTH 460 0
DWIDTH 10 0
BBX 8 10 2 0
BITMAP
CC
CC
F3
F3
C3
C3
C3
C3
FC
FC
ENDCHAR
STARTCHAR uni0061
ENCODING 593
SWIDTH 460 0
DWIDTH 10 0
BBX 8 10 2 0
BITMAP
33
33
CF
CF
C3
C3
CF
CF
33
33
ENDCHAR
STARTCHAR uni0061
ENCODING 594
SWIDTH 460 0
DWIDTH 10 0
BBX 8 10 2 0
BITMAP
CC
CC
F3
F3
C3
C3
F3
F3
CC
CC
ENDCHAR
STARTCHAR uni0062
ENCODING 595
SWIDTH 460 0
DWIDTH 10 0
BBX 8 14 2 0
BITMAP
C0
C0
C0
C0
FC
FC
C3
C3
C3
C3
C3
C3
FC
FC
ENDCHAR
STARTCHAR uni0063
ENCODING 596
SWIDTH 460 0
DWIDTH 10 0
BBX 8 10 2 0
BITMAP
3C
3C
C3
C3
C0
C0
C3
C3
3C
3C
ENDCHAR
STARTCHAR uni0063
ENCODING 597
SWIDTH 460 0
DWIDTH 10 0
BBX 8 10 2 0
BITMAP
3C
3C
C3
C3
C0
C0
CF
CF
3C
3C
ENDCHAR
STARTCHAR uni0064
ENCODING 598
SWIDTH 460 0
DWIDTH 10 0
BBX 10 16 2 -2
BITMAP
0300
0300
0300
0300
3F00
3F00
C300
C300
C300
C300
CF00
CF00
3300
3300
00C0
00C0
ENDCHAR
STARTCHAR uni0064
ENCODING 599
SWIDTH 460 0
DWIDTH 10 0
BBX 10 16 2 0
BITMAP
00C0
00C0
0300
0300
0300
0300
3F00
3F00
C300
C300
C300
C300
CF00
CF00
3300
3300
ENDCHAR
STARTCHAR uni0065
ENCODING 600
SWIDTH 460 0
DWIDTH 10 0
BBX 8 10 2 0
BITMAP
3C
3C
C3
C3
FF
FF
03
03
FC
FC
ENDCHAR
STARTCHAR uni0065
ENCODING 601
SWIDTH 460 0
DWIDTH 10 0
BBX 8 10 2 0
BITMAP
FC
FC
03
03
FF
FF
C3
C3
3C
3C
ENDCHAR
STARTCHAR uni0065
ENCODING 602
SWIDTH 460 0
DWIDTH 10 0
BBX 10 10 2 0
BITMAP
FCC0
FCC0
0300
0300
FF00
FF00
C300
C300
3C00
3C00
ENDCHAR
STARTCHAR uni0033
ENCODING 603
SWIDTH 460 0
DWIDTH 10 0
BBX 8 12 2 0
BITMAP
3F
3F
C0
C0
3C
3C
C0
C0
C0
C0
3F
3F
ENDCHAR
STARTCHAR uni0033
ENCODING 604
SWIDTH 460 0
DWIDTH 10 0
BBX 8 12 2 0
BITMAP
FC
FC
03
03
3C
3C
03
03
03
03
FC
FC
ENDCHAR
STARTCHAR uni0033
ENCODING 605
SWIDTH 460 0
DWIDTH 10 0
BBX 10 12 2 0
BITMAP
FCC0
FCC0
0300
0300
3C00
3C00
0300
0300
0300
0300
FC00
FC00
ENDCHAR
STARTCHAR char223
ENCODING 606
SWIDTH 460 0
DWIDTH 10 0
BBX 8 12 2 0
BITMAP
3C
3C
C3
C3
CC
CC
C3
C3
C3
C3
3C
3C
ENDCHAR
STARTCHAR uni006A
ENCODING 607
SWIDTH 460 0
DWIDTH 10 0
BBX 8 14 2 -4
BITMAP
3C
3C
0C
0C
0F
0F
3C
3C
0C
0C
0C
0C
F0
F0
ENDCHAR
STARTCHAR uni0067
ENCODING 608
SWIDTH 460 0
DWIDTH 10 0
BBX 10 16 2 -4
BITMAP
00C0
00C0
3F00
3F00
C300
C300
C300
C300
CF00
CF00
3300
3300
0300
0300
3C00
3C00
ENDCHAR
STARTCHAR uni0067
ENCODING 609
SWIDTH 460 0
DWIDTH 10 0
BBX 8 14 2 -4
BITMAP
3F
3F
C3
C3
C3
C3
CF
CF
33
33
03
03
3C
3C
ENDCHAR
STARTCHAR uni0047
ENCODING 610
SWIDTH 460 0
DWIDTH 10 0
BBX 8 10 2 0
BITMAP
3F
3F
C0
C0
CF
CF
C3
C3
3F
3F
ENDCHAR
STARTCHAR uni0076
ENCODING 611
SWIDTH 460 0
DWIDTH 10 0
BBX 8 14 2 -4
BITMAP
C3
C3
C3
C3
C3
C3
3C
3C
3C
3C
C3
C3
3C
3C
ENDCHAR
STARTCHAR uni0076
ENCODING 612
SWIDTH 460 0
DWIDTH 10 0
BBX 12 14 0 -4
BITMAP
C030
C030
30C0
30C0
30C0
30C0
0F00
0F00
0F00
0F00
30C0
30C0
0F00
0F00
ENDCHAR
STARTCHAR uni0068
ENCODING 613
SWIDTH 460 0
DWIDTH 10 0
BBX 8 14 2 0
BITMAP
C3
C3
C3
C3
C3
C3
C3
C3
3F
3F
03
03
03
03
ENDCHAR
STARTCHAR uni0068
ENCODING 614
SWIDTH 460 0
DWIDTH 10 0
BBX 8 16 2 0
BITMAP
3C
3C
C0
C0
C0
C0
FC
FC
C3
C3
C3
C3
C3
C3
C3
C3
ENDCHAR
STARTCHAR uni0068
ENCODING 615
SWIDTH 460 0
DWIDTH 10 0
BBX 8 18 2 -2
BITMAP
3C
3C
C0
C0
C0
C0
FC
FC
C3
C3
C3
C3
C3
C3
C3
C3
0C
0C
ENDCHAR
STARTCHAR uni0069
ENCODING 616
SWIDTH 460 0
DWIDTH 10 0
BBX 6 14 4 0
BITMAP
30
30
00
00
F0
F0
30
30
FC
FC
30
30
30
30
ENDCHAR
STARTCHAR uni0069
ENCODING 617
SWIDTH 460 0
DWIDTH 10 0
BBX 6 12 4 -2
BITMAP
F0
F0
30
30
30
30
30
30
30
30
0C
0C
ENDCHAR
STARTCHAR uni0069
ENCODING 618
SWIDTH 460 0
DWIDTH 10 0
BBX 6 10 2 0
BITMAP
FC
FC
30
30
30
30
30
30
FC
FC
ENDCHAR
STARTCHAR uni006C
ENCODING 619
SWIDTH 460 0
DWIDTH 10 0
BBX 10 14 2 0
BITMAP
3C00
3C00
0C00
0C00
0C00
0C00
3CC0
3CC0
CF00
CF00
0C00
0C00
0C00
0C00
ENDCHAR
STARTCHAR uni006C
ENCODING 620
SWIDTH 460 0
DWIDTH 10 0
BBX 8 14 2 0
BITMAP
3C
3C
0C
0C
3C
3C
CC
CC
3F
3F
0C
0C
0C
0C
ENDCHAR
STARTCHAR uni006C
ENCODING 621
SWIDTH 460 0
DWIDTH 10 0
BBX 6 16 4 -2
BITMAP
F0
F0
30
30
30
30
30
30
30
30
30
30
30
30
0C
0C
ENDCHAR
STARTCHAR LATIN
ENCODING 622
SWIDTH 460 0
DWIDTH 10 0
BBX 10 16 0 -2
BITMAP
C000
C000
FFC0
FFC0
C0C0
C0C0
C300
C300
CF00
CF00
C0C0
C0C0
30C0
30C0
0F00
0F00
ENDCHAR
STARTCHAR uni006D
ENCODING 623
SWIDTH 460 0
DWIDTH 10 0
BBX 8 10 2 0
BITMAP
C3
C3
C3
C3
C3
C3
FF
FF
C3
C3
ENDCHAR
STARTCHAR uni006D
ENCODING 624
SWIDTH 460 0
DWIDTH 10 0
BBX 8 12 2 -2
BITMAP
C3
C3
C3
C3
C3
C3
FF
FF
C3
C3
03
03
ENDCHAR
STARTCHAR uni006D
ENCODING 625
SWIDTH 460 0
DWIDTH 10 0
BBX 8 12 2 -2
BITMAP
C3
C3
FF
FF
CF
CF
C3
C3
C3
C3
0C
0C
ENDCHAR
STARTCHAR uni006E
ENCODING 626
SWIDTH 460 0
DWIDTH 10 0
BBX 10 12 0 -2
BITMAP
3F00
3F00
30C0
30C0
30C0
30C0
30C0
30C0
30C0
30C0
C000
C000
ENDCHAR
STARTCHAR uni006E
ENCODING 627
SWIDTH 460 0
DWIDTH 10 0
BBX 10 12 2 -2
BITMAP
FC00
FC00
C300
C300
C300
C300
C300
C300
C300
C300
00C0
00C0
ENDCHAR
STARTCHAR GREEK
ENCODING 628
SWIDTH 460 0
DWIDTH 10 0
BBX 8 10 2 0
BITMAP
C3
C3
F3
F3
CF
CF
C3
C3
C3
C3
ENDCHAR
STARTCHAR LATIN
ENCODING 629
SWIDTH 460 0
DWIDTH 10 0
BBX 8 10 2 0
BITMAP
3C
3C
C3
C3
FF
FF
C3
C3
3C
3C
ENDCHAR
STARTCHAR char230
ENCODING 630
SWIDTH 460 0
DWIDTH 10 0
BBX 12 10 2 0
BITMAP
3FC0
3FC0
C330
C330
C3F0
C3F0
C300
C300
3FF0
3FF0
ENDCHAR
STARTCHAR GREEK
ENCODING 631
SWIDTH 460 0
DWIDTH 10 0
BBX 10 10 0 0
BITMAP
3F00
3F00
C0C0
C0C0
C0C0
C0C0
CCC0
CCC0
F3C0
F3C0
ENDCHAR
STARTCHAR GREEK
ENCODING 632
SWIDTH 460 0
DWIDTH 10 0
BBX 10 14 0 0
BITMAP
0C00
0C00
3F00
3F00
CCC0
CCC0
CCC0
CCC0
CCC0
CCC0
3F00
3F00
0C00
0C00
ENDCHAR
STARTCHAR uni0072
ENCODING 633
SWIDTH 460 0
DWIDTH 10 0
BBX 8 10 2 0
BITMAP
03
03
03
03
03
03
0F
0F
F3
F3
ENDCHAR
STARTCHAR uni0072
ENCODING 634
SWIDTH 460 0
DWIDTH 10 0
BBX 8 12 2 0
BITMAP
03
03
03
03
03
03
03
03
0F
0F
F3
F3
ENDCHAR
STARTCHAR uni0072
ENCODING 635
SWIDTH 460 0
DWIDTH 10 0
BBX 10 12 2 -2
BITMAP
0300
0300
0300
0300
0300
0300
0F00
0F00
F300
F300
00C0
00C0
ENDCHAR
STARTCHAR uni0072
ENCODING 636
SWIDTH 460 0
DWIDTH 10 0
BBX 8 12 2 0
BITMAP
CF
CF
F0
F0
C0
C0
C0
C0
C0
C0
C0
C0
ENDCHAR
STARTCHAR uni0072
ENCODING 637
SWIDTH 460 0
DWIDTH 10 0
BBX 8 14 2 -2
BITMAP
CF
CF
F0
F0
C0
C0
C0
C0
C0
C0
C0
C0
30
30
ENDCHAR
STARTCHAR uni0072
ENCODING 638
SWIDTH 460 0
DWIDTH 10 0
BBX 8 10 2 0
BITMAP
3C
3C
C3
C3
C0
C0
C0
C0
C0
C0
ENDCHAR
STARTCHAR uni0072
ENCODING 639
SWIDTH 460 0
DWIDTH 10 0
BBX 8 10 2 0
BITMAP
3C
3C
C3
C3
03
03
03
03
03
03
ENDCHAR
STARTCHAR char1071
ENCODING 640
SWIDTH 460 0
DWIDTH 10 0
BBX 8 12 2 0
BITMAP
3F
3F
C3
C3
C3
C3
3F
3F
C3
C3
C3
C3
ENDCHAR
STARTCHAR char1071
ENCODING 641
SWIDTH 460 0
DWIDTH 10 0
BBX 8 12 2 0
BITMAP
C3
C3
C3
C3
FC
FC
C3
C3
C3
C3
FC
FC
ENDCHAR
STARTCHAR uni0073
ENCODING 642
SWIDTH 460 0
DWIDTH 10 0
BBX 8 14 2 -4
BITMAP
3F
3F
C0
C0
3C
3C
03
03
FC
FC
C0
C0
30
30
ENDCHAR
STARTCHAR uni0066
ENCODING 643
SWIDTH 460 0
DWIDTH 10 0
BBX 10 16 0 -2
BITMAP
03C0
03C0
0C00
0C00
0C00
0C00
0C00
0C00
0C00
0C00
0C00
0C00
0C00
0C00
F000
F000
ENDCHAR
STARTCHAR uni0066
ENCODING 644
SWIDTH 460 0
DWIDTH 10 0
BBX 10 16 0 -2
BITMAP
03C0
03C0
0C00
0C00
0C00
0C00
3F00
3F00
0C00
0C00
0C00
0C00
0C00
0C00
F000
F000
ENDCHAR
STARTCHAR uni0066
ENCODING 645
SWIDTH 460 0
DWIDTH 10 0
BBX 6 14 2 -2
BITMAP
C0
C0
30
30
30
30
30
30
30
30
30
30
0C
0C
ENDCHAR
STARTCHAR uni0066
ENCODING 646
SWIDTH 460 0
DWIDTH 10 0
BBX 10 16 0 -2
BITMAP
0300
0300
0C00
0C00
0C00
0C00
0C00
0C00
0C00
0C00
3C00
3C00
CF00
CF00
30C0
30C0
ENDCHAR
STARTCHAR uni0066
ENCODING 647
SWIDTH 460 0
DWIDTH 10 0
BBX 8 14 2 0
BITMAP
F0
F0
0C
0C
0C
0C
3F
3F
0C
0C
0C
0C
0C
0C
ENDCHAR
STARTCHAR uni0075
ENCODING 648
SWIDTH 460 0
DWIDTH 10 0
BBX 8 10 2 0
BITMAP
C3
C3
FF
FF
C3
C3
C3
C3
3F
3F
ENDCHAR
STARTCHAR uni0075
ENCODING 649
SWIDTH 460 0
DWIDTH 10 0
BBX 8 10 2 0
BITMAP
C3
C3
3C
3C
C3
C3
C3
C3
3F
3F
ENDCHAR
STARTCHAR uni0076
ENCODING 650
SWIDTH 460 0
DWIDTH 10 0
BBX 8 10 2 0
BITMAP
CC
CC
C3
C3
C3
C3
3C
3C
3C
3C
ENDCHAR
STARTCHAR uni0076
ENCODING 651
SWIDTH 460 0
DWIDTH 10 0
BBX 8 10 2 0
BITMAP
3C
3C
3C
3C
C3
C3
C3
C3
C3
C3
ENDCHAR
STARTCHAR uni0076
ENCODING 652
SWIDTH 460 0
DWIDTH 10 0
BBX 12 10 0 0
BITMAP
0F00
0F00
0F00
0F00
30C0
30C0
30C0
30C0
C030
C030
ENDCHAR
STARTCHAR uni006D
ENCODING 653
SWIDTH 460 0
DWIDTH 10 0
BBX 8 10 2 0
BITMAP
C3
C3
FF
FF
CF
CF
C3
C3
C3
C3
ENDCHAR
STARTCHAR uni0079
ENCODING 654
SWIDTH 460 0
DWIDTH 10 0
BBX 8 14 2 -4
BITMAP
3C
3C
C0
C0
FC
FC
C3
C3
C3
C3
C3
C3
C3
C3
ENDCHAR
STARTCHAR uni0059
ENCODING 655
SWIDTH 460 0
DWIDTH 10 0
BBX 10 8 0 0
BITMAP
C0C0
C0C0
3300
3300
0C00
0C00
0C00
0C00
ENDCHAR
STARTCHAR uni007A
ENCODING 656
SWIDTH 460 0
DWIDTH 10 0
BBX 8 14 2 -4
BITMAP
FF
FF
0C
0C
30
30
C0
C0
FF
FF
03
03
0C
0C
ENDCHAR
STARTCHAR uni007A
ENCODING 657
SWIDTH 460 0
DWIDTH 10 0
BBX 8 12 2 -2
BITMAP
FF
FF
0C
0C
30
30
CC
CC
FF
FF
0C
0C
ENDCHAR
STARTCHAR uni007A
ENCODING 658
SWIDTH 460 0
DWIDTH 10 0
BBX 8 14 2 -4
BITMAP
FF
FF
0C
0C
30
30
0C
0C
03
03
C3
C3
3C
3C
ENDCHAR
STARTCHAR uni007A
ENCODING 659
SWIDTH 460 0
DWIDTH 10 0
BBX 8 14 2 -4
BITMAP
FF
FF
0C
0C
30
30
0C
0C
33
33
CF
CF
3C
3C
ENDCHAR
STARTCHAR LATIN
ENCODING 660
SWIDTH 460 0
DWIDTH 10 0
BBX 10 14 0 0
BITMAP
3F00
3F00
C0C0
C0C0
00C0
00C0
0300
0300
0C00
0C00
0C00
0C00
0C00
0C00
ENDCHAR
STARTCHAR LATIN
ENCODING 661
SWIDTH 460 0
DWIDTH 10 0
BBX 10 14 0 0
BITMAP
3F00
3F00
C0C0
C0C0
C000
C000
3000
3000
0C00
0C00
0C00
0C00
0C00
0C00
ENDCHAR
STARTCHAR LATIN
ENCODING 662
SWIDTH 460 0
DWIDTH 10 0
BBX 10 14 0 0
BITMAP
0C00
0C00
0C00
0C00
0C00
0C00
0300
0300
00C0
00C0
C0C0
C0C0
3F00
3F00
ENDCHAR
STARTCHAR uni0043
ENCODING 663
SWIDTH 460 0
DWIDTH 10 0
BBX 8 14 2 -2
BITMAP
3F
3F
C0
C0
C0
C0
C0
C0
C0
C0
C0
C0
3F
3F
ENDCHAR
STARTCHAR LATIN
ENCODING 664
SWIDTH 460 0
DWIDTH 10 0
BBX 10 10 0 0
BITMAP
3F00
3F00
C0C0
C0C0
CCC0
CCC0
C0C0
C0C0
3F00
3F00
ENDCHAR
STARTCHAR LATIN
ENCODING 665
SWIDTH 460 0
DWIDTH 10 0
BBX 8 10 2 0
BITMAP
FC
FC
C3
C3
FC
FC
C3
C3
FC
FC
ENDCHAR
STARTCHAR LATIN
ENCODING 666
SWIDTH 460 0
DWIDTH 10 0
BBX 8 10 2 0
BITMAP
3C
3C
C3
C3
3F
3F
C3
C3
3C
3C
ENDCHAR
STARTCHAR uni0047
ENCODING 667
SWIDTH 460 0
DWIDTH 10 0
BBX 10 12 2 0
BITMAP
00C0
00C0
3F00
3F00
C000
C000
CF00
CF00
C300
C300
3F00
3F00
ENDCHAR
STARTCHAR uni0048
ENCODING 668
SWIDTH 460 0
DWIDTH 10 0
BBX 8 10 2 0
BITMAP
C3
C3
C3
C3
FF
FF
C3
C3
C3
C3
ENDCHAR
STARTCHAR uni006A
ENCODING 669
SWIDTH 460 0
DWIDTH 10 0
BBX 8 18 2 -4
BITMAP
0C
0C
00
00
3C
3C
0C
0C
0C
0C
0C
0C
3F
3F
CC
CC
F0
F0
ENDCHAR
STARTCHAR uni006B
ENCODING 670
SWIDTH 460 0
DWIDTH 10 0
BBX 8 14 2 0
BITMAP
C3
C3
C3
C3
3F
3F
33
33
C3
C3
03
03
03
03
ENDCHAR
STARTCHAR LATIN
ENCODING 671
SWIDTH 460 0
DWIDTH 10 0
BBX 8 10 2 0
BITMAP
C0
C0
C0
C0
C0
C0
C0
C0
FF
FF
ENDCHAR
STARTCHAR uni0071
ENCODING 672
SWIDTH 460 0
DWIDTH 10 0
BBX 10 16 2 -4
BITMAP
00C0
00C0
3F00
3F00
C300
C300
C300
C300
C300
C300
3F00
3F00
0300
0300
0300
0300
ENDCHAR
STARTCHAR LATIN
ENCODING 673
SWIDTH 460 0
DWIDTH 10 0
BBX 10 14 0 0
BITMAP
3F00
3F00
C0C0
C0C0
00C0
00C0
0300
0300
0C00
0C00
3F00
3F00
0C00
0C00
ENDCHAR
STARTCHAR LATIN
ENCODING 674
SWIDTH 460 0
DWIDTH 10 0
BBX 10 14 0 0
BITMAP
3F00
3F00
C0C0
C0C0
C000
C000
3000
3000
0C00
0C00
3F00
3F00
0C00
0C00
ENDCHAR
STARTCHAR LATIN
ENCODING 675
SWIDTH 460 0
DWIDTH 10 0
BBX 12 14 0 0
BITMAP
0C00
0C00
0C00
0C00
3FF0
3FF0
CC30
CC30
CCC0
CCC0
CF00
CF00
3FF0
3FF0
ENDCHAR
STARTCHAR LATIN
ENCODING 676
SWIDTH 460 0
DWIDTH 10 0
BBX 12 16 0 -2
BITMAP
0C00
0C00
0C00
0C00
3FF0
3FF0
CC30
CC30
CCC0
CCC0
CC30
CC30
3F30
3F30
00C0
00C0
ENDCHAR
STARTCHAR LATIN
ENCODING 677
SWIDTH 460 0
DWIDTH 10 0
BBX 12 16 0 -2
BITMAP
0C00
0C00
0C00
0C00
3FF0
3FF0
CC30
CC30
CCC0
CCC0
CF30
CF30
3FF0
3FF0
0300
0300
ENDCHAR
STARTCHAR LATIN
ENCODING 678
SWIDTH 460 0
DWIDTH 10 0
BBX 12 12 0 0
BITMAP
3000
3000
FFF0
FFF0
3C00
3C00
33C0
33C0
3030
3030
0FC0
0FC0
ENDCHAR
STARTCHAR LATIN
ENCODING 679
SWIDTH 460 0
DWIDTH 10 0
BBX 10 18 0 -4
BITMAP
00C0
00C0
3300
3300
FF00
FF00
3300
3300
3300
3300
3300
3300
0F00
0F00
0300
0300
0C00
0C00
ENDCHAR
STARTCHAR LATIN
ENCODING 680
SWIDTH 460 0
DWIDTH 10 0
BBX 12 14 0 -2
BITMAP
3000
3000
FCF0
FCF0
3300
3300
33C0
33C0
3330
3330
0FF0
0FF0
0300
0300
ENDCHAR
STARTCHAR LATIN
ENCODING 681
SWIDTH 460 0
DWIDTH 10 0
BBX 12 18 0 -4
BITMAP
0C00
0C00
3000
3000
3000
3000
FFC0
FFC0
3330
3330
3330
3330
3330
3330
00C0
00C0
0300
0300
ENDCHAR
STARTCHAR LATIN
ENCODING 682
SWIDTH 460 0
DWIDTH 10 0
BBX 10 14 0 0
BITMAP
C000
C000
C000
C000
CFC0
CFC0
F000
F000
CF00
CF00
C0C0
C0C0
FF00
FF00
ENDCHAR
STARTCHAR LATIN
ENCODING 683
SWIDTH 460 0
DWIDTH 10 0
BBX 10 14 0 0
BITMAP
C000
C000
C000
C000
FFC0
FFC0
C300
C300
CC00
CC00
F000
F000
FFC0
FFC0
ENDCHAR
STARTCHAR LATIN
ENCODING 684
SWIDTH 460 0
DWIDTH 10 0
BBX 10 12 0 0
BITMAP
CCC0
CCC0
CCC0
CCC0
3300
3300
CCC0
CCC0
CCC0
CCC0
3300
3300
ENDCHAR
STARTCHAR LATIN
ENCODING 685
SWIDTH 460 0
DWIDTH 10 0
BBX 10 10 0 0
BITMAP
FFC0
FFC0
C0C0
C0C0
0000
0000
FFC0
FFC0
C0C0
C0C0
ENDCHAR
STARTCHAR uni0068
ENCODING 686
SWIDTH 460 0
DWIDTH 10 0
BBX 10 14 0 0
BITMAP
C0C0
C0C0
30C0
30C0
30C0
30C0
30C0
30C0
0FC0
0FC0
00C0
00C0
00C0
00C0
ENDCHAR
STARTCHAR uni0068
ENCODING 687
SWIDTH 460 0
DWIDTH 10 0
BBX 12 16 0 -2
BITMAP
C0C0
C0C0
30C0
30C0
30C0
30C0
30C0
30C0
0FC0
0FC0
00C0
00C0
00C0
00C0
0030
0030
ENDCHAR
STARTCHAR uni003C
ENCODING 706
SWIDTH 460 0
DWIDTH 10 0
BBX 6 10 2 0
BITMAP
0C
0C
30
30
C0
C0
30
30
0C
0C
ENDCHAR
STARTCHAR uni003C
ENCODING 707
SWIDTH 460 0
DWIDTH 10 0
BBX 6 10 2 0
BITMAP
C0
C0
30
30
0C
0C
30
30
C0
C0
ENDCHAR
STARTCHAR uni005E
ENCODING 708
SWIDTH 460 0
DWIDTH 10 0
BBX 10 6 0 4
BITMAP
C0C0
C0C0
3300
3300
0C00
0C00
ENDCHAR
STARTCHAR uni005E
ENCODING 709
SWIDTH 460 0
DWIDTH 10 0
BBX 10 6 0 4
BITMAP
0C00
0C00
3300
3300
C0C0
C0C0
ENDCHAR
STARTCHAR MODIFIER
ENCODING 710
SWIDTH 460 0
DWIDTH 10 0
BBX 10 6 0 10
BITMAP
0C00
0C00
3300
3300
C0C0
C0C0
ENDCHAR
STARTCHAR CARON
ENCODING 711
SWIDTH 460 0
DWIDTH 10 0
BBX 10 6 0 12
BITMAP
C0C0
C0C0
3300
3300
0C00
0C00
ENDCHAR
STARTCHAR MODIFIER
ENCODING 712
SWIDTH 460 0
DWIDTH 10 0
BBX 2 4 4 10
BITMAP
C0
C0
C0
C0
ENDCHAR
STARTCHAR MODIFIER
ENCODING 713
SWIDTH 460 0
DWIDTH 10 0
BBX 4 2 2 12
BITMAP
F0
F0
ENDCHAR
STARTCHAR MODIFIER
ENCODING 714
SWIDTH 460 0
DWIDTH 10 0
BBX 4 4 4 10
BITMAP
30
30
C0
C0
ENDCHAR
STARTCHAR MODIFIER
ENCODING 715
SWIDTH 460 0
DWIDTH 10 0
BBX 4 4 4 10
BITMAP
C0
C0
30
30
ENDCHAR
STARTCHAR BREVE
ENCODING 728
SWIDTH 460 0
DWIDTH 10 0
BBX 10 4 2 12
BITMAP
C0C0
C0C0
3F00
3F00
ENDCHAR
STARTCHAR DOT
ENCODING 729
SWIDTH 460 0
DWIDTH 10 0
BBX 4 4 4 14
BITMAP
F0
F0
F0
F0
ENDCHAR
STARTCHAR RING
ENCODING 730
SWIDTH 460 0
DWIDTH 10 0
BBX 6 6 2 10
BITMAP
30
30
CC
CC
30
30
ENDCHAR
STARTCHAR OGONEK
ENCODING 731
SWIDTH 460 0
DWIDTH 10 0
BBX 4 6 4 -4
BITMAP
30
30
C0
C0
30
30
ENDCHAR
STARTCHAR SMALL
ENCODING 732
SWIDTH 460 0
DWIDTH 10 0
BBX 10 4 0 12
BITMAP
3CC0
3CC0
CF00
CF00
ENDCHAR
STARTCHAR DOUBLE
ENCODING 733
SWIDTH 460 0
DWIDTH 10 0
BBX 8 6 2 12
BITMAP
33
33
33
33
CC
CC
ENDCHAR
STARTCHAR MODIFIER
ENCODING 750
SWIDTH 460 0
DWIDTH 10 0
BBX 8 6 2 8
BITMAP
C3
C3
C3
C3
C3
C3
ENDCHAR
STARTCHAR COMBINING
ENCODING 835
SWIDTH 460 0
DWIDTH 10 0
BBX 4 8 2 6
BITMAP
30
30
30
30
30
30
C0
C0
ENDCHAR
STARTCHAR COMBINING
ENCODING 860
SWIDTH 460 0
DWIDTH 10 0
BBX 10 4 0 -2
BITMAP
C0C0
C0C0
3F00
3F00
ENDCHAR
STARTCHAR COMBINING
ENCODING 865
SWIDTH 460 0
DWIDTH 10 0
BBX 10 4 0 14
BITMAP
3F00
3F00
C0C0
C0C0
ENDCHAR
STARTCHAR GREEK
ENCODING 880
SWIDTH 460 0
DWIDTH 10 0
BBX 8 14 0 0
BITMAP
C0
C0
C0
C0
C0
C0
FF
FF
C0
C0
C0
C0
C0
C0
ENDCHAR
STARTCHAR GREEK
ENCODING 881
SWIDTH 460 0
DWIDTH 10 0
BBX 10 12 0 0
BITMAP
C000
C000
3000
3000
3000
3000
3FC0
3FC0
3000
3000
3000
3000
ENDCHAR
STARTCHAR GREEK
ENCODING 882
SWIDTH 460 0
DWIDTH 10 0
BBX 10 12 0 0
BITMAP
FFC0
FFC0
CCC0
CCC0
0C00
0C00
0C00
0C00
0C00
0C00
0C00
0C00
ENDCHAR
STARTCHAR GREEK
ENCODING 883
SWIDTH 460 0
DWIDTH 10 0
BBX 10 10 0 0
BITMAP
FFC0
FFC0
CCC0
CCC0
0C00
0C00
0C00
0C00
0C00
0C00
ENDCHAR
STARTCHAR GREEK
ENCODING 884
SWIDTH 460 0
DWIDTH 10 0
BBX 6 4 2 12
BITMAP
3C
3C
F0
F0
ENDCHAR
STARTCHAR GREEK
ENCODING 885
SWIDTH 460 0
DWIDTH 10 0
BBX 8 6 0 -2
BITMAP
0F
0F
3C
3C
F0
F0
ENDCHAR
STARTCHAR uni004E
ENCODING 886
SWIDTH 460 0
DWIDTH 10 0
BBX 8 12 2 0
BITMAP
C3
C3
CF
CF
CF
CF
F3
F3
F3
F3
C3
C3
ENDCHAR
STARTCHAR GREEK
ENCODING 887
SWIDTH 460 0
DWIDTH 10 0
BBX 10 12 2 -2
BITMAP
C300
C300
CF00
CF00
F300
F300
C300
C300
C300
C300
00C0
00C0
ENDCHAR
STARTCHAR GREEK
ENCODING 890
SWIDTH 460 0
DWIDTH 10 0
BBX 4 4 2 -4
BITMAP
C0
C0
F0
F0
ENDCHAR
STARTCHAR GREEK
ENCODING 891
SWIDTH 460 0
DWIDTH 10 0
BBX 10 10 0 0
BITMAP
3F00
3F00
C0C0
C0C0
00C0
00C0
C0C0
C0C0
3F00
3F00
ENDCHAR
STARTCHAR GREEK
ENCODING 892
SWIDTH 460 0
DWIDTH 10 0
BBX 10 10 0 0
BITMAP
3F00
3F00
C0C0
C0C0
CC00
CC00
C0C0
C0C0
3F00
3F00
ENDCHAR
STARTCHAR GREEK
ENCODING 893
SWIDTH 460 0
DWIDTH 10 0
BBX 10 10 0 0
BITMAP
3F00
3F00
C0C0
C0C0
0CC0
0CC0
C0C0
C0C0
3F00
3F00
ENDCHAR
STARTCHAR uni003B
ENCODING 894
SWIDTH 460 0
DWIDTH 10 0
BBX 4 12 2 -2
BITMAP
30
30
30
30
00
00
30
30
30
30
C0
C0
ENDCHAR
STARTCHAR uni037F
ENCODING 895
SWIDTH 460 0
DWIDTH 10 0
BBX 12 6 0 2
BITMAP
FFF0
FFF0
FFF0
FFF0
FFF0
FFF0
ENDCHAR
STARTCHAR uni037F
ENCODING 896
SWIDTH 460 0
DWIDTH 10 0
BBX 10 6 0 0
BITMAP
FFC0
FFC0
FFC0
FFC0
FFC0
FFC0
ENDCHAR
STARTCHAR uni0380
ENCODING 897
SWIDTH 460 0
DWIDTH 10 0
BBX 10 6 0 0
BITMAP
CCC0
CCC0
3300
3300
CCC0
CCC0
ENDCHAR
STARTCHAR GREEK
ENCODING 900
SWIDTH 460 0
DWIDTH 10 0
BBX 4 6 4 10
BITMAP
30
30
F0
F0
C0
C0
ENDCHAR
STARTCHAR GREEK
ENCODING 901
SWIDTH 460 0
DWIDTH 10 0
BBX 12 6 0 10
BITMAP
0300
0300
CF30
CF30
0C00
0C00
ENDCHAR
STARTCHAR GREEK
ENCODING 902
SWIDTH 460 0
DWIDTH 10 0
BBX 8 18 2 0
BITMAP
0C
0C
30
30
00
00
3C
3C
C3
C3
C3
C3
FF
FF
C3
C3
C3
C3
ENDCHAR
STARTCHAR GREEK
ENCODING 903
SWIDTH 460 0
DWIDTH 10 0
BBX 4 4 4 6
BITMAP
F0
F0
F0
F0
ENDCHAR
STARTCHAR char201
ENCODING 904
SWIDTH 460 0
DWIDTH 10 0
BBX 8 16 2 0
BITMAP
0C
0C
30
30
FF
FF
C0
C0
FC
FC
C0
C0
C0
C0
FF
FF
ENDCHAR
STARTCHAR GREEK
ENCODING 905
SWIDTH 460 0
DWIDTH 10 0
BBX 10 14 0 0
BITMAP
0C00
0C00
30C0
30C0
F0C0
F0C0
3FC0
3FC0
30C0
30C0
30C0
30C0
30C0
30C0
ENDCHAR
STARTCHAR GREEK
ENCODING 906
SWIDTH 460 0
DWIDTH 10 0
BBX 8 14 0 0
BITMAP
0C
0C
3F
3F
CC
CC
0C
0C
0C
0C
0C
0C
3F
3F
ENDCHAR
STARTCHAR GREEK
ENCODING 908
SWIDTH 460 0
DWIDTH 10 0
BBX 10 16 0 0
BITMAP
3000
3000
C000
C000
0F00
0F00
30C0
30C0
30C0
30C0
30C0
30C0
30C0
30C0
0F00
0F00
ENDCHAR
STARTCHAR GREEK
ENCODING 910
SWIDTH 460 0
DWIDTH 10 0
BBX 10 14 0 0
BITMAP
3000
3000
CCC0
CCC0
0CC0
0CC0
0CC0
0CC0
0300
0300
0300
0300
0300
0300
ENDCHAR
STARTCHAR GREEK
ENCODING 911
SWIDTH 460 0
DWIDTH 10 0
BBX 10 16 0 0
BITMAP
3000
3000
C000
C000
3F00
3F00
C0C0
C0C0
C0C0
C0C0
C0C0
C0C0
3300
3300
F3C0
F3C0
ENDCHAR
STARTCHAR GREEK
ENCODING 912
SWIDTH 460 0
DWIDTH 10 0
BBX 12 18 0 0
BITMAP
0300
0300
CF30
CF30
0C00
0C00
0000
0000
0C00
0C00
0C00
0C00
0C00
0C00
0C00
0C00
0C00
0C00
ENDCHAR
STARTCHAR GREEK
ENCODING 913
SWIDTH 460 0
DWIDTH 10 0
BBX 8 12 2 0
BITMAP
3C
3C
C3
C3
C3
C3
FF
FF
C3
C3
C3
C3
ENDCHAR
STARTCHAR uni0042
ENCODING 914
SWIDTH 460 0
DWIDTH 10 0
BBX 8 12 2 0
BITMAP
FC
FC
C3
C3
FC
FC
C3
C3
C3
C3
FC
FC
ENDCHAR
STARTCHAR GREEK
ENCODING 915
SWIDTH 460 0
DWIDTH 10 0
BBX 8 10 2 0
BITMAP
FF
FF
C0
C0
C0
C0
C0
C0
C0
C0
ENDCHAR
STARTCHAR GREEK
ENCODING 916
SWIDTH 460 0
DWIDTH 10 0
BBX 10 12 0 0
BITMAP
0C00
0C00
0C00
0C00
3300
3300
3300
3300
C0C0
C0C0
FFC0
FFC0
ENDCHAR
STARTCHAR uni0045
ENCODING 917
SWIDTH 460 0
DWIDTH 10 0
BBX 8 12 2 0
BITMAP
FF
FF
C0
C0
FC
FC
C0
C0
C0
C0
FF
FF
ENDCHAR
STARTCHAR uni005A
ENCODING 918
SWIDTH 460 0
DWIDTH 10 0
BBX 8 12 2 0
BITMAP
FF
FF
03
03
0C
0C
30
30
C0
C0
FF
FF
ENDCHAR
STARTCHAR uni0048
ENCODING 919
SWIDTH 460 0
DWIDTH 10 0
BBX 8 12 2 0
BITMAP
C3
C3
C3
C3
FF
FF
C3
C3
C3
C3
C3
C3
ENDCHAR
STARTCHAR GREEK
ENCODING 920
SWIDTH 460 0
DWIDTH 10 0
BBX 8 12 2 0
BITMAP
3C
3C
C3
C3
CF
CF
F3
F3
C3
C3
3C
3C
ENDCHAR
STARTCHAR GREEK
ENCODING 921
SWIDTH 460 0
DWIDTH 10 0
BBX 6 12 2 0
BITMAP
FC
FC
30
30
30
30
30
30
30
30
FC
FC
ENDCHAR
STARTCHAR uni004B
ENCODING 922
SWIDTH 460 0
DWIDTH 10 0
BBX 8 12 2 0
BITMAP
C3
C3
CC
CC
F0
F0
CC
CC
C3
C3
C3
C3
ENDCHAR
STARTCHAR GREEK
ENCODING 923
SWIDTH 460 0
DWIDTH 10 0
BBX 10 12 0 0
BITMAP
0C00
0C00
0C00
0C00
3300
3300
3300
3300
C0C0
C0C0
C0C0
C0C0
ENDCHAR
STARTCHAR uni004D
ENCODING 924
SWIDTH 460 0
DWIDTH 10 0
BBX 8 12 2 0
BITMAP
C3
C3
FF
FF
CF
CF
C3
C3
C3
C3
C3
C3
ENDCHAR
STARTCHAR uni004E
ENCODING 925
SWIDTH 460 0
DWIDTH 10 0
BBX 8 12 2 0
BITMAP
C3
C3
F3
F3
F3
F3
CF
CF
CF
CF
C3
C3
ENDCHAR
STARTCHAR GREEK
ENCODING 926
SWIDTH 460 0
DWIDTH 10 0
BBX 10 10 0 0
BITMAP
FFC0
FFC0
0000
0000
3F00
3F00
0000
0000
FFC0
FFC0
ENDCHAR
STARTCHAR GREEK
ENCODING 927
SWIDTH 460 0
DWIDTH 10 0
BBX 8 12 2 0
BITMAP
3C
3C
C3
C3
C3
C3
C3
C3
C3
C3
3C
3C
ENDCHAR
STARTCHAR char1055
ENCODING 928
SWIDTH 460 0
DWIDTH 10 0
BBX 8 12 2 0
BITMAP
FF
FF
C3
C3
C3
C3
C3
C3
C3
C3
C3
C3
ENDCHAR
STARTCHAR uni0050
ENCODING 929
SWIDTH 460 0
DWIDTH 10 0
BBX 8 12 2 0
BITMAP
FC
FC
C3
C3
C3
C3
FC
FC
C0
C0
C0
C0
ENDCHAR
STARTCHAR GREEK
ENCODING 931
SWIDTH 460 0
DWIDTH 10 0
BBX 10 12 0 0
BITMAP
FFC0
FFC0
3000
3000
0C00
0C00
3000
3000
C000
C000
FFC0
FFC0
ENDCHAR
STARTCHAR GREEK
ENCODING 932
SWIDTH 460 0
DWIDTH 10 0
BBX 10 12 0 0
BITMAP
FFC0
FFC0
0C00
0C00
0C00
0C00
0C00
0C00
0C00
0C00
0C00
0C00
ENDCHAR
STARTCHAR uni0059
ENCODING 933
SWIDTH 460 0
DWIDTH 10 0
BBX 10 12 0 0
BITMAP
C0C0
C0C0
C0C0
C0C0
3300
3300
0C00
0C00
0C00
0C00
0C00
0C00
ENDCHAR
STARTCHAR GREEK
ENCODING 934
SWIDTH 460 0
DWIDTH 10 0
BBX 10 14 0 0
BITMAP
0C00
0C00
3F00
3F00
CCC0
CCC0
CCC0
CCC0
CCC0
CCC0
3F00
3F00
0C00
0C00
ENDCHAR
STARTCHAR uni0058
ENCODING 935
SWIDTH 460 0
DWIDTH 10 0
BBX 8 12 2 0
BITMAP
C3
C3
C3
C3
3C
3C
C3
C3
C3
C3
C3
C3
ENDCHAR
STARTCHAR GREEK
ENCODING 936
SWIDTH 460 0
DWIDTH 10 0
BBX 10 12 0 0
BITMAP
CCC0
CCC0
CCC0
CCC0
CCC0
CCC0
3F00
3F00
0C00
0C00
0C00
0C00
ENDCHAR
STARTCHAR GREEK
ENCODING 937
SWIDTH 460 0
DWIDTH 10 0
BBX 10 12 0 0
BITMAP
3F00
3F00
C0C0
C0C0
C0C0
C0C0
C0C0
C0C0
3300
3300
F3C0
F3C0
ENDCHAR
STARTCHAR GREEK
ENCODING 938
SWIDTH 460 0
DWIDTH 10 0
BBX 6 16 2 0
BITMAP
CC
CC
00
00
30
30
30
30
30
30
30
30
30
30
30
30
ENDCHAR
STARTCHAR GREEK
ENCODING 939
SWIDTH 460 0
DWIDTH 10 0
BBX 10 16 0 0
BITMAP
3300
3300
0000
0000
C0C0
C0C0
C0C0
C0C0
3300
3300
0C00
0C00
0C00
0C00
0C00
0C00
ENDCHAR
STARTCHAR char225
ENCODING 940
SWIDTH 460 0
DWIDTH 10 0
BBX 8 16 2 0
BITMAP
0C
0C
30
30
00
00
3F
3F
C3
C3
C3
C3
CF
CF
33
33
ENDCHAR
STARTCHAR GREEK
ENCODING 941
SWIDTH 460 0
DWIDTH 10 0
BBX 8 16 0 0
BITMAP
0C
0C
30
30
00
00
3F
3F
C0
C0
FC
FC
C0
C0
3F
3F
ENDCHAR
STARTCHAR uni006E
ENCODING 942
SWIDTH 460 0
DWIDTH 10 0
BBX 8 18 2 -2
BITMAP
0C
0C
30
30
00
00
FC
FC
C3
C3
C3
C3
C3
C3
C3
C3
03
03
ENDCHAR
STARTCHAR GREEK
ENCODING 943
SWIDTH 460 0
DWIDTH 10 0
BBX 6 16 2 0
BITMAP
0C
0C
30
30
00
00
F0
F0
30
30
30
30
30
30
30
30
ENDCHAR
STARTCHAR GREEK
ENCODING 944
SWIDTH 460 0
DWIDTH 10 0
BBX 12 16 0 0
BITMAP
0300
0300
CF30
CF30
0C00
0C00
30C0
30C0
30C0
30C0
30C0
30C0
30C0
30C0
0FC0
0FC0
ENDCHAR
STARTCHAR uni0061
ENCODING 945
SWIDTH 460 0
DWIDTH 10 0
BBX 8 10 2 0
BITMAP
3F
3F
C3
C3
C3
C3
CF
CF
33
33
ENDCHAR
STARTCHAR char223
ENCODING 946
SWIDTH 460 0
DWIDTH 10 0
BBX 8 14 0 -2
BITMAP
3C
3C
C3
C3
CC
CC
C3
C3
C3
C3
CC
CC
C0
C0
ENDCHAR
STARTCHAR uni0076
ENCODING 947
SWIDTH 460 0
DWIDTH 10 0
BBX 8 14 2 -4
BITMAP
C3
C3
C3
C3
33
33
3C
3C
33
33
33
33
0C
0C
ENDCHAR
STARTCHAR GREEK
ENCODING 948
SWIDTH 460 0
DWIDTH 10 0
BBX 8 14 2 0
BITMAP
FF
FF
C0
C0
3C
3C
C3
C3
C3
C3
C3
C3
3C
3C
ENDCHAR
STARTCHAR GREEK
ENCODING 949
SWIDTH 460 0
DWIDTH 10 0
BBX 8 10 0 0
BITMAP
3F
3F
C0
C0
FC
FC
C0
C0
3F
3F
ENDCHAR
STARTCHAR GREEK
ENCODING 950
SWIDTH 460 0
DWIDTH 10 0
BBX 10 14 0 -2
BITMAP
FF00
FF00
0C00
0C00
3000
3000
C000
C000
C000
C000
3FC0
3FC0
0300
0300
ENDCHAR
STARTCHAR GREEK
ENCODING 951
SWIDTH 460 0
DWIDTH 10 0
BBX 8 12 2 -2
BITMAP
FC
FC
C3
C3
C3
C3
C3
C3
C3
C3
03
03
ENDCHAR
STARTCHAR GREEK
ENCODING 952
SWIDTH 460 0
DWIDTH 10 0
BBX 8 10 0 0
BITMAP
3C
3C
C3
C3
FF
FF
C3
C3
3C
3C
ENDCHAR
STARTCHAR GREEK
ENCODING 953
SWIDTH 460 0
DWIDTH 10 0
BBX 4 10 4 0
BITMAP
F0
F0
30
30
30
30
30
30
30
30
ENDCHAR
STARTCHAR uni006B
ENCODING 954
SWIDTH 460 0
DWIDTH 10 0
BBX 8 10 2 0
BITMAP
C3
C3
CC
CC
FC
FC
C3
C3
C3
C3
ENDCHAR
STARTCHAR GREEK
ENCODING 955
SWIDTH 460 0
DWIDTH 10 0
BBX 8 14 2 0
BITMAP
C0
C0
C0
C0
30
30
3C
3C
3C
3C
C3
C3
C3
C3
ENDCHAR
STARTCHAR uni0075
ENCODING 956
SWIDTH 460 0
DWIDTH 10 0
BBX 8 12 2 -2
BITMAP
C3
C3
C3
C3
C3
C3
C3
C3
FC
FC
C0
C0
ENDCHAR
STARTCHAR uni0076
ENCODING 957
SWIDTH 460 0
DWIDTH 10 0
BBX 8 10 2 0
BITMAP
C3
C3
C3
C3
C3
C3
3C
3C
3C
3C
ENDCHAR
STARTCHAR GREEK
ENCODING 958
SWIDTH 460 0
DWIDTH 10 0
BBX 8 16 0 -4
BITMAP
3C
3C
C3
C3
30
30
C0
C0
C0
C0
3C
3C
03
03
0C
0C
ENDCHAR
STARTCHAR GREEK
ENCODING 959
SWIDTH 460 0
DWIDTH 10 0
BBX 8 10 2 0
BITMAP
3C
3C
C3
C3
C3
C3
C3
C3
3C
3C
ENDCHAR
STARTCHAR uni0070
ENCODING 961
SWIDTH 460 0
DWIDTH 10 0
BBX 8 16 2 -6
BITMAP
3C
3C
C3
C3
C3
C3
C3
C3
FC
FC
C0
C0
C0
C0
C0
C0
ENDCHAR
STARTCHAR char231
ENCODING 962
SWIDTH 460 0
DWIDTH 10 0
BBX 8 14 2 -4
BITMAP
3F
3F
C0
C0
C0
C0
C0
C0
3F
3F
0C
0C
30
30
ENDCHAR
STARTCHAR char240
ENCODING 963
SWIDTH 460 0
DWIDTH 10 0
BBX 10 10 2 0
BITMAP
3FC0
3FC0
C300
C300
C300
C300
C300
C300
3C00
3C00
ENDCHAR
STARTCHAR GREEK
ENCODING 964
SWIDTH 460 0
DWIDTH 10 0
BBX 10 10 0 0
BITMAP
3FC0
3FC0
CC00
CC00
0C00
0C00
0C00
0C00
0300
0300
ENDCHAR
STARTCHAR uni0075
ENCODING 965
SWIDTH 460 0
DWIDTH 10 0
BBX 8 10 2 0
BITMAP
C3
C3
C3
C3
C3
C3
C3
C3
3F
3F
ENDCHAR
STARTCHAR GREEK
ENCODING 966
SWIDTH 460 0
DWIDTH 10 0
BBX 10 14 2 -4
BITMAP
CF00
CF00
CCC0
CCC0
CCC0
CCC0
CCC0
CCC0
3F00
3F00
0C00
0C00
0C00
0C00
ENDCHAR
STARTCHAR uni0078
ENCODING 967
SWIDTH 460 0
DWIDTH 10 0
BBX 8 10 2 0
BITMAP
C3
C3
C3
C3
3C
3C
C3
C3
C3
C3
ENDCHAR
STARTCHAR GREEK
ENCODING 968
SWIDTH 460 0
DWIDTH 10 0
BBX 10 14 2 -4
BITMAP
CCC0
CCC0
CCC0
CCC0
CCC0
CCC0
3F00
3F00
0C00
0C00
0C00
0C00
0C00
0C00
ENDCHAR
STARTCHAR GREEK
ENCODING 969
SWIDTH 460 0
DWIDTH 10 0
BBX 10 10 0 0
BITMAP
3300
3300
C0C0
C0C0
CCC0
CCC0
CCC0
CCC0
3300
3300
ENDCHAR
STARTCHAR GREEK
ENCODING 970
SWIDTH 460 0
DWIDTH 10 0
BBX 6 14 4 0
BITMAP
CC
CC
00
00
F0
F0
30
30
30
30
30
30
30
30
ENDCHAR
STARTCHAR char252
ENCODING 971
SWIDTH 460 0
DWIDTH 10 0
BBX 8 14 2 0
BITMAP
CC
CC
00
00
C3
C3
C3
C3
C3
C3
C3
C3
3F
3F
ENDCHAR
STARTCHAR char243
ENCODING 972
SWIDTH 460 0
DWIDTH 10 0
BBX 8 16 2 0
BITMAP
03
03
0C
0C
00
00
3C
3C
C3
C3
C3
C3
C3
C3
3C
3C
ENDCHAR
STARTCHAR char250
ENCODING 973
SWIDTH 460 0
DWIDTH 10 0
BBX 8 16 2 0
BITMAP
0C
0C
30
30
00
00
C3
C3
C3
C3
C3
C3
C3
C3
3F
3F
ENDCHAR
STARTCHAR GREEK
ENCODING 974
SWIDTH 460 0
DWIDTH 10 0
BBX 10 16 0 0
BITMAP
0C00
0C00
3000
3000
0000
0000
3300
3300
C0C0
C0C0
CCC0
CCC0
F3C0
F3C0
C0C0
C0C0
ENDCHAR
STARTCHAR uni004B
ENCODING 975
SWIDTH 460 0
DWIDTH 10 0
BBX 8 14 2 -2
BITMAP
C3
C3
CC
CC
F0
F0
CC
CC
C3
C3
C3
C3
0C
0C
ENDCHAR
STARTCHAR GREEK
ENCODING 976
SWIDTH 460 0
DWIDTH 10 0
BBX 8 12 0 0
BITMAP
3C
3C
C3
C3
FC
FC
C3
C3
C3
C3
3C
3C
ENDCHAR
STARTCHAR GREEK
ENCODING 977
SWIDTH 460 0
DWIDTH 10 0
BBX 12 12 0 0
BITMAP
0F00
0F00
30C0
30C0
33F0
33F0
FCC0
FCC0
30C0
30C0
0F00
0F00
ENDCHAR
STARTCHAR uni0059
ENCODING 978
SWIDTH 460 0
DWIDTH 10 0
BBX 12 12 0 0
BITMAP
C0C0
C0C0
C0F0
C0F0
3300
3300
0C00
0C00
0C00
0C00
0C00
0C00
ENDCHAR
STARTCHAR uni0059
ENCODING 979
SWIDTH 460 0
DWIDTH 10 0
BBX 12 14 0 0
BITMAP
3000
3000
C0C0
C0C0
C0F0
C0F0
3300
3300
0C00
0C00
0C00
0C00
0C00
0C00
ENDCHAR
STARTCHAR uni0059
ENCODING 980
SWIDTH 460 0
DWIDTH 10 0
BBX 12 16 0 0
BITMAP
3300
3300
0000
0000
C0C0
C0C0
C0F0
C0F0
3300
3300
0C00
0C00
0C00
0C00
0C00
0C00
ENDCHAR
STARTCHAR GREEK
ENCODING 981
SWIDTH 460 0
DWIDTH 10 0
BBX 10 18 0 -4
BITMAP
0C00
0C00
0C00
0C00
3F00
3F00
CCC0
CCC0
CCC0
CCC0
CCC0
CCC0
3F00
3F00
0C00
0C00
0C00
0C00
ENDCHAR
STARTCHAR GREEK
ENCODING 982
SWIDTH 460 0
DWIDTH 10 0
BBX 10 10 0 0
BITMAP
FFC0
FFC0
C0C0
C0C0
CCC0
CCC0
F3C0
F3C0
C0C0
C0C0
ENDCHAR
STARTCHAR uni0078
ENCODING 983
SWIDTH 460 0
DWIDTH 10 0
BBX 10 12 2 -2
BITMAP
C300
C300
C300
C300
3C00
3C00
C300
C300
C3C0
C3C0
0C00
0C00
ENDCHAR
STARTCHAR GREEK
ENCODING 984
SWIDTH 460 0
DWIDTH 10 0
BBX 10 16 0 -4
BITMAP
3F00
3F00
C0C0
C0C0
C0C0
C0C0
C0C0
C0C0
C0C0
C0C0
3F00
3F00
0C00
0C00
0C00
0C00
ENDCHAR
STARTCHAR GREEK
ENCODING 985
SWIDTH 460 0
DWIDTH 10 0
BBX 10 14 0 -4
BITMAP
3F00
3F00
C0C0
C0C0
C0C0
C0C0
C0C0
C0C0
3F00
3F00
0C00
0C00
0C00
0C00
ENDCHAR
STARTCHAR GREEK
ENCODING 986
SWIDTH 460 0
DWIDTH 10 0
BBX 10 16 2 -4
BITMAP
3F00
3F00
C000
C000
C000
C000
C000
C000
C000
C000
3F00
3F00
00C0
00C0
0F00
0F00
ENDCHAR
STARTCHAR GREEK
ENCODING 987
SWIDTH 460 0
DWIDTH 10 0
BBX 10 14 2 -4
BITMAP
3F00
3F00
C000
C000
C000
C000
C000
C000
3F00
3F00
00C0
00C0
0F00
0F00
ENDCHAR
STARTCHAR uni0046
ENCODING 988
SWIDTH 460 0
DWIDTH 10 0
BBX 8 12 2 0
BITMAP
FF
FF
C0
C0
FF
FF
C3
C3
C0
C0
C0
C0
ENDCHAR
STARTCHAR uni0046
ENCODING 989
SWIDTH 460 0
DWIDTH 10 0
BBX 8 12 2 -2
BITMAP
FF
FF
C0
C0
FC
FC
CC
CC
C0
C0
C0
C0
ENDCHAR
STARTCHAR GREEK
ENCODING 990
SWIDTH 460 0
DWIDTH 10 0
BBX 12 12 0 -2
BITMAP
C000
C000
30C0
30C0
33C0
33C0
3CC0
3CC0
30C0
30C0
0030
0030
ENDCHAR
STARTCHAR GREEK
ENCODING 991
SWIDTH 460 0
DWIDTH 10 0
BBX 6 14 0 -2
BITMAP
0C
0C
30
30
C0
C0
FC
FC
0C
0C
30
30
C0
C0
ENDCHAR
STARTCHAR GREEK
ENCODING 992
SWIDTH 460 0
DWIDTH 10 0
BBX 8 14 0 -2
BITMAP
30
30
0C
0C
3C
3C
C3
C3
0F
0F
33
33
03
03
ENDCHAR
STARTCHAR GREEK
ENCODING 993
SWIDTH 460 0
DWIDTH 10 0
BBX 8 14 0 -2
BITMAP
30
30
0C
0C
3C
3C
C3
C3
0F
0F
33
33
03
03
ENDCHAR
STARTCHAR COPTIC
ENCODING 994
SWIDTH 460 0
DWIDTH 10 0
BBX 10 14 2 -2
BITMAP
CCC0
CCC0
CCC0
CCC0
CCC0
CCC0
CCC0
CCC0
33C0
33C0
00C0
00C0
FF00
FF00
ENDCHAR
STARTCHAR COPTIC
ENCODING 995
SWIDTH 460 0
DWIDTH 10 0
BBX 10 14 2 -4
BITMAP
CCC0
CCC0
CCC0
CCC0
CCC0
CCC0
CCC0
CCC0
33C0
33C0
00C0
00C0
FF00
FF00
ENDCHAR
STARTCHAR COPTIC
ENCODING 996
SWIDTH 460 0
DWIDTH 10 0
BBX 8 14 0 0
BITMAP
33
33
C3
C3
C3
C3
3F
3F
03
03
03
03
03
03
ENDCHAR
STARTCHAR COPTIC
ENCODING 997
SWIDTH 460 0
DWIDTH 10 0
BBX 8 12 0 0
BITMAP
33
33
C3
C3
C3
C3
3F
3F
03
03
03
03
ENDCHAR
STARTCHAR COPTIC
ENCODING 998
SWIDTH 460 0
DWIDTH 10 0
BBX 8 18 0 -4
BITMAP
C0
C0
C0
C0
C0
C0
FC
FC
C3
C3
C3
C3
C3
C3
03
03
FC
FC
ENDCHAR
STARTCHAR COPTIC
ENCODING 999
SWIDTH 460 0
DWIDTH 10 0
BBX 10 14 0 -2
BITMAP
0300
0300
3F00
3F00
CCC0
CCC0
30C0
30C0
00C0
00C0
3F00
3F00
C000
C000
ENDCHAR
STARTCHAR uni0053
ENCODING 1000
SWIDTH 460 0
DWIDTH 10 0
BBX 8 12 2 0
BITMAP
FC
FC
03
03
3C
3C
C0
C0
C3
C3
3C
3C
ENDCHAR
STARTCHAR uni0053
ENCODING 1001
SWIDTH 460 0
DWIDTH 10 0
BBX 8 12 2 0
BITMAP
FC
FC
03
03
3C
3C
C0
C0
C0
C0
3F
3F
ENDCHAR
STARTCHAR COPTIC
ENCODING 1002
SWIDTH 460 0
DWIDTH 10 0
BBX 10 14 0 0
BITMAP
3300
3300
CCC0
CCC0
0C00
0C00
3300
3300
3300
3300
C0C0
C0C0
FFC0
FFC0
ENDCHAR
STARTCHAR COPTIC
ENCODING 1003
SWIDTH 460 0
DWIDTH 10 0
BBX 10 10 0 0
BITMAP
3300
3300
CCC0
CCC0
0C00
0C00
3300
3300
3F00
3F00
ENDCHAR
STARTCHAR COPTIC
ENCODING 1004
SWIDTH 460 0
DWIDTH 10 0
BBX 8 14 0 0
BITMAP
3F
3F
C0
C0
FC
FC
C3
C3
C3
C3
C3
C3
3C
3C
ENDCHAR
STARTCHAR COPTIC
ENCODING 1005
SWIDTH 460 0
DWIDTH 10 0
BBX 8 12 0 0
BITMAP
3C
3C
C0
C0
CC
CC
C3
C3
C3
C3
3C
3C
ENDCHAR
STARTCHAR COPTIC
ENCODING 1006
SWIDTH 460 0
DWIDTH 10 0
BBX 10 12 0 0
BITMAP
0C00
0C00
3F00
3F00
CCC0
CCC0
0C00
0C00
0C00
0C00
0C00
0C00
ENDCHAR
STARTCHAR COPTIC
ENCODING 1007
SWIDTH 460 0
DWIDTH 10 0
BBX 10 12 0 0
BITMAP
0F00
0F00
0C00
0C00
FFC0
FFC0
CC00
CC00
0C00
0C00
3C00
3C00
ENDCHAR
STARTCHAR uni0078
ENCODING 1008
SWIDTH 460 0
DWIDTH 10 0
BBX 8 10 2 0
BITMAP
C3
C3
CC
CC
3C
3C
33
33
C3
C3
ENDCHAR
STARTCHAR GREEK
ENCODING 1009
SWIDTH 460 0
DWIDTH 10 0
BBX 8 16 0 -6
BITMAP
3C
3C
C3
C3
C3
C3
C3
C3
FC
FC
C0
C0
3C
3C
03
03
ENDCHAR
STARTCHAR uni0063
ENCODING 1010
SWIDTH 460 0
DWIDTH 10 0
BBX 8 10 2 0
BITMAP
3F
3F
C0
C0
C0
C0
C0
C0
3F
3F
ENDCHAR
STARTCHAR uni006A
ENCODING 1011
SWIDTH 460 0
DWIDTH 10 0
BBX 6 18 2 -4
BITMAP
0C
0C
00
00
3C
3C
0C
0C
0C
0C
0C
0C
0C
0C
0C
0C
F0
F0
ENDCHAR
STARTCHAR GREEK
ENCODING 1012
SWIDTH 460 0
DWIDTH 10 0
BBX 8 12 2 0
BITMAP
3C
3C
C3
C3
CF
CF
F3
F3
C3
C3
3C
3C
ENDCHAR
STARTCHAR GREEK
ENCODING 1013
SWIDTH 460 0
DWIDTH 10 0
BBX 8 10 0 0
BITMAP
3F
3F
C0
C0
FC
FC
C0
C0
3F
3F
ENDCHAR
STARTCHAR GREEK
ENCODING 1014
SWIDTH 460 0
DWIDTH 10 0
BBX 8 10 0 0
BITMAP
FC
FC
03
03
3F
3F
03
03
FC
FC
ENDCHAR
STARTCHAR GREEK
ENCODING 1015
SWIDTH 460 0
DWIDTH 10 0
BBX 8 12 0 0
BITMAP
C0
C0
FC
FC
C3
C3
C3
C3
FC
FC
C0
C0
ENDCHAR
STARTCHAR GREEK
ENCODING 1016
SWIDTH 460 0
DWIDTH 10 0
BBX 8 14 0 -2
BITMAP
C0
C0
FC
FC
C3
C3
C3
C3
FC
FC
C0
C0
C0
C0
ENDCHAR
STARTCHAR uni0043
ENCODING 1017
SWIDTH 460 0
DWIDTH 10 0
BBX 8 12 2 0
BITMAP
3F
3F
C0
C0
C0
C0
C0
C0
C0
C0
3F
3F
ENDCHAR
STARTCHAR uni004D
ENCODING 1018
SWIDTH 460 0
DWIDTH 10 0
BBX 8 12 2 0
BITMAP
C3
C3
FF
FF
CF
CF
C3
C3
C3
C3
C3
C3
ENDCHAR
STARTCHAR GREEK
ENCODING 1019
SWIDTH 460 0
DWIDTH 10 0
BBX 8 12 2 -4
BITMAP
C3
C3
FF
FF
CF
CF
C3
C3
C0
C0
C0
C0
ENDCHAR
STARTCHAR uni0070
ENCODING 1020
SWIDTH 460 0
DWIDTH 10 0
BBX 8 16 2 -6
BITMAP
3C
3C
C3
C3
C3
C3
C3
C3
FC
FC
C0
C0
F0
F0
C0
C0
ENDCHAR
STARTCHAR uni0043
ENCODING 1021
SWIDTH 460 0
DWIDTH 10 0
BBX 10 12 2 0
BITMAP
3F00
3F00
C0C0
C0C0
00C0
00C0
00C0
00C0
C0C0
C0C0
3F00
3F00
ENDCHAR
STARTCHAR uni0043
ENCODING 1022
SWIDTH 460 0
DWIDTH 10 0
BBX 8 12 2 0
BITMAP
3F
3F
C0
C0
CC
CC
C0
C0
C0
C0
3F
3F
ENDCHAR
STARTCHAR uni0043
ENCODING 1023
SWIDTH 460 0
DWIDTH 10 0
BBX 8 12 2 0
BITMAP
FC
FC
03
03
33
33
03
03
03
03
FC
FC
ENDCHAR
STARTCHAR char203
ENCODING 1025
SWIDTH 460 0
DWIDTH 10 0
BBX 8 16 2 0
BITMAP
CC
CC
00
00
FF
FF
C0
C0
FC
FC
C0
C0
C0
C0
FF
FF
ENDCHAR
STARTCHAR char1026
ENCODING 1026
SWIDTH 460 0
DWIDTH 10 0
BBX 10 16 0 -2
BITMAP
FC00
FC00
3000
3000
3F00
3F00
30C0
30C0
30C0
30C0
30C0
30C0
30C0
30C0
0300
0300
ENDCHAR
STARTCHAR char1027
ENCODING 1027
SWIDTH 460 0
DWIDTH 10 0
BBX 8 16 2 0
BITMAP
0C
0C
30
30
FF
FF
C0
C0
C0
C0
C0
C0
C0
C0
C0
C0
ENDCHAR
STARTCHAR char1028
ENCODING 1028
SWIDTH 460 0
DWIDTH 10 0
BBX 8 12 0 0
BITMAP
3C
3C
C3
C3
F0
F0
C0
C0
C3
C3
3C
3C
ENDCHAR
STARTCHAR char1029
ENCODING 1029
SWIDTH 460 0
DWIDTH 10 0
BBX 8 12 2 0
BITMAP
3F
3F
C0
C0
3C
3C
03
03
03
03
FC
FC
ENDCHAR
STARTCHAR char1030
ENCODING 1030
SWIDTH 460 0
DWIDTH 10 0
BBX 2 12 4 0
BITMAP
C0
C0
C0
C0
C0
C0
C0
C0
C0
C0
C0
C0
ENDCHAR
STARTCHAR char1031
ENCODING 1031
SWIDTH 460 0
DWIDTH 10 0
BBX 6 14 2 0
BITMAP
CC
CC
30
30
30
30
30
30
30
30
30
30
30
30
ENDCHAR
STARTCHAR char1032
ENCODING 1032
SWIDTH 460 0
DWIDTH 10 0
BBX 8 12 2 0
BITMAP
3F
3F
03
03
03
03
03
03
C3
C3
3C
3C
ENDCHAR
STARTCHAR char1033
ENCODING 1033
SWIDTH 460 0
DWIDTH 10 0
BBX 12 12 0 0
BITMAP
0F00
0F00
3300
3300
33C0
33C0
3330
3330
3330
3330
C3C0
C3C0
ENDCHAR
STARTCHAR char1034
ENCODING 1034
SWIDTH 460 0
DWIDTH 10 0
BBX 10 12 2 0
BITMAP
CC00
CC00
CC00
CC00
FF00
FF00
CCC0
CCC0
CCC0
CCC0
CF00
CF00
ENDCHAR
STARTCHAR char1035
ENCODING 1035
SWIDTH 460 0
DWIDTH 10 0
BBX 10 14 0 0
BITMAP
FF00
FF00
3000
3000
3F00
3F00
30C0
30C0
30C0
30C0
30C0
30C0
30C0
30C0
ENDCHAR
STARTCHAR char1036
ENCODING 1036
SWIDTH 460 0
DWIDTH 10 0
BBX 8 14 2 0
BITMAP
0C
0C
F3
F3
CC
CC
F0
F0
CC
CC
C3
C3
C3
C3
ENDCHAR
STARTCHAR char1038
ENCODING 1038
SWIDTH 460 0
DWIDTH 10 0
BBX 8 16 2 0
BITMAP
33
33
0C
0C
C3
C3
C3
C3
C3
C3
3F
3F
03
03
3C
3C
ENDCHAR
STARTCHAR char1039
ENCODING 1039
SWIDTH 460 0
DWIDTH 10 0
BBX 10 14 0 -2
BITMAP
C0C0
C0C0
C0C0
C0C0
C0C0
C0C0
C0C0
C0C0
FFC0
FFC0
0C00
0C00
0C00
0C00
ENDCHAR
STARTCHAR char1040
ENCODING 1040
SWIDTH 460 0
DWIDTH 10 0
BBX 8 12 2 0
BITMAP
3C
3C
C3
C3
C3
C3
FF
FF
C3
C3
C3
C3
ENDCHAR
STARTCHAR char1041
ENCODING 1041
SWIDTH 460 0
DWIDTH 10 0
BBX 8 14 2 0
BITMAP
FC
FC
C0
C0
FC
FC
C3
C3
C3
C3
C3
C3
FC
FC
ENDCHAR
STARTCHAR char1042
ENCODING 1042
SWIDTH 460 0
DWIDTH 10 0
BBX 8 12 2 0
BITMAP
FC
FC
C3
C3
FC
FC
C3
C3
C3
C3
FC
FC
ENDCHAR
STARTCHAR char1043
ENCODING 1043
SWIDTH 460 0
DWIDTH 10 0
BBX 8 12 2 0
BITMAP
FF
FF
C0
C0
C0
C0
C0
C0
C0
C0
C0
C0
ENDCHAR
STARTCHAR char1044
ENCODING 1044
SWIDTH 460 0
DWIDTH 10 0
BBX 10 14 0 -2
BITMAP
0F00
0F00
3300
3300
3300
3300
3300
3300
3300
3300
FFC0
FFC0
C0C0
C0C0
ENDCHAR
STARTCHAR uni0045
ENCODING 1045
SWIDTH 460 0
DWIDTH 10 0
BBX 8 12 2 0
BITMAP
FF
FF
C0
C0
FC
FC
C0
C0
C0
C0
FF
FF
ENDCHAR
STARTCHAR uni0058
ENCODING 1046
SWIDTH 460 0
DWIDTH 10 0
BBX 10 12 0 0
BITMAP
CCC0
CCC0
CCC0
CCC0
3F00
3F00
CCC0
CCC0
CCC0
CCC0
CCC0
CCC0
ENDCHAR
STARTCHAR uni0033
ENCODING 1047
SWIDTH 460 0
DWIDTH 10 0
BBX 8 12 2 0
BITMAP
3C
3C
C3
C3
0C
0C
03
03
C3
C3
3C
3C
ENDCHAR
STARTCHAR char1080
ENCODING 1048
SWIDTH 460 0
DWIDTH 10 0
BBX 8 12 2 0
BITMAP
C3
C3
CF
CF
CF
CF
F3
F3
F3
F3
C3
C3
ENDCHAR
STARTCHAR char1080
ENCODING 1049
SWIDTH 460 0
DWIDTH 10 0
BBX 8 16 2 0
BITMAP
33
33
0C
0C
C3
C3
CF
CF
CF
CF
F3
F3
F3
F3
C3
C3
ENDCHAR
STARTCHAR uni004B
ENCODING 1050
SWIDTH 460 0
DWIDTH 10 0
BBX 8 12 2 0
BITMAP
C3
C3
CC
CC
F0
F0
CC
CC
C3
C3
C3
C3
ENDCHAR
STARTCHAR char1051
ENCODING 1051
SWIDTH 460 0
DWIDTH 10 0
BBX 8 12 2 0
BITMAP
0F
0F
33
33
33
33
33
33
33
33
C3
C3
ENDCHAR
STARTCHAR uni004D
ENCODING 1052
SWIDTH 460 0
DWIDTH 10 0
BBX 8 12 2 0
BITMAP
C3
C3
FF
FF
CF
CF
C3
C3
C3
C3
C3
C3
ENDCHAR
STARTCHAR uni0048
ENCODING 1053
SWIDTH 460 0
DWIDTH 10 0
BBX 8 12 2 0
BITMAP
C3
C3
C3
C3
FF
FF
C3
C3
C3
C3
C3
C3
ENDCHAR
STARTCHAR uni004F
ENCODING 1054
SWIDTH 460 0
DWIDTH 10 0
BBX 8 12 2 0
BITMAP
3C
3C
C3
C3
C3
C3
C3
C3
C3
C3
3C
3C
ENDCHAR
STARTCHAR char1055
ENCODING 1055
SWIDTH 460 0
DWIDTH 10 0
BBX 8 12 2 0
BITMAP
FF
FF
C3
C3
C3
C3
C3
C3
C3
C3
C3
C3
ENDCHAR
STARTCHAR uni0043
ENCODING 1057
SWIDTH 460 0
DWIDTH 10 0
BBX 8 12 2 0
BITMAP
3F
3F
C0
C0
C0
C0
C0
C0
C0
C0
3F
3F
ENDCHAR
STARTCHAR uni0054
ENCODING 1058
SWIDTH 460 0
DWIDTH 10 0
BBX 6 12 4 0
BITMAP
FC
FC
30
30
30
30
30
30
30
30
30
30
ENDCHAR
STARTCHAR char1038
ENCODING 1059
SWIDTH 460 0
DWIDTH 10 0
BBX 8 12 2 0
BITMAP
C3
C3
C3
C3
C3
C3
3F
3F
03
03
3C
3C
ENDCHAR
STARTCHAR char1060
ENCODING 1060
SWIDTH 460 0
DWIDTH 10 0
BBX 10 16 0 -2
BITMAP
0C00
0C00
3F00
3F00
CCC0
CCC0
CCC0
CCC0
CCC0
CCC0
CCC0
CCC0
3F00
3F00
0C00
0C00
ENDCHAR
STARTCHAR uni0058
ENCODING 1061
SWIDTH 460 0
DWIDTH 10 0
BBX 8 12 2 0
BITMAP
C3
C3
C3
C3
3C
3C
C3
C3
C3
C3
C3
C3
ENDCHAR
STARTCHAR char1062
ENCODING 1062
SWIDTH 460 0
DWIDTH 10 0
BBX 8 14 2 -2
BITMAP
CC
CC
CC
CC
CC
CC
CC
CC
CC
CC
FF
FF
03
03
ENDCHAR
STARTCHAR char1063
ENCODING 1063
SWIDTH 460 0
DWIDTH 10 0
BBX 8 12 0 0
BITMAP
C3
C3
C3
C3
3F
3F
03
03
03
03
03
03
ENDCHAR
STARTCHAR char1064
ENCODING 1064
SWIDTH 460 0
DWIDTH 10 0
BBX 10 12 0 0
BITMAP
CCC0
CCC0
CCC0
CCC0
CCC0
CCC0
CCC0
CCC0
CCC0
CCC0
FF00
FF00
ENDCHAR
STARTCHAR char1065
ENCODING 1065
SWIDTH 460 0
DWIDTH 10 0
BBX 12 14 0 -2
BITMAP
CCC0
CCC0
CCC0
CCC0
CCC0
CCC0
CCC0
CCC0
CCC0
CCC0
3FF0
3FF0
0030
0030
ENDCHAR
STARTCHAR char1066
ENCODING 1066
SWIDTH 460 0
DWIDTH 10 0
BBX 8 12 0 0
BITMAP
F0
F0
30
30
30
30
3C
3C
33
33
3C
3C
ENDCHAR
STARTCHAR char1067
ENCODING 1067
SWIDTH 460 0
DWIDTH 10 0
BBX 8 12 2 0
BITMAP
C3
C3
C3
C3
C3
C3
F3
F3
CF
CF
F3
F3
ENDCHAR
STARTCHAR char1068
ENCODING 1068
SWIDTH 460 0
DWIDTH 10 0
BBX 8 12 2 0
BITMAP
C0
C0
C0
C0
C0
C0
FC
FC
C3
C3
FC
FC
ENDCHAR
STARTCHAR uni0033
ENCODING 1069
SWIDTH 460 0
DWIDTH 10 0
BBX 8 12 2 0
BITMAP
3C
3C
C3
C3
0F
0F
03
03
C3
C3
3C
3C
ENDCHAR
STARTCHAR char1070
ENCODING 1070
SWIDTH 460 0
DWIDTH 10 0
BBX 10 12 2 0
BITMAP
C300
C300
CCC0
CCC0
FCC0
FCC0
CCC0
CCC0
CCC0
CCC0
C300
C300
ENDCHAR
STARTCHAR char1071
ENCODING 1071
SWIDTH 460 0
DWIDTH 10 0
BBX 8 12 2 0
BITMAP
3F
3F
C3
C3
C3
C3
3F
3F
C3
C3
C3
C3
ENDCHAR
STARTCHAR uni0061
ENCODING 1072
SWIDTH 460 0
DWIDTH 10 0
BBX 8 10 2 0
BITMAP
3F
3F
C3
C3
C3
C3
CF
CF
33
33
ENDCHAR
STARTCHAR char1073
ENCODING 1073
SWIDTH 460 0
DWIDTH 10 0
BBX 8 14 2 0
BITMAP
03
03
3C
3C
C0
C0
FC
FC
C3
C3
C3
C3
FC
FC
ENDCHAR
STARTCHAR char1074
ENCODING 1074
SWIDTH 460 0
DWIDTH 10 0
BBX 8 10 2 0
BITMAP
FC
FC
C3
C3
FC
FC
C3
C3
FC
FC
ENDCHAR
STARTCHAR char1075
ENCODING 1075
SWIDTH 460 0
DWIDTH 10 0
BBX 8 10 2 0
BITMAP
FF
FF
C0
C0
C0
C0
C0
C0
C0
C0
ENDCHAR
STARTCHAR char1044
ENCODING 1076
SWIDTH 460 0
DWIDTH 10 0
BBX 10 14 0 -2
BITMAP
0F00
0F00
3300
3300
3300
3300
3300
3300
3300
3300
FFC0
FFC0
C0C0
C0C0
ENDCHAR
STARTCHAR uni0065
ENCODING 1077
SWIDTH 460 0
DWIDTH 10 0
BBX 8 10 2 0
BITMAP
3C
3C
C3
C3
FF
FF
C0
C0
3F
3F
ENDCHAR
STARTCHAR uni0058
ENCODING 1078
SWIDTH 460 0
DWIDTH 10 0
BBX 10 10 0 0
BITMAP
CCC0
CCC0
CCC0
CCC0
3F00
3F00
CCC0
CCC0
CCC0
CCC0
ENDCHAR
STARTCHAR uni0033
ENCODING 1079
SWIDTH 460 0
DWIDTH 10 0
BBX 8 10 2 0
BITMAP
3C
3C
C3
C3
0C
0C
C3
C3
3C
3C
ENDCHAR
STARTCHAR char1080
ENCODING 1080
SWIDTH 460 0
DWIDTH 10 0
BBX 8 10 2 0
BITMAP
C3
C3
CF
CF
FF
FF
F3
F3
C3
C3
ENDCHAR
STARTCHAR char1080
ENCODING 1081
SWIDTH 460 0
DWIDTH 10 0
BBX 8 14 2 0
BITMAP
33
33
0C
0C
C3
C3
CF
CF
FF
FF
F3
F3
C3
C3
ENDCHAR
STARTCHAR uni006B
ENCODING 1082
SWIDTH 460 0
DWIDTH 10 0
BBX 8 10 2 0
BITMAP
C3
C3
CC
CC
FC
FC
C3
C3
C3
C3
ENDCHAR
STARTCHAR char1051
ENCODING 1083
SWIDTH 460 0
DWIDTH 10 0
BBX 8 10 2 0
BITMAP
0F
0F
33
33
33
33
33
33
C3
C3
ENDCHAR
STARTCHAR uni006D
ENCODING 1084
SWIDTH 460 0
DWIDTH 10 0
BBX 8 10 2 0
BITMAP
C3
C3
FF
FF
CF
CF
C3
C3
C3
C3
ENDCHAR
STARTCHAR uni006D
ENCODING 1085
SWIDTH 460 0
DWIDTH 10 0
BBX 8 10 2 0
BITMAP
C3
C3
C3
C3
FF
FF
C3
C3
C3
C3
ENDCHAR
STARTCHAR uni006F
ENCODING 1086
SWIDTH 460 0
DWIDTH 10 0
BBX 8 10 2 0
BITMAP
3C
3C
C3
C3
C3
C3
C3
C3
3C
3C
ENDCHAR
STARTCHAR uni006E
ENCODING 1087
SWIDTH 460 0
DWIDTH 10 0
BBX 8 10 2 0
BITMAP
FF
FF
C3
C3
C3
C3
C3
C3
C3
C3
ENDCHAR
STARTCHAR uni0070
ENCODING 1088
SWIDTH 460 0
DWIDTH 10 0
BBX 8 14 2 -4
BITMAP
FC
FC
C3
C3
C3
C3
C3
C3
FC
FC
C0
C0
C0
C0
ENDCHAR
STARTCHAR uni0063
ENCODING 1089
SWIDTH 460 0
DWIDTH 10 0
BBX 8 10 2 0
BITMAP
3F
3F
C0
C0
C0
C0
C0
C0
3F
3F
ENDCHAR
STARTCHAR uni0074
ENCODING 1090
SWIDTH 460 0
DWIDTH 10 0
BBX 6 10 4 0
BITMAP
FC
FC
30
30
30
30
30
30
30
30
ENDCHAR
STARTCHAR uni0079
ENCODING 1091
SWIDTH 460 0
DWIDTH 10 0
BBX 8 14 2 -4
BITMAP
C3
C3
C3
C3
C3
C3
C3
C3
3F
3F
03
03
3C
3C
ENDCHAR
STARTCHAR char1060
ENCODING 1092
SWIDTH 460 0
DWIDTH 10 0
BBX 10 14 0 -2
BITMAP
0C00
0C00
3F00
3F00
CCC0
CCC0
CCC0
CCC0
CCC0
CCC0
3F00
3F00
0C00
0C00
ENDCHAR
STARTCHAR uni0078
ENCODING 1093
SWIDTH 460 0
DWIDTH 10 0
BBX 8 10 2 0
BITMAP
C3
C3
C3
C3
3C
3C
C3
C3
C3
C3
ENDCHAR
STARTCHAR char1062
ENCODING 1094
SWIDTH 460 0
DWIDTH 10 0
BBX 8 12 2 -2
BITMAP
CC
CC
CC
CC
CC
CC
CC
CC
FF
FF
03
03
ENDCHAR
STARTCHAR char1063
ENCODING 1095
SWIDTH 460 0
DWIDTH 10 0
BBX 8 10 0 0
BITMAP
C3
C3
C3
C3
3F
3F
03
03
03
03
ENDCHAR
STARTCHAR char1064
ENCODING 1096
SWIDTH 460 0
DWIDTH 10 0
BBX 10 10 0 0
BITMAP
CCC0
CCC0
CCC0
CCC0
CCC0
CCC0
CCC0
CCC0
FF00
FF00
ENDCHAR
STARTCHAR char1065
ENCODING 1097
SWIDTH 460 0
DWIDTH 10 0
BBX 12 12 0 -2
BITMAP
CCC0
CCC0
CCC0
CCC0
CCC0
CCC0
CCC0
CCC0
3FF0
3FF0
0030
0030
ENDCHAR
STARTCHAR char1066
ENCODING 1098
SWIDTH 460 0
DWIDTH 10 0
BBX 8 10 2 0
BITMAP
F0
F0
30
30
3C
3C
33
33
3C
3C
ENDCHAR
STARTCHAR char1067
ENCODING 1099
SWIDTH 460 0
DWIDTH 10 0
BBX 8 10 2 0
BITMAP
C3
C3
C3
C3
F3
F3
CF
CF
F3
F3
ENDCHAR
STARTCHAR char1068
ENCODING 1100
SWIDTH 460 0
DWIDTH 10 0
BBX 8 10 2 0
BITMAP
C0
C0
C0
C0
FC
FC
C3
C3
FC
FC
ENDCHAR
STARTCHAR uni0033
ENCODING 1101
SWIDTH 460 0
DWIDTH 10 0
BBX 8 10 2 0
BITMAP
3C
3C
C3
C3
0F
0F
C3
C3
3C
3C
ENDCHAR
STARTCHAR char1070
ENCODING 1102
SWIDTH 460 0
DWIDTH 10 0
BBX 10 10 2 0
BITMAP
C300
C300
CCC0
CCC0
FCC0
FCC0
CCC0
CCC0
C300
C300
ENDCHAR
STARTCHAR char1071
ENCODING 1103
SWIDTH 460 0
DWIDTH 10 0
BBX 8 10 2 0
BITMAP
3F
3F
C3
C3
3F
3F
C3
C3
C3
C3
ENDCHAR
STARTCHAR char1104
ENCODING 1104
SWIDTH 460 0
DWIDTH 10 0
BBX 8 12 2 0
BITMAP
FC
FC
C3
C3
C3
C3
FC
FC
C0
C0
C0
C0
ENDCHAR
STARTCHAR uni0065
ENCODING 1105
SWIDTH 460 0
DWIDTH 10 0
BBX 8 14 2 0
BITMAP
CC
CC
00
00
3C
3C
C3
C3
FF
FF
C0
C0
3F
3F
ENDCHAR
STARTCHAR char1026
ENCODING 1106
SWIDTH 460 0
DWIDTH 10 0
BBX 10 14 0 -2
BITMAP
3000
3000
FC00
FC00
3000
3000
3F00
3F00
30C0
30C0
30C0
30C0
0300
0300
ENDCHAR
STARTCHAR char1027
ENCODING 1107
SWIDTH 460 0
DWIDTH 10 0
BBX 8 14 2 0
BITMAP
0C
0C
30
30
FF
FF
C0
C0
C0
C0
C0
C0
C0
C0
ENDCHAR
STARTCHAR char1028
ENCODING 1108
SWIDTH 460 0
DWIDTH 10 0
BBX 8 10 2 0
BITMAP
3C
3C
C3
C3
F0
F0
C3
C3
3C
3C
ENDCHAR
STARTCHAR uni0073
ENCODING 1109
SWIDTH 460 0
DWIDTH 10 0
BBX 8 10 2 0
BITMAP
3F
3F
C0
C0
3C
3C
03
03
FC
FC
ENDCHAR
STARTCHAR uni0069
ENCODING 1110
SWIDTH 460 0
DWIDTH 10 0
BBX 4 14 4 0
BITMAP
30
30
00
00
F0
F0
30
30
30
30
30
30
30
30
ENDCHAR
STARTCHAR uni0069
ENCODING 1111
SWIDTH 460 0
DWIDTH 10 0
BBX 6 14 4 0
BITMAP
CC
CC
00
00
F0
F0
30
30
30
30
30
30
30
30
ENDCHAR
STARTCHAR uni006A
ENCODING 1112
SWIDTH 460 0
DWIDTH 10 0
BBX 6 18 2 -4
BITMAP
0C
0C
00
00
3C
3C
0C
0C
0C
0C
0C
0C
0C
0C
0C
0C
F0
F0
ENDCHAR
STARTCHAR uni0079
ENCODING 1118
SWIDTH 460 0
DWIDTH 10 0
BBX 8 14 2 -4
BITMAP
C3
C3
C3
C3
C3
C3
C3
C3
3F
3F
03
03
3C
3C
ENDCHAR
STARTCHAR char1122
ENCODING 1122
SWIDTH 460 0
DWIDTH 10 0
BBX 10 14 0 0
BITMAP
3000
3000
FC00
FC00
3000
3000
3F00
3F00
30C0
30C0
30C0
30C0
3F00
3F00
ENDCHAR
STARTCHAR char1123
ENCODING 1123
SWIDTH 460 0
DWIDTH 10 0
BBX 10 12 0 0
BITMAP
3000
3000
FC00
FC00
3000
3000
3F00
3F00
30C0
30C0
3F00
3F00
ENDCHAR
STARTCHAR char1126
ENCODING 1126
SWIDTH 460 0
DWIDTH 10 0
BBX 10 12 2 0
BITMAP
0C00
0C00
0C00
0C00
3300
3300
3F00
3F00
CCC0
CCC0
CCC0
CCC0
ENDCHAR
STARTCHAR char1127
ENCODING 1127
SWIDTH 460 0
DWIDTH 10 0
BBX 10 10 2 0
BITMAP
0C00
0C00
3300
3300
3F00
3F00
CCC0
CCC0
CCC0
CCC0
ENDCHAR
STARTCHAR char1128
ENCODING 1128
SWIDTH 460 0
DWIDTH 10 0
BBX 10 12 2 0
BITMAP
CC00
CC00
CC00
CC00
F300
F300
FF00
FF00
CCC0
CCC0
CCC0
CCC0
ENDCHAR
STARTCHAR char1129
ENCODING 1129
SWIDTH 460 0
DWIDTH 10 0
BBX 10 10 2 0
BITMAP
CC00
CC00
F300
F300
FF00
FF00
CCC0
CCC0
CCC0
CCC0
ENDCHAR
STARTCHAR char1140
ENCODING 1140
SWIDTH 460 0
DWIDTH 10 0
BBX 10 12 2 0
BITMAP
C300
C300
C3C0
C3C0
C300
C300
3C00
3C00
3C00
3C00
3C00
3C00
ENDCHAR
STARTCHAR char1141
ENCODING 1141
SWIDTH 460 0
DWIDTH 10 0
BBX 10 10 2 0
BITMAP
C300
C300
C3C0
C3C0
C300
C300
3C00
3C00
3C00
3C00
ENDCHAR
STARTCHAR char1142
ENCODING 1142
SWIDTH 460 0
DWIDTH 10 0
BBX 10 16 2 0
BITMAP
CC00
CC00
3300
3300
C300
C300
C3C0
C3C0
C300
C300
3C00
3C00
3C00
3C00
3C00
3C00
ENDCHAR
STARTCHAR char1143
ENCODING 1143
SWIDTH 460 0
DWIDTH 10 0
BBX 10 14 2 0
BITMAP
CC00
CC00
3300
3300
C300
C300
C3C0
C3C0
C300
C300
3C00
3C00
3C00
3C00
ENDCHAR
STARTCHAR char1155
ENCODING 1155
SWIDTH 460 0
DWIDTH 10 0
BBX 8 6 4 8
BITMAP
03
03
3C
3C
C0
C0
ENDCHAR
STARTCHAR char1027
ENCODING 1168
SWIDTH 460 0
DWIDTH 10 0
BBX 8 14 2 0
BITMAP
03
03
FF
FF
C0
C0
C0
C0
C0
C0
C0
C0
C0
C0
ENDCHAR
STARTCHAR char1075
ENCODING 1169
SWIDTH 460 0
DWIDTH 10 0
BBX 8 12 2 0
BITMAP
03
03
FF
FF
C0
C0
C0
C0
C0
C0
C0
C0
ENDCHAR
STARTCHAR char1984
ENCODING 1984
SWIDTH 460 0
DWIDTH 10 0
BBX 12 4 0 4
BITMAP
FFF0
FFF0
FFF0
FFF0
ENDCHAR
STARTCHAR char1984
ENCODING 1985
SWIDTH 460 0
DWIDTH 10 0
BBX 12 4 0 -2
BITMAP
CCC0
CCC0
3330
3330
ENDCHAR
STARTCHAR char1986
ENCODING 1986
SWIDTH 460 0
DWIDTH 10 0
BBX 12 2 0 -2
BITMAP
FFF0
FFF0
ENDCHAR
STARTCHAR char1987
ENCODING 1987
SWIDTH 460 0
DWIDTH 10 0
BBX 10 2 4 -2
BITMAP
CCC0
CCC0
ENDCHAR
STARTCHAR char3232
ENCODING 3232
SWIDTH 460 0
DWIDTH 10 0
BBX 12 14 0 0
BITMAP
03C0
03C0
0030
0030
FFC0
FFC0
3030
3030
3330
3330
3030
3030
0FC0
0FC0
ENDCHAR
STARTCHAR char1480
ENCODING 4808
SWIDTH 460 0
DWIDTH 10 0
BBX 10 16 2 -2
BITMAP
FFC0
FFC0
FFC0
FFC0
FFC0
FFC0
FFC0
FFC0
FFC0
FFC0
FFC0
FFC0
FFC0
FFC0
FFC0
FFC0
ENDCHAR
STARTCHAR char7461
ENCODING 7461
SWIDTH 460 0
DWIDTH 10 0
BBX 10 10 0 0
BITMAP
3F00
3F00
3F00
3F00
3F00
3F00
0C00
0C00
F3C0
F3C0
ENDCHAR
STARTCHAR uni0061
ENCODING 7936
SWIDTH 460 0
DWIDTH 10 0
BBX 10 14 0 0
BITMAP
3000
3000
C000
C000
0FC0
0FC0
30C0
30C0
30C0
30C0
33C0
33C0
0CC0
0CC0
ENDCHAR
STARTCHAR uni0041
ENCODING 7944
SWIDTH 460 0
DWIDTH 10 0
BBX 10 16 0 0
BITMAP
3000
3000
C000
C000
0F00
0F00
30C0
30C0
30C0
30C0
3FC0
3FC0
30C0
30C0
30C0
30C0
ENDCHAR
STARTCHAR uni0069
ENCODING 7989
SWIDTH 460 0
DWIDTH 10 0
BBX 6 14 4 0
BITMAP
CC
CC
00
00
F0
F0
30
30
30
30
30
30
30
30
ENDCHAR
STARTCHAR uni0075
ENCODING 8016
SWIDTH 460 0
DWIDTH 10 0
BBX 8 16 2 0
BITMAP
30
30
0C
0C
00
00
C3
C3
C3
C3
C3
C3
C3
C3
3F
3F
ENDCHAR
STARTCHAR char8212
ENCODING 8211
SWIDTH 460 0
DWIDTH 10 0
BBX 10 2 2 6
BITMAP
FFC0
FFC0
ENDCHAR
STARTCHAR char8212
ENCODING 8212
SWIDTH 460 0
DWIDTH 10 0
BBX 10 2 2 6
BITMAP
FFC0
FFC0
ENDCHAR
STARTCHAR char8216
ENCODING 8216
SWIDTH 460 0
DWIDTH 10 0
BBX 2 6 4 8
BITMAP
C0
C0
C0
C0
C0
C0
ENDCHAR
STARTCHAR char8217
ENCODING 8217
SWIDTH 460 0
DWIDTH 10 0
BBX 2 6 4 8
BITMAP
C0
C0
C0
C0
C0
C0
ENDCHAR
STARTCHAR char8218
ENCODING 8218
SWIDTH 460 0
DWIDTH 10 0
BBX 4 6 4 -2
BITMAP
30
30
30
30
C0
C0
ENDCHAR
STARTCHAR char8220
ENCODING 8220
SWIDTH 460 0
DWIDTH 10 0
BBX 8 6 2 6
BITMAP
33
33
CC
CC
FF
FF
ENDCHAR
STARTCHAR char8221
ENCODING 8221
SWIDTH 460 0
DWIDTH 10 0
BBX 8 6 2 6
BITMAP
FF
FF
33
33
CC
CC
ENDCHAR
STARTCHAR char8222
ENCODING 8222
SWIDTH 460 0
DWIDTH 10 0
BBX 8 6 2 -2
BITMAP
FF
FF
33
33
CC
CC
ENDCHAR
STARTCHAR char8223
ENCODING 8223
SWIDTH 460 0
DWIDTH 10 0
BBX 8 6 2 6
BITMAP
FF
FF
CC
CC
33
33
ENDCHAR
STARTCHAR char183
ENCODING 8226
SWIDTH 460 0
DWIDTH 10 0
BBX 4 4 4 4
BITMAP
F0
F0
F0
F0
ENDCHAR
STARTCHAR char8228
ENCODING 8228
SWIDTH 460 0
DWIDTH 10 0
BBX 2 2 4 0
BITMAP
C0
C0
ENDCHAR
STARTCHAR char8229
ENCODING 8229
SWIDTH 460 0
DWIDTH 10 0
BBX 6 2 2 0
BITMAP
FC
FC
ENDCHAR
STARTCHAR char8230
ENCODING 8230
SWIDTH 460 0
DWIDTH 10 0
BBX 10 2 0 0
BITMAP
CCC0
CCC0
ENDCHAR
STARTCHAR char8231
ENCODING 8231
SWIDTH 460 0
DWIDTH 10 0
BBX 2 2 4 4
BITMAP
C0
C0
ENDCHAR
STARTCHAR char8249
ENCODING 8249
SWIDTH 460 0
DWIDTH 10 0
BBX 6 10 2 0
BITMAP
0C
0C
30
30
C0
C0
30
30
0C
0C
ENDCHAR
STARTCHAR UNDERTIE
ENCODING 8255
SWIDTH 460 0
DWIDTH 10 0
BBX 10 4 0 0
BITMAP
C0C0
C0C0
3F00
3F00
ENDCHAR
STARTCHAR char8320
ENCODING 8320
SWIDTH 460 0
DWIDTH 10 0
BBX 8 10 2 -2
BITMAP
3C
3C
C3
C3
C3
C3
C3
C3
3C
3C
ENDCHAR
STARTCHAR char8364
ENCODING 8364
SWIDTH 460 0
DWIDTH 10 0
BBX 10 14 0 0
BITMAP
0F00
0F00
30C0
30C0
FC00
FC00
3000
3000
FC00
FC00
30C0
30C0
0F00
0F00
ENDCHAR
STARTCHAR char8482
ENCODING 8482
SWIDTH 460 0
DWIDTH 10 0
BBX 12 6 0 6
BITMAP
FF30
FF30
33F0
33F0
3330
3330
ENDCHAR
STARTCHAR char8592
ENCODING 8592
SWIDTH 460 0
DWIDTH 10 0
BBX 12 10 0 0
BITMAP
0C00
0C00
3C00
3C00
FFF0
FFF0
3C00
3C00
0C00
0C00
ENDCHAR
STARTCHAR char8593
ENCODING 8593
SWIDTH 460 0
DWIDTH 10 0
BBX 10 12 0 0
BITMAP
0C00
0C00
3F00
3F00
FFC0
FFC0
0C00
0C00
0C00
0C00
0C00
0C00
ENDCHAR
STARTCHAR char8594
ENCODING 8594
SWIDTH 460 0
DWIDTH 10 0
BBX 12 10 0 0
BITMAP
0300
0300
03C0
03C0
FFF0
FFF0
03C0
03C0
0300
0300
ENDCHAR
STARTCHAR char8595
ENCODING 8595
SWIDTH 460 0
DWIDTH 10 0
BBX 10 12 0 0
BITMAP
0C00
0C00
0C00
0C00
0C00
0C00
FFC0
FFC0
3F00
3F00
0C00
0C00
ENDCHAR
STARTCHAR char8596
ENCODING 8596
SWIDTH 460 0
DWIDTH 10 0
BBX 12 6 0 2
BITMAP
30C0
30C0
FFF0
FFF0
30C0
30C0
ENDCHAR
STARTCHAR char8597
ENCODING 8597
SWIDTH 460 0
DWIDTH 10 0
BBX 10 16 0 -2
BITMAP
0C00
0C00
3F00
3F00
FFC0
FFC0
0C00
0C00
0C00
0C00
FFC0
FFC0
3F00
3F00
0C00
0C00
ENDCHAR
STARTCHAR char8598
ENCODING 8598
SWIDTH 460 0
DWIDTH 10 0
BBX 8 8 0 2
BITMAP
FC
FC
F0
F0
CC
CC
03
03
ENDCHAR
STARTCHAR char8599
ENCODING 8599
SWIDTH 460 0
DWIDTH 10 0
BBX 8 8 2 2
BITMAP
3F
3F
0F
0F
33
33
C0
C0
ENDCHAR
STARTCHAR char8600
ENCODING 8600
SWIDTH 460 0
DWIDTH 10 0
BBX 8 8 2 0
BITMAP
C0
C0
33
33
0F
0F
3F
3F
ENDCHAR
STARTCHAR char8601
ENCODING 8601
SWIDTH 460 0
DWIDTH 10 0
BBX 8 8 0 0
BITMAP
03
03
CC
CC
F0
F0
FC
FC
ENDCHAR
STARTCHAR char8624
ENCODING 8624
SWIDTH 460 0
DWIDTH 10 0
BBX 8 10 0 0
BITMAP
30
30
FF
FF
33
33
03
03
03
03
ENDCHAR
STARTCHAR char8625
ENCODING 8625
SWIDTH 460 0
DWIDTH 10 0
BBX 8 10 0 0
BITMAP
0C
0C
FF
FF
CC
CC
C0
C0
C0
C0
ENDCHAR
STARTCHAR char8626
ENCODING 8626
SWIDTH 460 0
DWIDTH 10 0
BBX 8 10 0 -2
BITMAP
03
03
03
03
33
33
FF
FF
30
30
ENDCHAR
STARTCHAR char8627
ENCODING 8627
SWIDTH 460 0
DWIDTH 10 0
BBX 8 10 0 -2
BITMAP
C0
C0
C0
C0
CC
CC
FF
FF
0C
0C
ENDCHAR
STARTCHAR char8628
ENCODING 8628
SWIDTH 460 0
DWIDTH 10 0
BBX 8 8 0 -2
BITMAP
FC
FC
0C
0C
3F
3F
0C
0C
ENDCHAR
STARTCHAR char8629
ENCODING 8629
SWIDTH 460 0
DWIDTH 10 0
BBX 8 10 0 -2
BITMAP
03
03
03
03
33
33
FF
FF
30
30
ENDCHAR
STARTCHAR char8630
ENCODING 8630
SWIDTH 460 0
DWIDTH 10 0
BBX 8 10 0 0
BITMAP
0C
0C
33
33
30
30
FC
FC
30
30
ENDCHAR
STARTCHAR char8631
ENCODING 8631
SWIDTH 460 0
DWIDTH 10 0
BBX 8 10 2 0
BITMAP
30
30
CC
CC
0C
0C
3F
3F
0C
0C
ENDCHAR
STARTCHAR char8689
ENCODING 8689
SWIDTH 460 0
DWIDTH 10 0
BBX 12 12 0 0
BITMAP
FFC0
FFC0
C000
C000
CFC0
CFC0
CF00
CF00
CCC0
CCC0
0030
0030
ENDCHAR
STARTCHAR char8690
ENCODING 8690
SWIDTH 460 0
DWIDTH 10 0
BBX 12 12 2 -2
BITMAP
C000
C000
3330
3330
0F30
0F30
3F30
3F30
0030
0030
3FF0
3FF0
ENDCHAR
STARTCHAR char8693
ENCODING 8693
SWIDTH 460 0
DWIDTH 10 0
BBX 12 12 0 0
BITMAP
30C0
30C0
FCC0
FCC0
30C0
30C0
30C0
30C0
33F0
33F0
30C0
30C0
ENDCHAR
STARTCHAR char8694
ENCODING 8694
SWIDTH 460 0
DWIDTH 10 0
BBX 10 14 2 -2
BITMAP
0300
0300
FFC0
FFC0
0300
0300
FFC0
FFC0
0300
0300
FFC0
FFC0
0300
0300
ENDCHAR
STARTCHAR char8695
ENCODING 8695
SWIDTH 460 0
DWIDTH 10 0
BBX 12 6 0 0
BITMAP
3300
3300
FFF0
FFF0
3300
3300
ENDCHAR
STARTCHAR char8696
ENCODING 8696
SWIDTH 460 0
DWIDTH 10 0
BBX 12 6 0 0
BITMAP
0CC0
0CC0
FFF0
FFF0
0CC0
0CC0
ENDCHAR
STARTCHAR char8701
ENCODING 8701
SWIDTH 460 0
DWIDTH 10 0
BBX 12 6 0 2
BITMAP
3000
3000
CFF0
CFF0
3000
3000
ENDCHAR
STARTCHAR char8702
ENCODING 8702
SWIDTH 460 0
DWIDTH 10 0
BBX 12 6 0 2
BITMAP
00C0
00C0
FF30
FF30
00C0
00C0
ENDCHAR
STARTCHAR char8703
ENCODING 8703
SWIDTH 460 0
DWIDTH 10 0
BBX 12 6 0 2
BITMAP
30C0
30C0
CF30
CF30
30C0
30C0
ENDCHAR
STARTCHAR char8704
ENCODING 8704
SWIDTH 460 0
DWIDTH 10 0
BBX 10 12 2 -2
BITMAP
C0C0
C0C0
C0C0
C0C0
3F00
3F00
3300
3300
0C00
0C00
0C00
0C00
ENDCHAR
STARTCHAR char8705
ENCODING 8705
SWIDTH 460 0
DWIDTH 10 0
BBX 10 14 2 -2
BITMAP
3F00
3F00
C0C0
C0C0
C0C0
C0C0
C000
C000
C0C0
C0C0
C0C0
C0C0
3F00
3F00
ENDCHAR
STARTCHAR char8706
ENCODING 8706
SWIDTH 460 0
DWIDTH 10 0
BBX 8 14 2 0
BITMAP
C0
C0
30
30
0C
0C
33
33
C3
C3
C3
C3
3C
3C
ENDCHAR
STARTCHAR char8707
ENCODING 8707
SWIDTH 460 0
DWIDTH 10 0
BBX 10 12 2 0
BITMAP
FFC0
FFC0
00C0
00C0
3FC0
3FC0
00C0
00C0
00C0
00C0
FFC0
FFC0
ENDCHAR
STARTCHAR char8708
ENCODING 8708
SWIDTH 460 0
DWIDTH 10 0
BBX 10 16 2 -2
BITMAP
0300
0300
FFC0
FFC0
0CC0
0CC0
3FC0
3FC0
0CC0
0CC0
30C0
30C0
FFC0
FFC0
3000
3000
ENDCHAR
STARTCHAR char8709
ENCODING 8709
SWIDTH 460 0
DWIDTH 10 0
BBX 14 12 0 0
BITMAP
0FC0
0FC0
303C
303C
30F0
30F0
3F30
3F30
F030
F030
0FC0
0FC0
ENDCHAR
STARTCHAR char8710
ENCODING 8710
SWIDTH 460 0
DWIDTH 10 0
BBX 10 10 2 0
BITMAP
0C00
0C00
3300
3300
3300
3300
C0C0
C0C0
FFC0
FFC0
ENDCHAR
STARTCHAR char8711
ENCODING 8711
SWIDTH 460 0
DWIDTH 10 0
BBX 10 10 2 0
BITMAP
FFC0
FFC0
C0C0
C0C0
3300
3300
3300
3300
0C00
0C00
ENDCHAR
STARTCHAR char8712
ENCODING 8712
SWIDTH 460 0
DWIDTH 10 0
BBX 10 14 2 -2
BITMAP
0FC0
0FC0
3000
3000
C000
C000
FF00
FF00
C000
C000
3000
3000
0FC0
0FC0
ENDCHAR
STARTCHAR char8713
ENCODING 8713
SWIDTH 460 0
DWIDTH 10 0
BBX 10 16 2 -2
BITMAP
00C0
00C0
0FC0
0FC0
3300
3300
CC00
CC00
FF00
FF00
CC00
CC00
3000
3000
3FC0
3FC0
ENDCHAR
STARTCHAR char8714
ENCODING 8714
SWIDTH 460 0
DWIDTH 10 0
BBX 8 10 2 0
BITMAP
3F
3F
C0
C0
FC
FC
C0
C0
3F
3F
ENDCHAR
STARTCHAR char8715
ENCODING 8715
SWIDTH 460 0
DWIDTH 10 0
BBX 10 14 2 -2
BITMAP
FC00
FC00
0300
0300
00C0
00C0
3FC0
3FC0
00C0
00C0
0300
0300
FC00
FC00
ENDCHAR
STARTCHAR char8716
ENCODING 8716
SWIDTH 460 0
DWIDTH 10 0
BBX 12 16 0 -2
BITMAP
C000
C000
3F00
3F00
30C0
30C0
0C30
0C30
0FF0
0FF0
0330
0330
00C0
00C0
3F30
3F30
ENDCHAR
STARTCHAR char8717
ENCODING 8717
SWIDTH 460 0
DWIDTH 10 0
BBX 8 10 4 0
BITMAP
FC
FC
03
03
3F
3F
03
03
FC
FC
ENDCHAR
STARTCHAR char8719
ENCODING 8719
SWIDTH 460 0
DWIDTH 10 0
BBX 10 10 2 0
BITMAP
FFC0
FFC0
3300
3300
3300
3300
3300
3300
3300
3300
ENDCHAR
STARTCHAR char8720
ENCODING 8720
SWIDTH 460 0
DWIDTH 10 0
BBX 10 10 2 0
BITMAP
3300
3300
3300
3300
3300
3300
3300
3300
FFC0
FFC0
ENDCHAR
STARTCHAR char8721
ENCODING 8721
SWIDTH 460 0
DWIDTH 10 0
BBX 10 14 0 -2
BITMAP
FFC0
FFC0
C0C0
C0C0
3000
3000
0C00
0C00
3000
3000
C0C0
C0C0
FFC0
FFC0
ENDCHAR
STARTCHAR char8722
ENCODING 8722
SWIDTH 460 0
DWIDTH 10 0
BBX 6 2 0 4
BITMAP
FC
FC
ENDCHAR
STARTCHAR char8723
ENCODING 8723
SWIDTH 460 0
DWIDTH 10 0
BBX 6 10 0 -2
BITMAP
FC
FC
00
00
30
30
FC
FC
30
30
ENDCHAR
STARTCHAR char8724
ENCODING 8724
SWIDTH 460 0
DWIDTH 10 0
BBX 10 16 0 -2
BITMAP
0C00
0C00
3F00
3F00
0C00
0C00
0C00
0C00
0C00
0C00
FFC0
FFC0
0C00
0C00
0C00
0C00
ENDCHAR
STARTCHAR char8730
ENCODING 8730
SWIDTH 460 0
DWIDTH 10 0
BBX 14 14 0 -2
BITMAP
000C
000C
000C
000C
0030
0030
F030
F030
0CC0
0CC0
0CC0
0CC0
0300
0300
ENDCHAR
STARTCHAR char8731
ENCODING 8731
SWIDTH 460 0
DWIDTH 10 0
BBX 14 16 0 -2
BITMAP
0F00
0F00
0F0C
0F0C
030C
030C
0F30
0F30
F030
F030
0CC0
0CC0
0CC0
0CC0
0300
0300
ENDCHAR
STARTCHAR char8732
ENCODING 8732
SWIDTH 460 0
DWIDTH 10 0
BBX 14 14 0 -2
BITMAP
030C
030C
0F0C
0F0C
0330
0330
F030
F030
0CC0
0CC0
0CC0
0CC0
0300
0300
ENDCHAR
STARTCHAR char8733
ENCODING 8733
SWIDTH 460 0
DWIDTH 10 0
BBX 8 6 0 2
BITMAP
F3
F3
CC
CC
F3
F3
ENDCHAR
STARTCHAR char8734
ENCODING 8734
SWIDTH 460 0
DWIDTH 10 0
BBX 12 8 0 0
BITMAP
30C0
30C0
CF30
CF30
CF30
CF30
30C0
30C0
ENDCHAR
STARTCHAR char8776
ENCODING 8776
SWIDTH 460 0
DWIDTH 10 0
BBX 10 10 0 0
BITMAP
00C0
00C0
3F00
3F00
C0C0
C0C0
3F00
3F00
C000
C000
ENDCHAR
STARTCHAR char8790
ENCODING 8790
SWIDTH 460 0
DWIDTH 10 0
BBX 10 6 0 2
BITMAP
FFC0
FFC0
3300
3300
FFC0
FFC0
ENDCHAR
STARTCHAR char8800
ENCODING 8800
SWIDTH 460 0
DWIDTH 10 0
BBX 6 10 4 2
BITMAP
0C
0C
FC
FC
30
30
FC
FC
C0
C0
ENDCHAR
STARTCHAR char8804
ENCODING 8804
SWIDTH 460 0
DWIDTH 10 0
BBX 8 14 2 -2
BITMAP
0C
0C
30
30
C0
C0
30
30
0C
0C
00
00
FF
FF
ENDCHAR
STARTCHAR char8805
ENCODING 8805
SWIDTH 460 0
DWIDTH 10 0
BBX 8 14 2 -2
BITMAP
30
30
0C
0C
03
03
0C
0C
30
30
00
00
FF
FF
ENDCHAR
STARTCHAR char8978
ENCODING 8978
SWIDTH 460 0
DWIDTH 10 0
BBX 8 4 0 4
BITMAP
3C
3C
C3
C3
ENDCHAR
STARTCHAR char8994
ENCODING 8994
SWIDTH 460 0
DWIDTH 10 0
BBX 10 4 0 4
BITMAP
3F00
3F00
C0C0
C0C0
ENDCHAR
STARTCHAR bar
ENCODING 9472
SWIDTH 460 0
DWIDTH 10 0
BBX 10 2 2 4
BITMAP
FFC0
FFC0
ENDCHAR
STARTCHAR QUADRANT
ENCODING 9622
SWIDTH 460 0
DWIDTH 10 0
BBX 6 6 0 0
BITMAP
FC
FC
FC
FC
FC
FC
ENDCHAR
STARTCHAR QUADRANT
ENCODING 9623
SWIDTH 460 0
DWIDTH 10 0
BBX 6 6 6 0
BITMAP
FC
FC
FC
FC
FC
FC
ENDCHAR
STARTCHAR QUADRANT
ENCODING 9624
SWIDTH 460 0
DWIDTH 10 0
BBX 6 6 0 6
BITMAP
FC
FC
FC
FC
FC
FC
ENDCHAR
STARTCHAR QUADRANT
ENCODING 9625
SWIDTH 460 0
DWIDTH 10 0
BBX 12 12 0 0
BITMAP
FC00
FC00
FC00
FC00
FC00
FC00
FFF0
FFF0
FFF0
FFF0
FFF0
FFF0
ENDCHAR
STARTCHAR QUADRANT
ENCODING 9626
SWIDTH 460 0
DWIDTH 10 0
BBX 12 12 0 0
BITMAP
FC00
FC00
FC00
FC00
FC00
FC00
03F0
03F0
03F0
03F0
03F0
03F0
ENDCHAR
STARTCHAR QUADRANT
ENCODING 9627
SWIDTH 460 0
DWIDTH 10 0
BBX 12 12 0 0
BITMAP
FFF0
FFF0
FFF0
FFF0
FFF0
FFF0
FC00
FC00
FC00
FC00
FC00
FC00
ENDCHAR
STARTCHAR QUADRANT
ENCODING 9628
SWIDTH 460 0
DWIDTH 10 0
BBX 12 12 0 0
BITMAP
FFF0
FFF0
FFF0
FFF0
FFF0
FFF0
03F0
03F0
03F0
03F0
03F0
03F0
ENDCHAR
STARTCHAR QUADRANT
ENCODING 9629
SWIDTH 460 0
DWIDTH 10 0
BBX 6 6 6 6
BITMAP
FC
FC
FC
FC
FC
FC
ENDCHAR
STARTCHAR QUADRANT
ENCODING 9630
SWIDTH 460 0
DWIDTH 10 0
BBX 12 12 0 0
BITMAP
03F0
03F0
03F0
03F0
03F0
03F0
FC00
FC00
FC00
FC00
FC00
FC00
ENDCHAR
STARTCHAR QUADRANT
ENCODING 9631
SWIDTH 460 0
DWIDTH 10 0
BBX 12 12 0 0
BITMAP
03F0
03F0
03F0
03F0
03F0
03F0
FFF0
FFF0
FFF0
FFF0
FFF0
FFF0
ENDCHAR
STARTCHAR BLACK
ENCODING 9632
SWIDTH 460 0
DWIDTH 10 0
BBX 12 12 0 0
BITMAP
FFF0
FFF0
FFF0
FFF0
FFF0
FFF0
FFF0
FFF0
FFF0
FFF0
FFF0
FFF0
ENDCHAR
STARTCHAR WHITE
ENCODING 9633
SWIDTH 460 0
DWIDTH 10 0
BBX 12 12 0 0
BITMAP
FFF0
FFF0
C030
C030
C030
C030
C030
C030
C030
C030
FFF0
FFF0
ENDCHAR
STARTCHAR WHITE
ENCODING 9634
SWIDTH 460 0
DWIDTH 10 0
BBX 12 12 0 0
BITMAP
3FC0
3FC0
C030
C030
C030
C030
C030
C030
C030
C030
3FC0
3FC0
ENDCHAR
STARTCHAR WHITE
ENCODING 9635
SWIDTH 460 0
DWIDTH 10 0
BBX 10 10 0 0
BITMAP
FFC0
FFC0
C0C0
C0C0
CCC0
CCC0
C0C0
C0C0
FFC0
FFC0
ENDCHAR
STARTCHAR SQUARE
ENCODING 9636
SWIDTH 460 0
DWIDTH 10 0
BBX 10 10 0 0
BITMAP
FFC0
FFC0
C0C0
C0C0
FFC0
FFC0
C0C0
C0C0
FFC0
FFC0
ENDCHAR
STARTCHAR SQUARE
ENCODING 9637
SWIDTH 460 0
DWIDTH 10 0
BBX 10 10 0 0
BITMAP
FFC0
FFC0
CCC0
CCC0
CCC0
CCC0
CCC0
CCC0
FFC0
FFC0
ENDCHAR
STARTCHAR SQUARE
ENCODING 9638
SWIDTH 460 0
DWIDTH 10 0
BBX 10 10 0 0
BITMAP
FFC0
FFC0
CCC0
CCC0
FFC0
FFC0
CCC0
CCC0
FFC0
FFC0
ENDCHAR
STARTCHAR SQUARE
ENCODING 9639
SWIDTH 460 0
DWIDTH 10 0
BBX 10 10 0 0
BITMAP
FFC0
FFC0
F0C0
F0C0
CCC0
CCC0
C3C0
C3C0
FFC0
FFC0
ENDCHAR
STARTCHAR SQUARE
ENCODING 9640
SWIDTH 460 0
DWIDTH 10 0
BBX 10 10 0 0
BITMAP
FFC0
FFC0
C3C0
C3C0
CCC0
CCC0
F0C0
F0C0
FFC0
FFC0
ENDCHAR
STARTCHAR SQUARE
ENCODING 9641
SWIDTH 460 0
DWIDTH 10 0
BBX 10 10 0 0
BITMAP
FFC0
FFC0
CCC0
CCC0
F3C0
F3C0
CCC0
CCC0
FFC0
FFC0
ENDCHAR
STARTCHAR BLACK
ENCODING 9642
SWIDTH 460 0
DWIDTH 10 0
BBX 10 10 0 0
BITMAP
FFC0
FFC0
FFC0
FFC0
FFC0
FFC0
FFC0
FFC0
FFC0
FFC0
ENDCHAR
STARTCHAR WHITE
ENCODING 9643
SWIDTH 460 0
DWIDTH 10 0
BBX 10 10 0 0
BITMAP
FFC0
FFC0
C0C0
C0C0
C0C0
C0C0
C0C0
C0C0
FFC0
FFC0
ENDCHAR
STARTCHAR BLACK
ENCODING 9644
SWIDTH 460 0
DWIDTH 10 0
BBX 10 6 0 0
BITMAP
FFC0
FFC0
FFC0
FFC0
FFC0
FFC0
ENDCHAR
STARTCHAR WHITE
ENCODING 9645
SWIDTH 460 0
DWIDTH 10 0
BBX 10 6 0 0
BITMAP
FFC0
FFC0
C0C0
C0C0
FFC0
FFC0
ENDCHAR
STARTCHAR BLACK
ENCODING 9646
SWIDTH 460 0
DWIDTH 10 0
BBX 8 14 0 0
BITMAP
FF
FF
FF
FF
FF
FF
FF
FF
FF
FF
FF
FF
FF
FF
ENDCHAR
STARTCHAR WHITE
ENCODING 9647
SWIDTH 460 0
DWIDTH 10 0
BBX 8 14 0 0
BITMAP
FF
FF
C3
C3
C3
C3
C3
C3
C3
C3
C3
C3
FF
FF
ENDCHAR
STARTCHAR BLACK
ENCODING 9648
SWIDTH 460 0
DWIDTH 10 0
BBX 12 6 0 0
BITMAP
3FF0
3FF0
FFF0
FFF0
FFC0
FFC0
ENDCHAR
STARTCHAR WHITE
ENCODING 9649
SWIDTH 460 0
DWIDTH 10 0
BBX 12 6 0 0
BITMAP
3FF0
3FF0
C030
C030
FFC0
FFC0
ENDCHAR
STARTCHAR char9650
ENCODING 9650
SWIDTH 460 0
DWIDTH 10 0
BBX 14 8 2 2
BITMAP
0300
0300
0FC0
0FC0
3FF0
3FF0
FFFC
FFFC
ENDCHAR
STARTCHAR char9651
ENCODING 9651
SWIDTH 460 0
DWIDTH 10 0
BBX 14 8 2 2
BITMAP
0300
0300
0CC0
0CC0
3030
3030
FFFC
FFFC
ENDCHAR
STARTCHAR char9652
ENCODING 9652
SWIDTH 460 0
DWIDTH 10 0
BBX 10 6 0 2
BITMAP
0C00
0C00
3F00
3F00
FFC0
FFC0
ENDCHAR
STARTCHAR char9653
ENCODING 9653
SWIDTH 460 0
DWIDTH 10 0
BBX 10 6 0 2
BITMAP
0C00
0C00
3300
3300
FFC0
FFC0
ENDCHAR
STARTCHAR char9654
ENCODING 9654
SWIDTH 460 0
DWIDTH 10 0
BBX 6 12 2 0
BITMAP
C0
C0
F0
F0
FC
FC
FC
FC
F0
F0
C0
C0
ENDCHAR
STARTCHAR char9655
ENCODING 9655
SWIDTH 460 0
DWIDTH 10 0
BBX 8 14 2 -2
BITMAP
C0
C0
F0
F0
CC
CC
C3
C3
CC
CC
F0
F0
C0
C0
ENDCHAR
STARTCHAR char9656
ENCODING 9656
SWIDTH 460 0
DWIDTH 10 0
BBX 6 10 2 0
BITMAP
C0
C0
F0
F0
FC
FC
F0
F0
C0
C0
ENDCHAR
STARTCHAR char9657
ENCODING 9657
SWIDTH 460 0
DWIDTH 10 0
BBX 6 10 2 0
BITMAP
C0
C0
F0
F0
CC
CC
F0
F0
C0
C0
ENDCHAR
STARTCHAR BLACK
ENCODING 9658
SWIDTH 460 0
DWIDTH 10 0
BBX 6 12 2 0
BITMAP
C0
C0
F0
F0
FC
FC
FC
FC
F0
F0
C0
C0
ENDCHAR
STARTCHAR WHITE
ENCODING 9659
SWIDTH 460 0
DWIDTH 10 0
BBX 14 10 -2 0
BITMAP
F000
F000
CFC0
CFC0
C03C
C03C
CFC0
CFC0
F000
F000
ENDCHAR
STARTCHAR char9660
ENCODING 9660
SWIDTH 460 0
DWIDTH 10 0
BBX 14 8 2 2
BITMAP
FFFC
FFFC
3FF0
3FF0
0FC0
0FC0
0300
0300
ENDCHAR
STARTCHAR char9661
ENCODING 9661
SWIDTH 460 0
DWIDTH 10 0
BBX 14 8 2 2
BITMAP
FFFC
FFFC
3030
3030
0CC0
0CC0
0300
0300
ENDCHAR
STARTCHAR char9662
ENCODING 9662
SWIDTH 460 0
DWIDTH 10 0
BBX 10 6 0 2
BITMAP
FFC0
FFC0
3F00
3F00
0C00
0C00
ENDCHAR
STARTCHAR char9663
ENCODING 9663
SWIDTH 460 0
DWIDTH 10 0
BBX 10 6 0 2
BITMAP
FFC0
FFC0
3300
3300
0C00
0C00
ENDCHAR
STARTCHAR char9664
ENCODING 9664
SWIDTH 460 0
DWIDTH 10 0
BBX 8 14 2 -2
BITMAP
03
03
0F
0F
3F
3F
FF
FF
3F
3F
0F
0F
03
03
ENDCHAR
STARTCHAR char9665
ENCODING 9665
SWIDTH 460 0
DWIDTH 10 0
BBX 8 14 2 -2
BITMAP
03
03
0F
0F
33
33
C3
C3
33
33
0F
0F
03
03
ENDCHAR
STARTCHAR char9666
ENCODING 9666
SWIDTH 460 0
DWIDTH 10 0
BBX 6 10 2 0
BITMAP
0C
0C
3C
3C
FC
FC
3C
3C
0C
0C
ENDCHAR
STARTCHAR char9667
ENCODING 9667
SWIDTH 460 0
DWIDTH 10 0
BBX 6 10 2 0
BITMAP
0C
0C
3C
3C
CC
CC
3C
3C
0C
0C
ENDCHAR
STARTCHAR BLACK
ENCODING 9668
SWIDTH 460 0
DWIDTH 10 0
BBX 6 12 2 0
BITMAP
0C
0C
3C
3C
FC
FC
FC
FC
3C
3C
0C
0C
ENDCHAR
STARTCHAR WHITE
ENCODING 9669
SWIDTH 460 0
DWIDTH 10 0
BBX 14 10 -2 0
BITMAP
003C
003C
0FCC
0FCC
F00C
F00C
0FCC
0FCC
003C
003C
ENDCHAR
STARTCHAR BLACK
ENCODING 9670
SWIDTH 460 0
DWIDTH 10 0
BBX 10 10 0 2
BITMAP
0C00
0C00
3F00
3F00
FFC0
FFC0
3F00
3F00
0C00
0C00
ENDCHAR
STARTCHAR WHITE
ENCODING 9671
SWIDTH 460 0
DWIDTH 10 0
BBX 10 10 0 2
BITMAP
0C00
0C00
3300
3300
C0C0
C0C0
3300
3300
0C00
0C00
ENDCHAR
STARTCHAR WHITE
ENCODING 9672
SWIDTH 460 0
DWIDTH 10 0
BBX 10 10 0 2
BITMAP
0C00
0C00
3300
3300
CCC0
CCC0
3300
3300
0C00
0C00
ENDCHAR
STARTCHAR FISHEYE
ENCODING 9673
SWIDTH 460 0
DWIDTH 10 0
BBX 10 10 0 2
BITMAP
3F00
3F00
C0C0
C0C0
CCC0
CCC0
C0C0
C0C0
3F00
3F00
ENDCHAR
STARTCHAR LOZENGE
ENCODING 9674
SWIDTH 460 0
DWIDTH 10 0
BBX 10 14 0 0
BITMAP
0C00
0C00
3300
3300
3300
3300
C0C0
C0C0
3300
3300
3300
3300
0C00
0C00
ENDCHAR
STARTCHAR WHITE
ENCODING 9675
SWIDTH 460 0
DWIDTH 10 0
BBX 10 10 0 2
BITMAP
3F00
3F00
C0C0
C0C0
C0C0
C0C0
C0C0
C0C0
3F00
3F00
ENDCHAR
STARTCHAR DOTTED
ENCODING 9676
SWIDTH 460 0
DWIDTH 10 0
BBX 10 10 0 2
BITMAP
3300
3300
C0C0
C0C0
0000
0000
C0C0
C0C0
3300
3300
ENDCHAR
STARTCHAR CIRCLE
ENCODING 9677
SWIDTH 460 0
DWIDTH 10 0
BBX 10 10 0 2
BITMAP
3F00
3F00
CCC0
CCC0
CCC0
CCC0
CCC0
CCC0
3F00
3F00
ENDCHAR
STARTCHAR BULLSEYE
ENCODING 9678
SWIDTH 460 0
DWIDTH 10 0
BBX 10 10 0 2
BITMAP
3F00
3F00
C0C0
C0C0
CCC0
CCC0
C0C0
C0C0
3F00
3F00
ENDCHAR
STARTCHAR BLACK
ENCODING 9679
SWIDTH 460 0
DWIDTH 10 0
BBX 10 10 0 2
BITMAP
3F00
3F00
FFC0
FFC0
FFC0
FFC0
FFC0
FFC0
3F00
3F00
ENDCHAR
STARTCHAR CIRCLE
ENCODING 9680
SWIDTH 460 0
DWIDTH 10 0
BBX 8 8 2 4
BITMAP
3C
3C
F3
F3
F3
F3
3C
3C
ENDCHAR
STARTCHAR CIRCLE
ENCODING 9681
SWIDTH 460 0
DWIDTH 10 0
BBX 8 8 2 4
BITMAP
3C
3C
CF
CF
CF
CF
3C
3C
ENDCHAR
STARTCHAR CIRCLE
ENCODING 9682
SWIDTH 460 0
DWIDTH 10 0
BBX 8 8 2 4
BITMAP
3C
3C
FF
FF
C3
C3
3C
3C
ENDCHAR
STARTCHAR CIRCLE
ENCODING 9683
SWIDTH 460 0
DWIDTH 10 0
BBX 8 8 2 4
BITMAP
3C
3C
C3
C3
FF
FF
3C
3C
ENDCHAR
STARTCHAR CIRCLE
ENCODING 9684
SWIDTH 460 0
DWIDTH 10 0
BBX 8 8 2 4
BITMAP
3C
3C
CF
CF
C3
C3
3C
3C
ENDCHAR
STARTCHAR CIRCLE
ENCODING 9685
SWIDTH 460 0
DWIDTH 10 0
BBX 8 8 2 4
BITMAP
3C
3C
CF
CF
FF
FF
3C
3C
ENDCHAR
STARTCHAR LEFT
ENCODING 9686
SWIDTH 460 0
DWIDTH 10 0
BBX 4 8 2 4
BITMAP
30
30
F0
F0
F0
F0
30
30
ENDCHAR
STARTCHAR RIGHT
ENCODING 9687
SWIDTH 460 0
DWIDTH 10 0
BBX 4 8 6 4
BITMAP
C0
C0
F0
F0
F0
F0
C0
C0
ENDCHAR
STARTCHAR INVERSE
ENCODING 9688
SWIDTH 460 0
DWIDTH 10 0
BBX 12 22 0 -4
BITMAP
FFF0
FFF0
FFF0
FFF0
FFF0
FFF0
FFF0
FFF0
F0F0
F0F0
C030
C030
C030
C030
F0F0
F0F0
FFF0
FFF0
FFF0
FFF0
FFF0
FFF0
ENDCHAR
STARTCHAR INVERSE
ENCODING 9689
SWIDTH 460 0
DWIDTH 10 0
BBX 14 14 -2 0
BITMAP
FFFC
FFFC
F03C
F03C
CFCC
CFCC
CFCC
CFCC
CFCC
CFCC
F03C
F03C
FFFC
FFFC
ENDCHAR
STARTCHAR UPPER
ENCODING 9690
SWIDTH 460 0
DWIDTH 10 0
BBX 14 8 -2 6
BITMAP
FFFC
FFFC
F03C
F03C
CFCC
CFCC
CFCC
CFCC
ENDCHAR
STARTCHAR LOWER
ENCODING 9691
SWIDTH 460 0
DWIDTH 10 0
BBX 14 8 -2 0
BITMAP
CFCC
CFCC
CFCC
CFCC
F03C
F03C
FFFC
FFFC
ENDCHAR
STARTCHAR UPPER
ENCODING 9692
SWIDTH 460 0
DWIDTH 10 0
BBX 6 6 0 6
BITMAP
3C
3C
C0
C0
C0
C0
ENDCHAR
STARTCHAR UPPER
ENCODING 9693
SWIDTH 460 0
DWIDTH 10 0
BBX 6 6 4 6
BITMAP
F0
F0
0C
0C
0C
0C
ENDCHAR
STARTCHAR LOWER
ENCODING 9694
SWIDTH 460 0
DWIDTH 10 0
BBX 6 6 4 2
BITMAP
0C
0C
0C
0C
F0
F0
ENDCHAR
STARTCHAR LOWER
ENCODING 9695
SWIDTH 460 0
DWIDTH 10 0
BBX 6 6 0 2
BITMAP
C0
C0
C0
C0
3C
3C
ENDCHAR
STARTCHAR UPPER
ENCODING 9696
SWIDTH 460 0
DWIDTH 10 0
BBX 10 6 0 6
BITMAP
3F00
3F00
C0C0
C0C0
C0C0
C0C0
ENDCHAR
STARTCHAR LOWER
ENCODING 9697
SWIDTH 460 0
DWIDTH 10 0
BBX 12 6 0 2
BITMAP
C030
C030
3030
3030
0FC0
0FC0
ENDCHAR
STARTCHAR BLACK
ENCODING 9698
SWIDTH 460 0
DWIDTH 10 0
BBX 12 12 0 0
BITMAP
0030
0030
00F0
00F0
03F0
03F0
0FF0
0FF0
3FF0
3FF0
FFF0
FFF0
ENDCHAR
STARTCHAR BLACK
ENCODING 9699
SWIDTH 460 0
DWIDTH 10 0
BBX 12 12 0 0
BITMAP
C000
C000
F000
F000
FC00
FC00
FF00
FF00
FFC0
FFC0
FFF0
FFF0
ENDCHAR
STARTCHAR BLACK
ENCODING 9700
SWIDTH 460 0
DWIDTH 10 0
BBX 12 12 0 0
BITMAP
FFF0
FFF0
FFC0
FFC0
FF00
FF00
FC00
FC00
F000
F000
C000
C000
ENDCHAR
STARTCHAR BLACK
ENCODING 9701
SWIDTH 460 0
DWIDTH 10 0
BBX 12 12 0 0
BITMAP
FFF0
FFF0
3FF0
3FF0
0FF0
0FF0
03F0
03F0
00F0
00F0
0030
0030
ENDCHAR
STARTCHAR WHITE
ENCODING 9702
SWIDTH 460 0
DWIDTH 10 0
BBX 10 10 0 2
BITMAP
3F00
3F00
C0C0
C0C0
C0C0
C0C0
C0C0
C0C0
3F00
3F00
ENDCHAR
STARTCHAR SQUARE
ENCODING 9703
SWIDTH 460 0
DWIDTH 10 0
BBX 10 10 0 0
BITMAP
FFC0
FFC0
F0C0
F0C0
F0C0
F0C0
F0C0
F0C0
FFC0
FFC0
ENDCHAR
STARTCHAR SQUARE
ENCODING 9704
SWIDTH 460 0
DWIDTH 10 0
BBX 10 10 0 0
BITMAP
FFC0
FFC0
C3C0
C3C0
C3C0
C3C0
C3C0
C3C0
FFC0
FFC0
ENDCHAR
STARTCHAR SQUARE
ENCODING 9705
SWIDTH 460 0
DWIDTH 10 0
BBX 10 10 0 0
BITMAP
FFC0
FFC0
FCC0
FCC0
F0C0
F0C0
C0C0
C0C0
FFC0
FFC0
ENDCHAR
STARTCHAR SQUARE
ENCODING 9706
SWIDTH 460 0
DWIDTH 10 0
BBX 10 10 0 0
BITMAP
FFC0
FFC0
C0C0
C0C0
C3C0
C3C0
CFC0
CFC0
FFC0
FFC0
ENDCHAR
STARTCHAR WHITE
ENCODING 9707
SWIDTH 460 0
DWIDTH 10 0
BBX 10 10 0 0
BITMAP
FFC0
FFC0
CCC0
CCC0
CCC0
CCC0
CCC0
CCC0
FFC0
FFC0
ENDCHAR
STARTCHAR WHITE
ENCODING 9708
SWIDTH 460 0
DWIDTH 10 0
BBX 10 14 0 0
BITMAP
0C00
0C00
0C00
0C00
3300
3300
3300
3300
CCC0
CCC0
C0C0
C0C0
FFC0
FFC0
ENDCHAR
STARTCHAR UP-POINTING
ENCODING 9709
SWIDTH 460 0
DWIDTH 10 0
BBX 10 12 0 0
BITMAP
0C00
0C00
0C00
0C00
3F00
3F00
3F00
3F00
FCC0
FCC0
FFC0
FFC0
ENDCHAR
STARTCHAR UP-POINTING
ENCODING 9710
SWIDTH 460 0
DWIDTH 10 0
BBX 10 12 0 0
BITMAP
0C00
0C00
0C00
0C00
3F00
3F00
3F00
3F00
CFC0
CFC0
FFC0
FFC0
ENDCHAR
STARTCHAR LARGE
ENCODING 9711
SWIDTH 460 0
DWIDTH 10 0
BBX 10 10 0 0
BITMAP
3F00
3F00
C0C0
C0C0
C0C0
C0C0
C0C0
C0C0
3F00
3F00
ENDCHAR
STARTCHAR WHITE
ENCODING 9712
SWIDTH 460 0
DWIDTH 10 0
BBX 10 10 0 0
BITMAP
FFC0
FFC0
CCC0
CCC0
FCC0
FCC0
C0C0
C0C0
FFC0
FFC0
ENDCHAR
STARTCHAR WHITE
ENCODING 9713
SWIDTH 460 0
DWIDTH 10 0
BBX 10 10 0 0
BITMAP
FFC0
FFC0
C0C0
C0C0
FCC0
FCC0
CCC0
CCC0
FFC0
FFC0
ENDCHAR
STARTCHAR WHITE
ENCODING 9714
SWIDTH 460 0
DWIDTH 10 0
BBX 10 10 0 0
BITMAP
FFC0
FFC0
C0C0
C0C0
CFC0
CFC0
CCC0
CCC0
FFC0
FFC0
ENDCHAR
STARTCHAR WHITE
ENCODING 9715
SWIDTH 460 0
DWIDTH 10 0
BBX 10 10 0 0
BITMAP
FFC0
FFC0
CCC0
CCC0
CFC0
CFC0
C0C0
C0C0
FFC0
FFC0
ENDCHAR
STARTCHAR WHITE
ENCODING 9716
SWIDTH 460 0
DWIDTH 10 0
BBX 10 10 0 0
BITMAP
3F00
3F00
CCC0
CCC0
FCC0
FCC0
C0C0
C0C0
3F00
3F00
ENDCHAR
STARTCHAR WHITE
ENCODING 9717
SWIDTH 460 0
DWIDTH 10 0
BBX 10 10 0 0
BITMAP
3F00
3F00
C0C0
C0C0
FCC0
FCC0
CCC0
CCC0
3F00
3F00
ENDCHAR
STARTCHAR WHITE
ENCODING 9718
SWIDTH 460 0
DWIDTH 10 0
BBX 10 10 0 0
BITMAP
3F00
3F00
C0C0
C0C0
CFC0
CFC0
CCC0
CCC0
3F00
3F00
ENDCHAR
STARTCHAR WHITE
ENCODING 9719
SWIDTH 460 0
DWIDTH 10 0
BBX 10 10 0 0
BITMAP
3F00
3F00
CCC0
CCC0
CFC0
CFC0
C0C0
C0C0
3F00
3F00
ENDCHAR
STARTCHAR UPPER
ENCODING 9720
SWIDTH 460 0
DWIDTH 10 0
BBX 8 8 0 6
BITMAP
FF
FF
CC
CC
F0
F0
C0
C0
ENDCHAR
STARTCHAR UPPER
ENCODING 9721
SWIDTH 460 0
DWIDTH 10 0
BBX 8 8 4 6
BITMAP
FF
FF
33
33
0F
0F
03
03
ENDCHAR
STARTCHAR LOWER
ENCODING 9722
SWIDTH 460 0
DWIDTH 10 0
BBX 8 8 0 0
BITMAP
C0
C0
F0
F0
CC
CC
FF
FF
ENDCHAR
STARTCHAR WHITE
ENCODING 9723
SWIDTH 460 0
DWIDTH 10 0
BBX 12 12 0 0
BITMAP
FFF0
FFF0
C030
C030
C030
C030
C030
C030
C030
C030
FFF0
FFF0
ENDCHAR
STARTCHAR BLACK
ENCODING 9724
SWIDTH 460 0
DWIDTH 10 0
BBX 12 12 0 0
BITMAP
FFF0
FFF0
FFF0
FFF0
FFF0
FFF0
FFF0
FFF0
FFF0
FFF0
FFF0
FFF0
ENDCHAR
STARTCHAR WHITE
ENCODING 9725
SWIDTH 460 0
DWIDTH 10 0
BBX 10 10 0 2
BITMAP
FFC0
FFC0
C0C0
C0C0
C0C0
C0C0
C0C0
C0C0
FFC0
FFC0
ENDCHAR
STARTCHAR BLACK
ENCODING 9726
SWIDTH 460 0
DWIDTH 10 0
BBX 10 10 0 2
BITMAP
FFC0
FFC0
FFC0
FFC0
FFC0
FFC0
FFC0
FFC0
FFC0
FFC0
ENDCHAR
STARTCHAR LOWER
ENCODING 9727
SWIDTH 460 0
DWIDTH 10 0
BBX 8 8 4 0
BITMAP
03
03
0F
0F
33
33
FF
FF
ENDCHAR
STARTCHAR char9728
ENCODING 9728
SWIDTH 460 0
DWIDTH 10 0
BBX 10 14 0 -2
BITMAP
0C00
0C00
0000
0000
CCC0
CCC0
3F00
3F00
CCC0
CCC0
0000
0000
0C00
0C00
ENDCHAR
STARTCHAR char9729
ENCODING 9729
SWIDTH 460 0
DWIDTH 10 0
BBX 10 6 0 4
BITMAP
3300
3300
3FC0
3FC0
FFC0
FFC0
ENDCHAR
STARTCHAR char9730
ENCODING 9730
SWIDTH 460 0
DWIDTH 10 0
BBX 10 10 0 0
BITMAP
3F00
3F00
FFC0
FFC0
0C00
0C00
0C00
0C00
3000
3000
ENDCHAR
STARTCHAR char9732
ENCODING 9732
SWIDTH 460 0
DWIDTH 10 0
BBX 12 12 0 0
BITMAP
0C00
0C00
30C0
30C0
0300
0300
3030
3030
CCC0
CCC0
3000
3000
ENDCHAR
STARTCHAR char9733
ENCODING 9733
SWIDTH 460 0
DWIDTH 10 0
BBX 10 12 0 0
BITMAP
0C00
0C00
0C00
0C00
FFC0
FFC0
3F00
3F00
3F00
3F00
C0C0
C0C0
ENDCHAR
STARTCHAR char9734
ENCODING 9734
SWIDTH 460 0
DWIDTH 10 0
BBX 10 12 0 0
BITMAP
0C00
0C00
0C00
0C00
F3C0
F3C0
3300
3300
3F00
3F00
C0C0
C0C0
ENDCHAR
STARTCHAR char9773
ENCODING 9773
SWIDTH 460 0
DWIDTH 10 0
BBX 10 14 0 -2
BITMAP
3F00
3F00
C0C0
C0C0
0CC0
0CC0
3CC0
3CC0
0300
0300
3CC0
3CC0
C000
C000
ENDCHAR
STARTCHAR BLACK
ENCODING 9824
SWIDTH 460 0
DWIDTH 10 0
BBX 10 16 0 -2
BITMAP
0C00
0C00
0C00
0C00
3F00
3F00
FFC0
FFC0
FFC0
FFC0
3F00
3F00
0C00
0C00
3F00
3F00
ENDCHAR
STARTCHAR WHITE
ENCODING 9825
SWIDTH 460 0
DWIDTH 10 0
BBX 10 10 0 0
BITMAP
3300
3300
CCC0
CCC0
C0C0
C0C0
3300
3300
0C00
0C00
ENDCHAR
STARTCHAR WHITE
ENCODING 9826
SWIDTH 460 0
DWIDTH 10 0
BBX 10 12 0 0
BITMAP
0C00
0C00
3300
3300
C0C0
C0C0
C0C0
C0C0
3300
3300
0C00
0C00
ENDCHAR
STARTCHAR BLACK
ENCODING 9827
SWIDTH 460 0
DWIDTH 10 0
BBX 10 16 0 -2
BITMAP
3F00
3F00
3F00
3F00
0C00
0C00
FFC0
FFC0
FFC0
FFC0
FFC0
FFC0
0C00
0C00
3F00
3F00
ENDCHAR
STARTCHAR WHITE
ENCODING 9828
SWIDTH 460 0
DWIDTH 10 0
BBX 10 16 0 -2
BITMAP
0C00
0C00
0C00
0C00
3300
3300
C0C0
C0C0
C0C0
C0C0
3F00
3F00
0C00
0C00
3F00
3F00
ENDCHAR
STARTCHAR BLACK
ENCODING 9829
SWIDTH 460 0
DWIDTH 10 0
BBX 14 12 0 0
BITMAP
3CF0
3CF0
FFFC
FFFC
FFFC
FFFC
3FF0
3FF0
0FC0
0FC0
0300
0300
ENDCHAR
STARTCHAR BLACK
ENCODING 9830
SWIDTH 460 0
DWIDTH 10 0
BBX 10 18 0 -4
BITMAP
0C00
0C00
0C00
0C00
3F00
3F00
3F00
3F00
FFC0
FFC0
3F00
3F00
3F00
3F00
0C00
0C00
0C00
0C00
ENDCHAR
STARTCHAR WHITE
ENCODING 9831
SWIDTH 460 0
DWIDTH 10 0
BBX 10 16 0 -2
BITMAP
3F00
3F00
3300
3300
0C00
0C00
FFC0
FFC0
CCC0
CCC0
FFC0
FFC0
0C00
0C00
3F00
3F00
ENDCHAR
STARTCHAR char9833
ENCODING 9833
SWIDTH 460 0
DWIDTH 10 0
BBX 4 12 2 0
BITMAP
30
30
30
30
30
30
30
30
F0
F0
F0
F0
ENDCHAR
STARTCHAR char9834
ENCODING 9834
SWIDTH 460 0
DWIDTH 10 0
BBX 8 12 2 0
BITMAP
3C
3C
33
33
33
33
30
30
F0
F0
F0
F0
ENDCHAR
STARTCHAR char9835
ENCODING 9835
SWIDTH 460 0
DWIDTH 10 0
BBX 12 12 0 0
BITMAP
3FF0
3FF0
3030
3030
3030
3030
3030
3030
F0F0
F0F0
F0F0
F0F0
ENDCHAR
STARTCHAR char9836
ENCODING 9836
SWIDTH 460 0
DWIDTH 10 0
BBX 12 12 0 0
BITMAP
3FF0
3FF0
3030
3030
3FF0
3FF0
3030
3030
F0F0
F0F0
F0F0
F0F0
ENDCHAR
STARTCHAR char9837
ENCODING 9837
SWIDTH 460 0
DWIDTH 10 0
BBX 6 12 0 0
BITMAP
C0
C0
C0
C0
C0
C0
FC
FC
CC
CC
F0
F0
ENDCHAR
STARTCHAR MUSIC
ENCODING 9838
SWIDTH 460 0
DWIDTH 10 0
BBX 8 12 0 0
BITMAP
C0
C0
CF
CF
F3
F3
CF
CF
F3
F3
03
03
ENDCHAR
STARTCHAR char9839
ENCODING 9839
SWIDTH 460 0
DWIDTH 10 0
BBX 10 12 0 0
BITMAP
0300
0300
33C0
33C0
F300
F300
33C0
33C0
F300
F300
3000
3000
ENDCHAR
STARTCHAR char9992
ENCODING 9992
SWIDTH 460 0
DWIDTH 10 0
BBX 12 10 -2 0
BITMAP
0C00
0C00
C300
C300
FFF0
FFF0
C300
C300
0C00
0C00
ENDCHAR
STARTCHAR char10003
ENCODING 10003
SWIDTH 460 0
DWIDTH 10 0
BBX 10 14 0 -2
BITMAP
00C0
00C0
0300
0300
0300
0300
CC00
CC00
CC00
CC00
3000
3000
3000
3000
ENDCHAR
STARTCHAR HEAVY
ENCODING 10004
SWIDTH 460 0
DWIDTH 10 0
BBX 12 16 0 -2
BITMAP
0030
0030
00C0
00C0
00C0
00C0
F300
F300
3300
3300
3300
3300
0C00
0C00
0C00
0C00
ENDCHAR
STARTCHAR MULTIPLICATION
ENCODING 10005
SWIDTH 460 0
DWIDTH 10 0
BBX 10 10 0 0
BITMAP
C0C0
C0C0
3300
3300
0C00
0C00
3300
3300
C0C0
C0C0
ENDCHAR
STARTCHAR HEAVY
ENCODING 10006
SWIDTH 460 0
DWIDTH 10 0
BBX 10 10 0 0
BITMAP
F3C0
F3C0
3300
3300
0C00
0C00
3300
3300
F3C0
F3C0
ENDCHAR
STARTCHAR BALLOT
ENCODING 10007
SWIDTH 460 0
DWIDTH 10 0
BBX 10 14 0 0
BITMAP
00C0
00C0
30C0
30C0
3300
3300
0C00
0C00
3300
3300
C300
C300
C000
C000
ENDCHAR
STARTCHAR HEAVY
ENCODING 10008
SWIDTH 460 0
DWIDTH 10 0
BBX 10 14 0 0
BITMAP
00C0
00C0
33C0
33C0
3F00
3F00
0C00
0C00
3F00
3F00
F300
F300
C000
C000
ENDCHAR
STARTCHAR HEAVY
ENCODING 10010
SWIDTH 460 0
DWIDTH 10 0
BBX 12 12 0 0
BITMAP
0F00
0F00
0F00
0F00
FFF0
FFF0
FFF0
FFF0
0F00
0F00
0F00
0F00
ENDCHAR
STARTCHAR OPEN
ENCODING 10011
SWIDTH 460 0
DWIDTH 10 0
BBX 10 10 0 2
BITMAP
0C00
0C00
0C00
0C00
F3C0
F3C0
0C00
0C00
0C00
0C00
ENDCHAR
STARTCHAR HEAVY
ENCODING 10012
SWIDTH 460 0
DWIDTH 10 0
BBX 12 12 0 0
BITMAP
0F00
0F00
0F00
0F00
F0F0
F0F0
F0F0
F0F0
0F00
0F00
0F00
0F00
ENDCHAR
STARTCHAR LATIN
ENCODING 10013
SWIDTH 460 0
DWIDTH 10 0
BBX 10 12 0 0
BITMAP
0C00
0C00
0C00
0C00
FFC0
FFC0
0C00
0C00
0C00
0C00
0C00
0C00
ENDCHAR
STARTCHAR SHADOWED
ENCODING 10014
SWIDTH 460 0
DWIDTH 10 0
BBX 12 14 0 0
BITMAP
0F00
0F00
0F00
0F00
FFF0
FFF0
FFF0
FFF0
0F00
0F00
0F00
0F00
0F00
0F00
ENDCHAR
STARTCHAR CIRCLED
ENCODING 10026
SWIDTH 460 0
DWIDTH 10 0
BBX 14 16 -2 -2
BITMAP
3FF0
3FF0
FCFC
FCFC
FCFC
FCFC
C00C
C00C
F03C
F03C
CFCC
CFCC
FFFC
FFFC
3FF0
3FF0
ENDCHAR
STARTCHAR OPEN
ENCODING 10027
SWIDTH 460 0
DWIDTH 10 0
BBX 10 10 0 4
BITMAP
0C00
0C00
0C00
0C00
F3C0
F3C0
3F00
3F00
C0C0
C0C0
ENDCHAR
STARTCHAR EIGHT
ENCODING 10035
SWIDTH 460 0
DWIDTH 10 0
BBX 10 14 0 -2
BITMAP
0C00
0C00
CCC0
CCC0
3F00
3F00
FFC0
FFC0
3F00
3F00
CCC0
CCC0
0C00
0C00
ENDCHAR
STARTCHAR SIX
ENCODING 10038
SWIDTH 460 0
DWIDTH 10 0
BBX 10 12 0 0
BITMAP
0C00
0C00
CCC0
CCC0
3F00
3F00
3F00
3F00
CCC0
CCC0
0C00
0C00
ENDCHAR
STARTCHAR LOWER
ENCODING 10063
SWIDTH 460 0
DWIDTH 10 0
BBX 12 12 0 2
BITMAP
FFC0
FFC0
C0F0
C0F0
C0F0
C0F0
C0F0
C0F0
FFF0
FFF0
3FF0
3FF0
ENDCHAR
STARTCHAR UPPER
ENCODING 10064
SWIDTH 460 0
DWIDTH 10 0
BBX 12 12 0 2
BITMAP
3FF0
3FF0
FFF0
FFF0
C0F0
C0F0
C0F0
C0F0
C0F0
C0F0
FFC0
FFC0
ENDCHAR
STARTCHAR LOWER
ENCODING 10065
SWIDTH 460 0
DWIDTH 10 0
BBX 12 12 0 2
BITMAP
FFC0
FFC0
C0F0
C0F0
C0F0
C0F0
C0F0
C0F0
FFF0
FFF0
3FF0
3FF0
ENDCHAR
STARTCHAR UPPER
ENCODING 10066
SWIDTH 460 0
DWIDTH 10 0
BBX 12 12 0 2
BITMAP
3FF0
3FF0
FFF0
FFF0
C0F0
C0F0
C0F0
C0F0
C0F0
C0F0
FFC0
FFC0
ENDCHAR
STARTCHAR char10075
ENCODING 10075
SWIDTH 460 0
DWIDTH 10 0
BBX 4 8 4 6
BITMAP
30
30
C0
C0
F0
F0
F0
F0
ENDCHAR
STARTCHAR char10076
ENCODING 10076
SWIDTH 460 0
DWIDTH 10 0
BBX 4 8 4 6
BITMAP
F0
F0
F0
F0
30
30
C0
C0
ENDCHAR
STARTCHAR char10077
ENCODING 10077
SWIDTH 460 0
DWIDTH 10 0
BBX 10 8 2 6
BITMAP
30C0
30C0
C300
C300
F3C0
F3C0
F3C0
F3C0
ENDCHAR
STARTCHAR char10078
ENCODING 10078
SWIDTH 460 0
DWIDTH 10 0
BBX 10 8 2 6
BITMAP
F3C0
F3C0
F3C0
F3C0
30C0
30C0
C300
C300
ENDCHAR
STARTCHAR HEAVY
ENCODING 10080
SWIDTH 460 0
DWIDTH 10 0
BBX 10 8 0 -4
BITMAP
F3C0
F3C0
F3C0
F3C0
30C0
30C0
C300
C300
ENDCHAR
STARTCHAR HEAVY
ENCODING 10084
SWIDTH 460 0
DWIDTH 10 0
BBX 14 12 0 0
BITMAP
3CF0
3CF0
FFFC
FFFC
FFFC
FFFC
3FF0
3FF0
0FC0
0FC0
0300
0300
ENDCHAR
STARTCHAR MEDIUM
ENCODING 10092
SWIDTH 460 0
DWIDTH 10 0
BBX 10 14 0 0
BITMAP
03C0
03C0
0F00
0F00
3C00
3C00
F000
F000
3C00
3C00
0F00
0F00
03C0
03C0
ENDCHAR
STARTCHAR MEDIUM
ENCODING 10093
SWIDTH 460 0
DWIDTH 10 0
BBX 10 14 0 0
BITMAP
F000
F000
3C00
3C00
0F00
0F00
03C0
03C0
0F00
0F00
3C00
3C00
F000
F000
ENDCHAR
STARTCHAR HEAVY
ENCODING 10094
SWIDTH 460 0
DWIDTH 10 0
BBX 12 16 0 -2
BITMAP
03F0
03F0
0FC0
0FC0
3F00
3F00
FC00
FC00
FC00
FC00
3F00
3F00
0FC0
0FC0
03F0
03F0
ENDCHAR
STARTCHAR HEAVY
ENCODING 10095
SWIDTH 460 0
DWIDTH 10 0
BBX 12 16 0 -2
BITMAP
FC00
FC00
3F00
3F00
0FC0
0FC0
03F0
03F0
03F0
03F0
0FC0
0FC0
3F00
3F00
FC00
FC00
ENDCHAR
STARTCHAR HEAVY
ENCODING 10096
SWIDTH 460 0
DWIDTH 10 0
BBX 12 16 0 -2
BITMAP
0FF0
0FF0
3FC0
3FC0
FF00
FF00
FC00
FC00
FC00
FC00
FF00
FF00
3FC0
3FC0
0FF0
0FF0
ENDCHAR
STARTCHAR HEAVY
ENCODING 10097
SWIDTH 460 0
DWIDTH 10 0
BBX 12 16 0 -2
BITMAP
FF00
FF00
3FC0
3FC0
0FF0
0FF0
03F0
03F0
03F0
03F0
0FF0
0FF0
3FC0
3FC0
FF00
FF00
ENDCHAR
STARTCHAR HEAVY
ENCODING 10102
SWIDTH 460 0
DWIDTH 10 0
BBX 12 16 0 -2
BITMAP
FF00
FF00
3FC0
3FC0
0FF0
0FF0
03F0
03F0
03F0
03F0
0FF0
0FF0
3FC0
3FC0
FF00
FF00
ENDCHAR
STARTCHAR DINGBAT
ENCODING 10122
SWIDTH 460 0
DWIDTH 10 0
BBX 12 16 0 -2
BITMAP
3FC0
3FC0
F0F0
F0F0
FCF0
FCF0
FCF0
FCF0
FCF0
FCF0
FCF0
FCF0
F030
F030
3FC0
3FC0
ENDCHAR
STARTCHAR DINGBAT
ENCODING 10123
SWIDTH 460 0
DWIDTH 10 0
BBX 12 16 0 -2
BITMAP
3FC0
3FC0
F0F0
F0F0
CF30
CF30
FF30
FF30
FCF0
FCF0
F3F0
F3F0
C030
C030
3FC0
3FC0
ENDCHAR
STARTCHAR DINGBAT
ENCODING 10124
SWIDTH 460 0
DWIDTH 10 0
BBX 12 16 0 -2
BITMAP
3FC0
3FC0
C0F0
C0F0
FF30
FF30
F0F0
F0F0
FF30
FF30
FF30
FF30
C0F0
C0F0
3FC0
3FC0
ENDCHAR
STARTCHAR DINGBAT
ENCODING 10125
SWIDTH 460 0
DWIDTH 10 0
BBX 12 16 0 -2
BITMAP
3FC0
3FC0
FC30
FC30
F330
F330
CF30
CF30
C030
C030
FF30
FF30
FF30
FF30
3FC0
3FC0
ENDCHAR
STARTCHAR DINGBAT
ENCODING 10126
SWIDTH 460 0
DWIDTH 10 0
BBX 12 16 0 -2
BITMAP
3FC0
3FC0
C030
C030
CFF0
CFF0
C0F0
C0F0
FF30
FF30
FF30
FF30
C0F0
C0F0
3FC0
3FC0
ENDCHAR
STARTCHAR DINGBAT
ENCODING 10127
SWIDTH 460 0
DWIDTH 10 0
BBX 12 16 0 -2
BITMAP
3FC0
3FC0
F0F0
F0F0
CFF0
CFF0
C0F0
C0F0
CF30
CF30
CF30
CF30
F0F0
F0F0
3FC0
3FC0
ENDCHAR
STARTCHAR DINGBAT
ENCODING 10128
SWIDTH 460 0
DWIDTH 10 0
BBX 12 16 0 -2
BITMAP
3FC0
3FC0
C030
C030
FF30
FF30
FCF0
FCF0
FCF0
FCF0
F3F0
F3F0
F3F0
F3F0
3FC0
3FC0
ENDCHAR
STARTCHAR DINGBAT
ENCODING 10129
SWIDTH 460 0
DWIDTH 10 0
BBX 12 16 0 -2
BITMAP
3FC0
3FC0
F0F0
F0F0
CF30
CF30
F0F0
F0F0
CF30
CF30
CF30
CF30
F0F0
F0F0
3FC0
3FC0
ENDCHAR
STARTCHAR DINGBAT
ENCODING 10130
SWIDTH 460 0
DWIDTH 10 0
BBX 12 16 0 -2
BITMAP
3FC0
3FC0
F0F0
F0F0
CF30
CF30
CF30
CF30
F030
F030
FF30
FF30
F0F0
F0F0
3FC0
3FC0
ENDCHAR
STARTCHAR DINGBAT
ENCODING 10131
SWIDTH 460 0
DWIDTH 10 0
BBX 14 16 0 -2
BITMAP
3FF0
3FF0
CF3C
CF3C
CCCC
CCCC
CCCC
CCCC
CCCC
CCCC
CCCC
CCCC
CF3C
CF3C
3FF0
3FF0
ENDCHAR
STARTCHAR HEAVY
ENCODING 10132
SWIDTH 460 0
DWIDTH 10 0
BBX 10 10 0 0
BITMAP
0C00
0C00
0300
0300
FFC0
FFC0
0300
0300
0C00
0C00
ENDCHAR
STARTCHAR HEAVY
ENCODING 10133
SWIDTH 460 0
DWIDTH 10 0
BBX 12 12 0 0
BITMAP
0F00
0F00
0F00
0F00
FFF0
FFF0
FFF0
FFF0
0F00
0F00
0F00
0F00
ENDCHAR
STARTCHAR HEAVY
ENCODING 10134
SWIDTH 460 0
DWIDTH 10 0
BBX 12 4 0 4
BITMAP
FFF0
FFF0
FFF0
FFF0
ENDCHAR
STARTCHAR HEAVY
ENCODING 10135
SWIDTH 460 0
DWIDTH 10 0
BBX 12 12 0 0
BITMAP
0F00
0F00
0000
0000
FFF0
FFF0
FFF0
FFF0
0000
0000
0F00
0F00
ENDCHAR
STARTCHAR HEAVY
ENCODING 10136
SWIDTH 460 0
DWIDTH 10 0
BBX 10 10 0 0
BITMAP
C000
C000
3000
3000
0CC0
0CC0
03C0
03C0
0FC0
0FC0
ENDCHAR
STARTCHAR HEAVY
ENCODING 10137
SWIDTH 460 0
DWIDTH 10 0
BBX 10 6 0 2
BITMAP
0300
0300
FFC0
FFC0
0300
0300
ENDCHAR
STARTCHAR HEAVY
ENCODING 10138
SWIDTH 460 0
DWIDTH 10 0
BBX 10 10 0 0
BITMAP
0FC0
0FC0
03C0
03C0
0CC0
0CC0
3000
3000
C000
C000
ENDCHAR
STARTCHAR DRAFTING
ENCODING 10139
SWIDTH 460 0
DWIDTH 10 0
BBX 16 10 -4 0
BITMAP
0300
0300
00F0
00F0
FFFF
FFFF
00F0
00F0
0300
0300
ENDCHAR
STARTCHAR char11104
ENCODING 11104
SWIDTH 460 0
DWIDTH 10 0
BBX 10 16 2 -2
BITMAP
C300
C300
CFC0
CFC0
C300
C300
C300
C300
FC00
FC00
C000
C000
C000
C000
C000
C000
ENDCHAR
STARTCHAR char11105
ENCODING 11105
SWIDTH 460 0
DWIDTH 10 0
BBX 8 18 2 -2
BITMAP
C0
C0
C0
C0
C0
C0
FF
FF
00
00
C3
C3
F3
F3
CF
CF
C3
C3
ENDCHAR
STARTCHAR char11106
ENCODING 11106
SWIDTH 460 0
DWIDTH 10 0
BBX 10 16 2 -2
BITMAP
3FC0
3FC0
C000
C000
C3C0
C3C0
C3C0
C3C0
C000
C000
C3C0
C3C0
C0C0
C0C0
F000
F000
ENDCHAR
STARTCHAR char11107
ENCODING 11107
SWIDTH 460 0
DWIDTH 10 0
BBX 12 16 0 -2
BITMAP
FFC0
FFC0
0030
0030
C3C0
C3C0
C300
C300
C300
C300
C300
C300
C300
C300
3C00
3C00
ENDCHAR
STARTCHAR char11108
ENCODING 11108
SWIDTH 460 0
DWIDTH 10 0
BBX 12 18 0 -2
BITMAP
0F00
0F00
30C0
30C0
30C0
30C0
30C0
30C0
FFF0
FFF0
F0F0
F0F0
F0F0
F0F0
FFF0
FFF0
3FC0
3FC0
ENDCHAR
STARTCHAR char11136
ENCODING 11136
SWIDTH 460 0
DWIDTH 10 0
BBX 10 18 0 -2
BITMAP
C000
C000
F000
F000
FC00
FC00
FF00
FF00
FFC0
FFC0
FF00
FF00
FC00
FC00
F000
F000
C000
C000
ENDCHAR
STARTCHAR char11137
ENCODING 11137
SWIDTH 460 0
DWIDTH 10 0
BBX 10 18 0 -2
BITMAP
C000
C000
3000
3000
0C00
0C00
0300
0300
00C0
00C0
0300
0300
0C00
0C00
3000
3000
C000
C000
ENDCHAR
STARTCHAR char11138
ENCODING 11138
SWIDTH 460 0
DWIDTH 10 0
BBX 10 18 0 -2
BITMAP
00C0
00C0
03C0
03C0
0FC0
0FC0
3FC0
3FC0
FFC0
FFC0
3FC0
3FC0
0FC0
0FC0
03C0
03C0
00C0
00C0
ENDCHAR
STARTCHAR char11139
ENCODING 11139
SWIDTH 460 0
DWIDTH 10 0
BBX 10 18 2 -2
BITMAP
00C0
00C0
0300
0300
0C00
0C00
3000
3000
C000
C000
3000
3000
0C00
0C00
0300
0300
00C0
00C0
ENDCHAR
STARTCHAR char11148
ENCODING 11148
SWIDTH 460 0
DWIDTH 10 0
BBX 10 12 0 0
BITMAP
3300
3300
3300
3300
FFC0
FFC0
3F00
3F00
0C00
0C00
0C00
0C00
ENDCHAR
STARTCHAR char11149
ENCODING 11149
SWIDTH 460 0
DWIDTH 10 0
BBX 10 14 0 0
BITMAP
0C00
0C00
FFC0
FFC0
F3C0
F3C0
F3C0
F3C0
FFC0
FFC0
F3C0
F3C0
FFC0
FFC0
ENDCHAR
STARTCHAR bat
ENCODING 11150
SWIDTH 460 0
DWIDTH 10 0
BBX 10 14 0 0
BITMAP
0C00
0C00
FFC0
FFC0
CCC0
CCC0
C0C0
C0C0
F3C0
F3C0
F3C0
F3C0
FFC0
FFC0
ENDCHAR
STARTCHAR bat
ENCODING 11151
SWIDTH 460 0
DWIDTH 10 0
BBX 10 14 0 0
BITMAP
0C00
0C00
FFC0
FFC0
C0C0
C0C0
CCC0
CCC0
CCC0
CCC0
C0C0
C0C0
FFC0
FFC0
ENDCHAR
STARTCHAR bat
ENCODING 11152
SWIDTH 460 0
DWIDTH 10 0
BBX 10 14 0 0
BITMAP
0C00
0C00
FFC0
FFC0
C0C0
C0C0
C0C0
C0C0
C0C0
C0C0
C0C0
C0C0
FFC0
FFC0
ENDCHAR
STARTCHAR bat
ENCODING 11153
SWIDTH 460 0
DWIDTH 10 0
BBX 10 14 0 0
BITMAP
0C00
0C00
FFC0
FFC0
C0C0
C0C0
C0C0
C0C0
CCC0
CCC0
C0C0
C0C0
FFC0
FFC0
ENDCHAR
STARTCHAR bat
ENCODING 11154
SWIDTH 460 0
DWIDTH 10 0
BBX 10 14 0 0
BITMAP
0C00
0C00
FFC0
FFC0
FCC0
FCC0
C3C0
C3C0
F0C0
F0C0
CFC0
CFC0
FFC0
FFC0
ENDCHAR
STARTCHAR play
ENCODING 11155
SWIDTH 460 0
DWIDTH 10 0
BBX 6 12 2 0
BITMAP
C0
C0
F0
F0
FC
FC
FC
FC
F0
F0
C0
C0
ENDCHAR
STARTCHAR pause
ENCODING 11156
SWIDTH 460 0
DWIDTH 10 0
BBX 10 12 0 0
BITMAP
F3C0
F3C0
F3C0
F3C0
F3C0
F3C0
F3C0
F3C0
F3C0
F3C0
F3C0
F3C0
ENDCHAR
STARTCHAR music
ENCODING 11157
SWIDTH 460 0
DWIDTH 10 0
BBX 12 12 0 0
BITMAP
3FF0
3FF0
3030
3030
3030
3030
3030
3030
F0F0
F0F0
F0F0
F0F0
ENDCHAR
STARTCHAR clock
ENCODING 11158
SWIDTH 460 0
DWIDTH 10 0
BBX 12 12 0 0
BITMAP
3FC0
3FC0
F3F0
F3F0
F3F0
F3F0
F030
F030
FFF0
FFF0
3FC0
3FC0
ENDCHAR
STARTCHAR arch
ENCODING 11159
SWIDTH 460 0
DWIDTH 10 0
BBX 10 14 0 0
BITMAP
0C00
0C00
0C00
0C00
3F00
3F00
3F00
3F00
3300
3300
F3C0
F3C0
C0C0
C0C0
ENDCHAR
STARTCHAR tiled
ENCODING 11160
SWIDTH 460 0
DWIDTH 10 0
BBX 12 12 0 0
BITMAP
FCF0
FCF0
FCF0
FCF0
FCF0
FCF0
FC00
FC00
FCF0
FCF0
FCF0
FCF0
ENDCHAR
STARTCHAR tiled
ENCODING 11161
SWIDTH 460 0
DWIDTH 10 0
BBX 12 12 0 0
BITMAP
F3F0
F3F0
F3F0
F3F0
F3F0
F3F0
03F0
03F0
F3F0
F3F0
F3F0
F3F0
ENDCHAR
STARTCHAR tiled
ENCODING 11162
SWIDTH 460 0
DWIDTH 10 0
BBX 12 12 0 0
BITMAP
FFF0
FFF0
FFF0
FFF0
FFF0
FFF0
0000
0000
FCF0
FCF0
FCF0
FCF0
ENDCHAR
STARTCHAR float
ENCODING 11163
SWIDTH 460 0
DWIDTH 10 0
BBX 12 12 0 0
BITMAP
FF00
FF00
FF00
FF00
FF30
FF30
FF30
FF30
0030
0030
0FF0
0FF0
ENDCHAR
STARTCHAR headphones
ENCODING 11164
SWIDTH 460 0
DWIDTH 10 0
BBX 10 12 0 0
BITMAP
3F00
3F00
C0C0
C0C0
C0C0
C0C0
C0C0
C0C0
F3C0
F3C0
3300
3300
ENDCHAR
STARTCHAR muted,
ENCODING 11165
SWIDTH 460 0
DWIDTH 10 0
BBX 8 12 0 0
BITMAP
03
03
0F
0F
FF
FF
FF
FF
0F
0F
03
03
ENDCHAR
STARTCHAR loud
ENCODING 11166
SWIDTH 460 0
DWIDTH 10 0
BBX 12 12 0 0
BITMAP
0300
0300
0F00
0F00
FF30
FF30
FF30
FF30
0F00
0F00
0300
0300
ENDCHAR
STARTCHAR soft
ENCODING 11167
SWIDTH 460 0
DWIDTH 10 0
BBX 14 12 0 0
BITMAP
030C
030C
0F30
0F30
FF0C
FF0C
FF0C
FF0C
0F30
0F30
030C
030C
ENDCHAR
STARTCHAR heart
ENCODING 11168
SWIDTH 460 0
DWIDTH 10 0
BBX 12 12 0 0
BITMAP
30C0
30C0
0FC0
0FC0
F3C0
F3C0
FCC0
FCC0
0330
0330
00C0
00C0
ENDCHAR
STARTCHAR cpu
ENCODING 11169
SWIDTH 460 0
DWIDTH 10 0
BBX 10 12 0 0
BITMAP
CCC0
CCC0
0000
0000
FFC0
FFC0
FFC0
FFC0
0000
0000
CCC0
CCC0
ENDCHAR
STARTCHAR pacman
ENCODING 11170
SWIDTH 460 0
DWIDTH 10 0
BBX 10 10 0 0
BITMAP
3F00
3F00
F3C0
F3C0
FF00
FF00
F000
F000
3F00
3F00
ENDCHAR
STARTCHAR mail
ENCODING 11171
SWIDTH 460 0
DWIDTH 10 0
BBX 10 10 0 0
BITMAP
FFC0
FFC0
3F00
3F00
CCC0
CCC0
F3C0
F3C0
FFC0
FFC0
ENDCHAR
STARTCHAR data
ENCODING 11172
SWIDTH 460 0
DWIDTH 10 0
BBX 12 12 0 0
BITMAP
FFF0
FFF0
C030
C030
C030
C030
CFF0
CFF0
CCF0
CCF0
3FF0
3FF0
ENDCHAR
STARTCHAR simon
ENCODING 11173
SWIDTH 460 0
DWIDTH 10 0
BBX 14 14 -2 -2
BITMAP
3C30
3C30
CFCC
CFCC
3FFC
3FFC
3CF0
3CF0
FFF0
FFF0
CFCC
CFCC
30F0
30F0
ENDCHAR
STARTCHAR core
ENCODING 11174
SWIDTH 460 0
DWIDTH 10 0
BBX 14 14 0 -2
BITMAP
F33C
F33C
C00C
C00C
0FC0
0FC0
CFCC
CFCC
0FC0
0FC0
C00C
C00C
F33C
F33C
ENDCHAR
STARTCHAR grid
ENCODING 11175
SWIDTH 460 0
DWIDTH 10 0
BBX 10 10 0 0
BITMAP
F3C0
F3C0
F3C0
F3C0
0000
0000
F3C0
F3C0
F3C0
F3C0
ENDCHAR
STARTCHAR daze
ENCODING 11176
SWIDTH 460 0
DWIDTH 10 0
BBX 12 12 0 0
BITMAP
FCF0
FCF0
FC00
FC00
FCF0
FCF0
FC00
FC00
FCF0
FCF0
FCF0
FCF0
ENDCHAR
STARTCHAR term
ENCODING 11177
SWIDTH 460 0
DWIDTH 10 0
BBX 12 12 0 0
BITMAP
FFF0
FFF0
CFF0
CFF0
F3F0
F3F0
CC30
CC30
FFF0
FFF0
FFF0
FFF0
ENDCHAR
STARTCHAR lock
ENCODING 11178
SWIDTH 460 0
DWIDTH 10 0
BBX 10 14 0 -2
BITMAP
3F00
3F00
3300
3300
3300
3300
FFC0
FFC0
F3C0
F3C0
FFC0
FFC0
3F00
3F00
ENDCHAR
STARTCHAR ichi
ENCODING 11179
SWIDTH 460 0
DWIDTH 10 0
BBX 8 2 0 6
BITMAP
FF
FF
ENDCHAR
STARTCHAR ni
ENCODING 11180
SWIDTH 460 0
DWIDTH 10 0
BBX 8 6 0 4
BITMAP
FF
FF
00
00
FF
FF
ENDCHAR
STARTCHAR san
ENCODING 11181
SWIDTH 460 0
DWIDTH 10 0
BBX 10 10 0 2
BITMAP
FFC0
FFC0
0000
0000
3F00
3F00
0000
0000
FFC0
FFC0
ENDCHAR
STARTCHAR yon
ENCODING 11182
SWIDTH 460 0
DWIDTH 10 0
BBX 10 10 0 2
BITMAP
FFC0
FFC0
CCC0
CCC0
FFC0
FFC0
C0C0
C0C0
FFC0
FFC0
ENDCHAR
STARTCHAR go
ENCODING 11183
SWIDTH 460 0
DWIDTH 10 0
BBX 10 10 0 2
BITMAP
FF00
FF00
3000
3000
3F00
3F00
3300
3300
FFC0
FFC0
ENDCHAR
STARTCHAR cpu
ENCODING 11184
SWIDTH 460 0
DWIDTH 10 0
BBX 14 14 0 -2
BITMAP
3330
3330
FFFC
FFFC
3C30
3C30
F33C
F33C
30F0
30F0
FFFC
FFFC
3330
3330
ENDCHAR
STARTCHAR squiglies
ENCODING 11185
SWIDTH 460 0
DWIDTH 10 0
BBX 8 10 2 0
BITMAP
33
33
CC
CC
00
00
33
33
CC
CC
ENDCHAR
STARTCHAR next
ENCODING 11186
SWIDTH 460 0
DWIDTH 10 0
BBX 10 12 2 0
BITMAP
C0C0
C0C0
F0C0
F0C0
FCC0
FCC0
FCC0
FCC0
F0C0
F0C0
C0C0
C0C0
ENDCHAR
STARTCHAR prev
ENCODING 11187
SWIDTH 460 0
DWIDTH 10 0
BBX 10 12 2 0
BITMAP
C0C0
C0C0
C3C0
C3C0
CFC0
CFC0
CFC0
CFC0
C3C0
C3C0
C0C0
C0C0
ENDCHAR
STARTCHAR up
ENCODING 11188
SWIDTH 460 0
DWIDTH 10 0
BBX 14 16 0 -2
BITMAP
0300
0300
0FC0
0FC0
3FF0
3FF0
FFFC
FFFC
0FC0
0FC0
0FC0
0FC0
0FC0
0FC0
3F00
3F00
ENDCHAR
STARTCHAR down
ENCODING 11189
SWIDTH 460 0
DWIDTH 10 0
BBX 14 16 0 -2
BITMAP
03F0
03F0
0FC0
0FC0
0FC0
0FC0
0FC0
0FC0
FFFC
FFFC
3FF0
3FF0
0FC0
0FC0
0300
0300
ENDCHAR
STARTCHAR bar
ENCODING 11190
SWIDTH 460 0
DWIDTH 10 0
BBX 10 2 2 4
BITMAP
FFC0
FFC0
ENDCHAR
STARTCHAR good
ENCODING 11191
SWIDTH 460 0
DWIDTH 10 0
BBX 10 12 0 0
BITMAP
00C0
00C0
00C0
00C0
0CC0
0CC0
0CC0
0CC0
CCC0
CCC0
CCC0
CCC0
ENDCHAR
STARTCHAR okay
ENCODING 11192
SWIDTH 460 0
DWIDTH 10 0
BBX 10 8 0 0
BITMAP
0C00
0C00
0C00
0C00
CC00
CC00
CCC0
CCC0
ENDCHAR
STARTCHAR shit
ENCODING 11193
SWIDTH 460 0
DWIDTH 10 0
BBX 10 4 0 0
BITMAP
C000
C000
CCC0
CCC0
ENDCHAR
STARTCHAR temp
ENCODING 11194
SWIDTH 460 0
DWIDTH 10 0
BBX 14 16 0 -2
BITMAP
0300
0300
003C
003C
30FC
30FC
0330
0330
3CC0
3CC0
C300
C300
C300
C300
3C00
3C00
ENDCHAR
STARTCHAR pen
ENCODING 11195
SWIDTH 460 0
DWIDTH 10 0
BBX 14 14 0 -2
BITMAP
003C
003C
03FC
03FC
0FF0
0FF0
0FF0
0FF0
3FC0
3FC0
CC00
CC00
F000
F000
ENDCHAR
STARTCHAR globe
ENCODING 11196
SWIDTH 460 0
DWIDTH 10 0
BBX 12 12 0 0
BITMAP
3FC0
3FC0
CCF0
CCF0
FC30
FC30
CCF0
CCF0
F030
F030
3FC0
3FC0
ENDCHAR
STARTCHAR some
ENCODING 11197
SWIDTH 460 0
DWIDTH 10 0
BBX 12 10 0 0
BITMAP
CF30
CF30
0F00
0F00
CF30
CF30
0F00
0F00
CF30
CF30
ENDCHAR
STARTCHAR w_cloud
ENCODING 11198
SWIDTH 460 0
DWIDTH 10 0
BBX 14 10 0 2
BITMAP
0FC0
0FC0
3FF0
3FF0
FFFC
FFFC
FFFC
FFFC
3CF0
3CF0
ENDCHAR
STARTCHAR w_lightning
ENCODING 11199
SWIDTH 460 0
DWIDTH 10 0
BBX 14 16 0 -4
BITMAP
0FC0
0FC0
3FF0
3FF0
FFFC
FFFC
FFFC
FFFC
3CF0
3CF0
0300
0300
0F00
0F00
0C00
0C00
ENDCHAR
STARTCHAR w_rain
ENCODING 11200
SWIDTH 460 0
DWIDTH 10 0
BBX 14 16 0 -4
BITMAP
0FC0
0FC0
3FF0
3FF0
FFFC
FFFC
FFFC
FFFC
3CF0
3CF0
0000
0000
3330
3330
CCC0
CCC0
ENDCHAR
STARTCHAR w_snow
ENCODING 11201
SWIDTH 460 0
DWIDTH 10 0
BBX 14 18 0 -6
BITMAP
0FC0
0FC0
3FF0
3FF0
FFFC
FFFC
FFFC
FFFC
3CF0
3CF0
0000
0000
C300
C300
0CC0
0CC0
030C
030C
ENDCHAR
STARTCHAR w_hail
ENCODING 11202
SWIDTH 460 0
DWIDTH 10 0
BBX 14 18 0 -6
BITMAP
0FC0
0FC0
3FF0
3FF0
FFFC
FFFC
FFFC
FFFC
3CF0
3CF0
0300
0300
3030
3030
0300
0300
3030
3030
ENDCHAR
STARTCHAR w_morerainidunno
ENCODING 11203
SWIDTH 460 0
DWIDTH 10 0
BBX 14 16 0 -4
BITMAP
0FC0
0FC0
3FF0
3FF0
FFFC
FFFC
FFFC
FFFC
3CF0
3CF0
0000
0000
3030
3030
0300
0300
ENDCHAR
STARTCHAR w_partly
ENCODING 11204
SWIDTH 460 0
DWIDTH 10 0
BBX 16 14 0 2
BITMAP
00CC
00CC
0CF0
0CF0
3F0F
3F0F
FC0C
FC0C
FF0F
FF0F
FFF0
FFF0
33CC
33CC
ENDCHAR
STARTCHAR w_partlymoon
ENCODING 11205
SWIDTH 460 0
DWIDTH 10 0
BBX 16 16 0 2
BITMAP
00C0
00C0
0300
0300
0300
0300
33C3
33C3
FCFC
FCFC
FF00
FF00
FFF0
FFF0
33C0
33C0
ENDCHAR
STARTCHAR w_moon
ENCODING 11206
SWIDTH 460 0
DWIDTH 10 0
BBX 10 10 0 0
BITMAP
3000
3000
C000
C000
C000
C000
F0C0
F0C0
3F00
3F00
ENDCHAR
STARTCHAR w_sun
ENCODING 11207
SWIDTH 460 0
DWIDTH 10 0
BBX 14 14 0 0
BITMAP
C30C
C30C
3FF0
3FF0
3030
3030
F03C
F03C
3030
3030
3FF0
3FF0
C30C
C30C
ENDCHAR
STARTCHAR w_wind
ENCODING 11208
SWIDTH 460 0
DWIDTH 10 0
BBX 16 14 0 -2
BITMAP
03C0
03C0
FFC0
FFC0
000F
000F
FFFF
FFFF
0000
0000
FFF0
FFF0
00F0
00F0
ENDCHAR
STARTCHAR char11209
ENCODING 11209
SWIDTH 460 0
DWIDTH 10 0
BBX 12 14 0 0
BITMAP
FFF0
FFF0
CC30
CC30
FFF0
FFF0
CCF0
CCF0
F330
F330
FCF0
FCF0
FFF0
FFF0
ENDCHAR
STARTCHAR clock,hour
ENCODING 11210
SWIDTH 460 0
DWIDTH 10 0
BBX 12 12 0 0
BITMAP
3FC0
3FC0
F3F0
F3F0
F3F0
F3F0
F3F0
F3F0
FFF0
FFF0
3FC0
3FC0
ENDCHAR
STARTCHAR clock,halfhour
ENCODING 11211
SWIDTH 460 0
DWIDTH 10 0
BBX 12 12 0 0
BITMAP
3FC0
3FC0
F3F0
F3F0
F3F0
F3F0
FCF0
FCF0
FCF0
FCF0
3FC0
3FC0
ENDCHAR
STARTCHAR clock,15til
ENCODING 11212
SWIDTH 460 0
DWIDTH 10 0
BBX 12 12 0 0
BITMAP
3FC0
3FC0
F3F0
F3F0
F3F0
F3F0
C3F0
C3F0
FFF0
FFF0
3FC0
3FC0
ENDCHAR
STARTCHAR char11213
ENCODING 11213
SWIDTH 460 0
DWIDTH 10 0
BBX 14 14 -2 0
BITMAP
3030
3030
FFFC
FFFC
FFFC
FFFC
C00C
C00C
CCCC
CCCC
C00C
C00C
FFFC
FFFC
ENDCHAR
STARTCHAR char11214
ENCODING 11214
SWIDTH 460 0
DWIDTH 10 0
BBX 14 14 -2 0
BITMAP
F03C
F03C
3CF0
3CF0
FCFC
FCFC
0000
0000
3CF0
3CF0
FCFC
FCFC
CCCC
CCCC
ENDCHAR
STARTCHAR char11215
ENCODING 11215
SWIDTH 460 0
DWIDTH 10 0
BBX 14 14 -2 0
BITMAP
03FC
03FC
00FC
00FC
03FC
03FC
CFCC
CFCC
FF00
FF00
FC00
FC00
FF00
FF00
ENDCHAR
STARTCHAR char11216
ENCODING 11216
SWIDTH 460 0
DWIDTH 10 0
BBX 16 14 0 0
BITMAP
0FF0
0FF0
300C
300C
C3C3
C3C3
C3C3
C3C3
C3C3
C3C3
300C
300C
0FF0
0FF0
ENDCHAR
STARTCHAR char11217
ENCODING 11217
SWIDTH 460 0
DWIDTH 10 0
BBX 14 14 0 -2
BITMAP
0FF0
0FF0
3FFC
3FFC
3FFC
3FFC
3FFC
3FFC
0FF0
0FF0
3C00
3C00
F000
F000
ENDCHAR
STARTCHAR char11218
ENCODING 11218
SWIDTH 460 0
DWIDTH 10 0
BBX 14 14 -2 0
BITMAP
00CC
00CC
00F0
00F0
00FC
00FC
0000
0000
FC00
FC00
3C00
3C00
CC00
CC00
ENDCHAR
STARTCHAR char8212
ENCODING 11834
SWIDTH 460 0
DWIDTH 10 0
BBX 10 2 2 6
BITMAP
FFC0
FFC0
ENDCHAR
STARTCHAR char38521
ENCODING 38521
SWIDTH 460 0
DWIDTH 10 0
BBX 8 8 4 0
BITMAP
3C
3C
FF
FF
FF
FF
3C
3C
ENDCHAR
STARTCHAR uniE0A0
ENCODING 57504
SWIDTH 832 0
DWIDTH 10 0
BBX 10 22 0 -2
BITMAP
0C00
0C00
3F00
3F00
FFC0
FFC0
0C00
0C00
0CC0
0CC0
0CC0
0CC0
0CC0
0CC0
0CC0
0CC0
0F00
0F00
0C00
0C00
0C00
0C00
ENDCHAR
STARTCHAR uniE0A1
ENCODING 57505
SWIDTH 832 0
DWIDTH 10 0
BBX 8 18 2 0
BITMAP
C0
C0
C0
C0
C0
C0
FF
FF
00
00
C3
C3
F3
F3
CF
CF
C3
C3
ENDCHAR
STARTCHAR uniE0A2
ENCODING 57506
SWIDTH 832 0
DWIDTH 10 0
BBX 10 16 0 0
BITMAP
0C00
0C00
3300
3300
3300
3300
FFC0
FFC0
F3C0
F3C0
F3C0
F3C0
FFC0
FFC0
3F00
3F00
ENDCHAR
STARTCHAR uniE0A3
ENCODING 57507
SWIDTH 832 0
DWIDTH 10 0
BBX 8 18 2 0
BITMAP
3C
3C
C3
C3
C0
C0
FF
FF
00
00
C3
C3
F3
F3
CF
CF
C3
C3
ENDCHAR
STARTCHAR uniE0B0
ENCODING 57520
SWIDTH 832 0
DWIDTH 10 0
BBX 8 16 0 0
BITMAP
C0
C0
F0
F0
FC
FC
FF
FF
FF
FF
FC
FC
F0
F0
C0
C0
ENDCHAR
STARTCHAR uniE0B1
ENCODING 57521
SWIDTH 832 0
DWIDTH 10 0
BBX 10 24 0 -4
BITMAP
C000
C000
C000
C000
3000
3000
0C00
0C00
0300
0300
00C0
00C0
00C0
00C0
0300
0300
0C00
0C00
3000
3000
C000
C000
C000
C000
ENDCHAR
STARTCHAR uniE0B2
ENCODING 57522
SWIDTH 832 0
DWIDTH 10 0
BBX 8 16 2 0
BITMAP
03
03
0F
0F
3F
3F
FF
FF
FF
FF
3F
3F
0F
0F
03
03
ENDCHAR
STARTCHAR uniE0B3
ENCODING 57523
SWIDTH 832 0
DWIDTH 10 0
BBX 10 24 0 -4
BITMAP
00C0
00C0
00C0
00C0
0300
0300
0C00
0C00
3000
3000
C000
C000
C000
C000
3000
3000
0C00
0C00
0300
0300
00C0
00C0
00C0
00C0
ENDCHAR
STARTCHAR uniE1F1
ENCODING 57841
SWIDTH 832 0
DWIDTH 10 0
BBX 10 14 0 0
BITMAP
FFC0
FFC0
0000
0000
FFC0
FFC0
0000
0000
FFC0
FFC0
0000
0000
FFC0
FFC0
ENDCHAR
STARTCHAR uniE1F2
ENCODING 57842
SWIDTH 832 0
DWIDTH 10 0
BBX 10 14 0 0
BITMAP
CFC0
CFC0
0000
0000
CFC0
CFC0
0000
0000
CFC0
CFC0
0000
0000
CFC0
CFC0
ENDCHAR
STARTCHAR uniE1F3
ENCODING 57843
SWIDTH 832 0
DWIDTH 10 0
BBX 10 14 0 0
BITMAP
FF00
FF00
0000
0000
FFC0
FFC0
0000
0000
FF00
FF00
0000
0000
FFC0
FFC0
ENDCHAR
STARTCHAR uniE1F4
ENCODING 57844
SWIDTH 832 0
DWIDTH 10 0
BBX 10 14 0 0
BITMAP
3FC0
3FC0
0000
0000
FFC0
FFC0
0000
0000
3FC0
3FC0
0000
0000
FFC0
FFC0
ENDCHAR
STARTCHAR FULLWIDTH
ENCODING 65374
SWIDTH 460 0
DWIDTH 10 0
BBX 18 4 -4 6
BITMAP
3F00C0
3F00C0
C0FF00
C0FF00
ENDCHAR
STARTCHAR HALFWIDTH
ENCODING 65378
SWIDTH 460 0
DWIDTH 10 0
BBX 6 12 0 2
BITMAP
FC
FC
C0
C0
C0
C0
C0
C0
C0
C0
C0
C0
ENDCHAR
STARTCHAR HALFWIDTH
ENCODING 65379
SWIDTH 460 0
DWIDTH 10 0
BBX 6 12 2 -2
BITMAP
0C
0C
0C
0C
0C
0C
0C
0C
0C
0C
FC
FC
ENDCHAR
ENDFONT
